WorkSans-Light.ufo
<glyph name="numbersign" format="2">
  <advance width="636"/>
  <unicode hex="0023"/>
  <outline>
    <contour>
      <point x="459" y="660" type="line"/>
      <point x="354" y="0" type="line"/>
      <point x="398" y="0" type="line"/>
      <point x="503" y="660" type="line"/>
    </contour>
    <contour>
      <point x="31" y="238" type="line"/>
      <point x="31" y="199" type="line"/>
      <point x="568" y="199" type="line"/>
      <point x="568" y="238" type="line"/>
    </contour>
    <contour>
      <point x="235" y="660" type="line"/>
      <point x="130" y="0" type="line"/>
      <point x="174" y="0" type="line"/>
      <point x="279" y="660" type="line"/>
    </contour>
    <contour>
      <point x="68" y="468" type="line"/>
      <point x="68" y="429" type="line"/>
      <point x="605" y="429" type="line"/>
      <point x="605" y="468" type="line"/>
    </contour>
  </outline>
</glyph>
<glyph name="dollar" format="2">
  <advance width="599"/>
  <unicode hex="0024"/>
  <outline>
    <contour>
      <point x="328" y="-100" type="line"/>
      <point x="328" y="1" type="line"/>
      <point x="457" y="6"/>
      <point x="540" y="74"/>
      <point x="540" y="175" type="curve" smooth="yes"/>
      <point x="540" y="296"/>
      <point x="434" y="322"/>
      <point x="328" y="344" type="curve"/>
      <point x="328" y="616" type="line"/>
      <point x="413" y="610"/>
      <point x="465" y="569"/>
      <point x="495" y="484" type="curve"/>
      <point x="535" y="516" type="line"/>
      <point x="498" y="607"/>
      <point x="432" y="653"/>
      <point x="328" y="659" type="curve"/>
      <point x="328" y="760" type="line"/>
      <point x="285" y="760" type="line"/>
      <point x="285" y="659" type="line"/>
      <point x="151" y="654"/>
      <point x="72" y="573"/>
      <point x="72" y="477" type="curve" smooth="yes"/>
      <point x="72" y="358"/>
      <point x="178" y="331"/>
      <point x="285" y="309" type="curve"/>
      <point x="285" y="43" type="line"/>
      <point x="192" y="53"/>
      <point x="116" y="107"/>
      <point x="98" y="195" type="curve"/>
      <point x="52" y="171" type="line"/>
      <point x="82" y="67"/>
      <point x="167" y="8"/>
      <point x="285" y="1" type="curve"/>
      <point x="285" y="-100" type="line"/>
    </contour>
    <contour>
      <point x="328" y="300" type="line"/>
      <point x="415" y="281"/>
      <point x="493" y="257"/>
      <point x="493" y="171" type="curve" smooth="yes"/>
      <point x="493" y="89"/>
      <point x="423" y="46"/>
      <point x="328" y="42" type="curve"/>
    </contour>
    <contour>
      <point x="120" y="481" type="curve" smooth="yes"/>
      <point x="120" y="558"/>
      <point x="180" y="613"/>
      <point x="285" y="617" type="curve"/>
      <point x="285" y="353" type="line"/>
      <point x="198" y="372"/>
      <point x="120" y="395"/>
    </contour>
  </outline>
</glyph>
<glyph name="percent" format="2">
  <advance width="809"/>
  <unicode hex="0025"/>
  <outline>
    <contour>
      <point x="470" y="169" type="curve" smooth="yes"/>
      <point x="470" y="71"/>
      <point x="523" y="-5"/>
      <point x="620" y="-5" type="curve" smooth="yes"/>
      <point x="717" y="-5"/>
      <point x="769" y="71"/>
      <point x="769" y="169" type="curve" smooth="yes"/>
      <point x="769" y="267"/>
      <point x="717" y="344"/>
      <point x="620" y="344" type="curve" smooth="yes"/>
      <point x="522" y="344"/>
      <point x="470" y="267"/>
    </contour>
    <contour>
      <point x="40" y="490" type="curve" smooth="yes"/>
      <point x="40" y="392"/>
      <point x="92" y="316"/>
      <point x="189" y="316" type="curve" smooth="yes"/>
      <point x="287" y="316"/>
      <point x="338" y="392"/>
      <point x="338" y="490" type="curve" smooth="yes"/>
      <point x="338" y="588"/>
      <point x="287" y="665"/>
      <point x="189" y="665" type="curve" smooth="yes"/>
      <point x="91" y="665"/>
      <point x="40" y="588"/>
    </contour>
    <contour>
      <point x="293" y="490" type="curve" smooth="yes"/>
      <point x="293" y="413"/>
      <point x="260" y="356"/>
      <point x="189" y="356" type="curve" smooth="yes"/>
      <point x="119" y="356"/>
      <point x="85" y="413"/>
      <point x="85" y="490" type="curve" smooth="yes"/>
      <point x="85" y="567"/>
      <point x="119" y="625"/>
      <point x="189" y="625" type="curve" smooth="yes"/>
      <point x="259" y="625"/>
      <point x="293" y="567"/>
    </contour>
    <contour>
      <point x="724" y="169" type="curve" smooth="yes"/>
      <point x="724" y="92"/>
      <point x="690" y="35"/>
      <point x="620" y="35" type="curve" smooth="yes"/>
      <point x="549" y="35"/>
      <point x="515" y="92"/>
      <point x="515" y="169" type="curve" smooth="yes"/>
      <point x="515" y="247"/>
      <point x="549" y="304"/>
      <point x="620" y="304" type="curve" smooth="yes"/>
      <point x="690" y="304"/>
      <point x="724" y="247"/>
    </contour>
    <contour>
      <point x="212" y="0" type="line"/>
      <point x="645" y="660" type="line"/>
      <point x="596" y="660" type="line"/>
      <point x="163" y="0" type="line"/>
    </contour>
  </outline>
</glyph>
<glyph name="ampersand" format="2">
  <advance width="599"/>
  <unicode hex="0026"/>
  <outline>
    <contour>
      <point x="458" y="89" type="curve"/>
      <point x="515" y="161"/>
      <point x="540" y="261"/>
      <point x="537" y="356" type="curve"/>
      <point x="496" y="360" type="line"/>
      <point x="499" y="263"/>
      <point x="476" y="178"/>
      <point x="429" y="119" type="curve"/>
      <point x="386" y="63"/>
      <point x="323" y="31"/>
      <point x="244" y="31" type="curve" smooth="yes"/>
      <point x="162" y="31"/>
      <point x="94" y="79"/>
      <point x="94" y="154" type="curve" smooth="yes"/>
      <point x="94" y="231"/>
      <point x="145" y="275"/>
      <point x="267" y="342" type="curve" smooth="yes"/>
      <point x="396" y="414"/>
      <point x="424" y="468"/>
      <point x="424" y="541" type="curve" smooth="yes"/>
      <point x="424" y="627"/>
      <point x="359" y="668"/>
      <point x="280" y="668" type="curve" smooth="yes"/>
      <point x="186" y="668"/>
      <point x="132" y="604"/>
      <point x="132" y="528" type="curve" smooth="yes"/>
      <point x="132" y="455"/>
      <point x="174" y="411"/>
      <point x="314" y="233" type="curve" smooth="yes"/>
      <point x="474" y="31"/>
      <point x="519" y="-10"/>
      <point x="593" y="-10" type="curve"/>
      <point x="605" y="28" type="line"/>
      <point x="538" y="28"/>
      <point x="501" y="64"/>
      <point x="347" y="261" type="curve" smooth="yes"/>
      <point x="200" y="450"/>
      <point x="179" y="473"/>
      <point x="179" y="529" type="curve" smooth="yes"/>
      <point x="179" y="584"/>
      <point x="216" y="625"/>
      <point x="279" y="625" type="curve" smooth="yes"/>
      <point x="341" y="625"/>
      <point x="379" y="595"/>
      <point x="379" y="540" type="curve" smooth="yes"/>
      <point x="379" y="484"/>
      <point x="358" y="437"/>
      <point x="241" y="375" type="curve" smooth="yes"/>
      <point x="111" y="308"/>
      <point x="47" y="249"/>
      <point x="47" y="151" type="curve" smooth="yes"/>
      <point x="47" y="55"/>
      <point x="131" y="-10"/>
      <point x="247" y="-10" type="curve" smooth="yes"/>
      <point x="341" y="-10"/>
      <point x="411" y="29"/>
    </contour>
  </outline>
</glyph>
<glyph name="asterisk" format="2">
  <advance width="543"/>
  <unicode hex="002A"/>
  <outline>
    <contour>
      <point x="271" y="503" type="line"/>
      <point x="261" y="496" type="line"/>
      <point x="312" y="410" type="line"/>
      <point x="388" y="308" type="line"/>
      <point x="421" y="332" type="line"/>
      <point x="347" y="436" type="line"/>
      <point x="282" y="511" type="line"/>
    </contour>
    <contour>
      <point x="196" y="436" type="line"/>
      <point x="122" y="332" type="line"/>
      <point x="155" y="308" type="line"/>
      <point x="231" y="410" type="line"/>
      <point x="282" y="496" type="line"/>
      <point x="271" y="503" type="line"/>
      <point x="261" y="511" type="line"/>
    </contour>
    <contour>
      <point x="50" y="554" type="line"/>
      <point x="170" y="514" type="line"/>
      <point x="267" y="492" type="line"/>
      <point x="271" y="503" type="line"/>
      <point x="276" y="516" type="line"/>
      <point x="183" y="555" type="line"/>
      <point x="62" y="593" type="line"/>
    </contour>
    <contour>
      <point x="250" y="730" type="line"/>
      <point x="250" y="603" type="line"/>
      <point x="259" y="503" type="line"/>
      <point x="271" y="503" type="line"/>
      <point x="284" y="503" type="line"/>
      <point x="293" y="603" type="line"/>
      <point x="293" y="730" type="line"/>
    </contour>
    <contour>
      <point x="359" y="555" type="line"/>
      <point x="267" y="516" type="line"/>
      <point x="271" y="503" type="line"/>
      <point x="276" y="492" type="line"/>
      <point x="373" y="514" type="line"/>
      <point x="493" y="554" type="line"/>
      <point x="481" y="593" type="line"/>
    </contour>
  </outline>
</glyph>
<glyph name="plus" format="2">
  <advance width="604"/>
  <unicode hex="002B"/>
  <outline>
    <contour>
      <point x="279" y="555" type="line"/>
      <point x="279" y="73" type="line"/>
      <point x="326" y="73" type="line"/>
      <point x="326" y="555" type="line"/>
    </contour>
    <contour>
      <point x="64" y="339" type="line"/>
      <point x="64" y="293" type="line"/>
      <point x="540" y="293" type="line"/>
      <point x="540" y="339" type="line"/>
    </contour>
  </outline>
</glyph>
<glyph name="slash" format="2">
  <advance width="396"/>
  <unicode hex="002F"/>
  <outline>
    <contour>
      <point x="316" y="730" type="line"/>
      <point x="31" y="-70" type="line"/>
      <point x="79" y="-70" type="line"/>
      <point x="364" y="730" type="line"/>
    </contour>
  </outline>
</glyph>
<glyph name="two" format="2">
  <advance width="560"/>
  <unicode hex="0032"/>
  <outline>
    <contour>
      <point x="506" y="0" type="line"/>
      <point x="506" y="46" type="line"/>
      <point x="204" y="46" type="line" smooth="yes"/>
      <point x="189" y="46"/>
      <point x="154" y="45"/>
      <point x="138" y="45" type="curve"/>
      <point x="138" y="46" type="line"/>
      <point x="374" y="223"/>
      <point x="485" y="335"/>
      <point x="485" y="469" type="curve" smooth="yes"/>
      <point x="485" y="591"/>
      <point x="403" y="670"/>
      <point x="272" y="670" type="curve" smooth="yes"/>
      <point x="142" y="670"/>
      <point x="62" y="589"/>
      <point x="50" y="469" type="curve"/>
      <point x="94" y="444" type="line"/>
      <point x="102" y="553"/>
      <point x="167" y="624"/>
      <point x="271" y="624" type="curve" smooth="yes"/>
      <point x="371" y="624"/>
      <point x="433" y="563"/>
      <point x="433" y="469" type="curve" smooth="yes"/>
      <point x="433" y="341"/>
      <point x="316" y="237"/>
      <point x="65" y="41" type="curve"/>
      <point x="65" y="0" type="line"/>
    </contour>
  </outline>
</glyph>
<glyph name="four" format="2">
  <advance width="582"/>
  <unicode hex="0034"/>
  <outline>
    <contour>
      <point x="419" y="231" type="line"/>
      <point x="419" y="660" type="line"/>
      <point x="355" y="660" type="line"/>
      <point x="41" y="226" type="line"/>
      <point x="41" y="188" type="line"/>
      <point x="369" y="188" type="line"/>
      <point x="369" y="0" type="line"/>
      <point x="419" y="0" type="line"/>
      <point x="419" y="188" type="line"/>
      <point x="546" y="188" type="line"/>
      <point x="546" y="231" type="line"/>
    </contour>
    <contour>
      <point x="369" y="618" type="curve"/>
      <point x="371" y="618" type="line"/>
      <point x="369" y="533" type="line"/>
      <point x="369" y="231" type="line"/>
      <point x="95" y="231" type="line"/>
      <point x="314" y="531" type="line" smooth="yes"/>
      <point x="331" y="556"/>
      <point x="354" y="591"/>
    </contour>
  </outline>
</glyph>
<glyph name="five" format="2">
  <advance width="560"/>
  <unicode hex="0035"/>
  <outline>
    <contour>
      <point x="126" y="345" type="curve"/>
      <point x="125" y="345" type="line"/>
      <point x="127" y="358" type="line"/>
      <point x="153" y="614" type="line"/>
      <point x="476" y="614" type="line"/>
      <point x="476" y="660" type="line"/>
      <point x="111" y="660" type="line"/>
      <point x="75" y="292" type="line"/>
      <point x="119" y="292" type="line"/>
      <point x="150" y="335"/>
      <point x="204" y="366"/>
      <point x="289" y="366" type="curve" smooth="yes"/>
      <point x="388" y="366"/>
      <point x="451" y="303"/>
      <point x="452" y="201" type="curve" smooth="yes"/>
      <point x="452" y="102"/>
      <point x="385" y="36"/>
      <point x="283" y="36" type="curve" smooth="yes"/>
      <point x="180" y="36"/>
      <point x="124" y="83"/>
      <point x="105" y="169" type="curve"/>
      <point x="57" y="145" type="line"/>
      <point x="88" y="39"/>
      <point x="166" y="-10"/>
      <point x="285" y="-10" type="curve" smooth="yes"/>
      <point x="418" y="-10"/>
      <point x="504" y="74"/>
      <point x="504" y="203" type="curve" smooth="yes"/>
      <point x="504" y="328"/>
      <point x="420" y="412"/>
      <point x="296" y="412" type="curve" smooth="yes"/>
      <point x="211" y="412"/>
      <point x="158" y="382"/>
    </contour>
  </outline>
</glyph>
<glyph name="nine" format="2">
  <advance width="596"/>
  <unicode hex="0039"/>
  <outline>
    <contour>
      <point x="64" y="462" type="curve" smooth="yes"/>
      <point x="64" y="334"/>
      <point x="149" y="253"/>
      <point x="280" y="253" type="curve" smooth="yes"/>
      <point x="368" y="253"/>
      <point x="468" y="303"/>
      <point x="476" y="415" type="curve"/>
      <point x="479" y="415" type="line"/>
      <point x="482" y="393"/>
      <point x="485" y="370"/>
      <point x="485" y="346" type="curve" smooth="yes"/>
      <point x="485" y="177"/>
      <point x="436" y="36"/>
      <point x="285" y="36" type="curve" smooth="yes"/>
      <point x="181" y="36"/>
      <point x="134" y="87"/>
      <point x="116" y="161" type="curve"/>
      <point x="66" y="135" type="line"/>
      <point x="95" y="44"/>
      <point x="170" y="-10"/>
      <point x="286" y="-10" type="curve" smooth="yes"/>
      <point x="437" y="-10"/>
      <point x="530" y="106"/>
      <point x="530" y="330" type="curve" smooth="yes"/>
      <point x="530" y="538"/>
      <point x="444" y="670"/>
      <point x="285" y="670" type="curve" smooth="yes"/>
      <point x="150" y="670"/>
      <point x="64" y="589"/>
    </contour>
    <contour>
      <point x="453" y="460" type="curve" smooth="yes"/>
      <point x="453" y="375"/>
      <point x="384" y="300"/>
      <point x="284" y="300" type="curve" smooth="yes"/>
      <point x="180" y="300"/>
      <point x="116" y="363"/>
      <point x="116" y="460" type="curve" smooth="yes"/>
      <point x="116" y="560"/>
      <point x="180" y="623"/>
      <point x="286" y="623" type="curve" smooth="yes"/>
      <point x="385" y="623"/>
      <point x="453" y="555"/>
    </contour>
  </outline>
</glyph>
<glyph name="less" format="2">
  <advance width="604"/>
  <unicode hex="003C"/>
  <outline>
    <contour>
      <point x="540" y="504" type="line"/>
      <point x="540" y="557" type="line"/>
      <point x="80" y="329" type="line"/>
      <point x="80" y="280" type="line"/>
    </contour>
    <contour>
      <point x="80" y="319" type="line"/>
      <point x="80" y="270" type="line"/>
      <point x="540" y="42" type="line"/>
      <point x="540" y="95" type="line"/>
    </contour>
  </outline>
</glyph>
<glyph name="equal" format="2">
  <advance width="604"/>
  <unicode hex="003D"/>
  <outline>
    <contour>
      <point x="75" y="432" type="line"/>
      <point x="75" y="386" type="line"/>
      <point x="529" y="386" type="line"/>
      <point x="529" y="432" type="line"/>
    </contour>
    <contour>
      <point x="75" y="230" type="line"/>
      <point x="75" y="184" type="line"/>
      <point x="529" y="184" type="line"/>
      <point x="529" y="230" type="line"/>
    </contour>
  </outline>
</glyph>
<glyph name="question" format="2">
  <advance width="510"/>
  <unicode hex="003F"/>
  <outline>
    <contour>
      <point x="35" y="500" type="curve"/>
      <point x="79" y="476" type="line"/>
      <point x="91" y="568"/>
      <point x="149" y="624"/>
      <point x="255" y="624" type="curve" smooth="yes"/>
      <point x="353" y="624"/>
      <point x="412" y="574"/>
      <point x="412" y="495" type="curve" smooth="yes"/>
      <point x="412" y="404"/>
      <point x="361" y="358"/>
      <point x="220" y="326" type="curve"/>
      <point x="220" y="181" type="line"/>
      <point x="271" y="181" type="line"/>
      <point x="271" y="299" type="line"/>
      <point x="392" y="324"/>
      <point x="464" y="386"/>
      <point x="464" y="500" type="curve" smooth="yes"/>
      <point x="464" y="606"/>
      <point x="379" y="670"/>
      <point x="258" y="670" type="curve" smooth="yes"/>
      <point x="129" y="670"/>
      <point x="54" y="604"/>
    </contour>
    <component base="period" xOffset="135"/>
  </outline>
</glyph>
<glyph name="A" format="2">
  <advance width="625"/>
  <unicode hex="0041"/>
  <anchor x="594" y="0" name="bottomC"/>
  <anchor x="313" y="660" name="top"/>
  <anchor x="606" y="0" name="ogonek"/>
  <anchor x="313" y="0" name="bottom"/>
  <outline>
    <contour>
      <point x="72" y="0" type="line"/>
      <point x="288" y="543" type="line"/>
      <point x="312" y="611" type="line"/>
      <point x="313" y="611" type="line"/>
      <point x="337" y="541" type="line"/>
      <point x="553" y="0" type="line"/>
      <point x="606" y="0" type="line"/>
      <point x="342" y="660" type="line"/>
      <point x="283" y="660" type="line"/>
      <point x="19" y="0" type="line"/>
    </contour>
    <contour>
      <point x="487" y="207" type="line"/>
      <point x="487" y="253" type="line"/>
      <point x="136" y="253" type="line"/>
      <point x="136" y="207" type="line"/>
    </contour>
  </outline>
</glyph>
<glyph name="C" format="2">
  <advance width="669"/>
  <unicode hex="0043"/>
  <anchor x="356" y="0" name="bottomC"/>
  <anchor x="357" y="660" name="top"/>
  <anchor x="445" y="0" name="ogonek"/>
  <anchor x="357" y="0" name="bottom"/>
  <outline>
    <contour>
      <point x="576" y="186" type="line"/>
      <point x="546" y="89"/>
      <point x="468" y="36"/>
      <point x="362" y="36" type="curve" smooth="yes"/>
      <point x="212" y="36"/>
      <point x="115" y="148"/>
      <point x="115" y="330" type="curve" smooth="yes"/>
      <point x="115" y="512"/>
      <point x="215" y="624"/>
      <point x="364" y="624" type="curve" smooth="yes"/>
      <point x="472" y="624"/>
      <point x="537" y="577"/>
      <point x="568" y="484" type="curve"/>
      <point x="617" y="507" type="line"/>
      <point x="579" y="614"/>
      <point x="494" y="670"/>
      <point x="361" y="670" type="curve" smooth="yes"/>
      <point x="181" y="670"/>
      <point x="62" y="539"/>
      <point x="62" y="330" type="curve" smooth="yes"/>
      <point x="62" y="121"/>
      <point x="180" y="-10"/>
      <point x="362" y="-10" type="curve" smooth="yes"/>
      <point x="491" y="-10"/>
      <point x="588" y="55"/>
      <point x="626" y="167" type="curve"/>
    </contour>
  </outline>
</glyph>
<glyph name="L" format="2">
  <advance width="572"/>
  <unicode hex="004C"/>
  <anchor x="464" y="339" name="center"/>
  <anchor x="347" y="0" name="bottomC"/>
  <anchor x="129" y="660" name="top"/>
  <anchor x="347" y="0" name="bottom"/>
  <anchor x="282" y="700" name="topright"/>
  <anchor x="550" y="0" name="ogonek"/>
  <outline>
    <contour>
      <point x="104" y="660" type="line"/>
      <point x="104" y="0" type="line"/>
      <point x="154" y="0" type="line"/>
      <point x="154" y="660" type="line"/>
    </contour>
    <contour>
      <point x="129" y="46" type="line"/>
      <point x="129" y="0" type="line"/>
      <point x="550" y="0" type="line"/>
      <point x="550" y="46" type="line"/>
    </contour>
  </outline>
</glyph>
<glyph name="P" format="2">
  <advance width="587"/>
  <unicode hex="0050"/>
  <anchor x="133" y="0" name="bottomC"/>
  <anchor x="296" y="660" name="top"/>
  <anchor x="154" y="0" name="ogonek"/>
  <anchor x="129" y="0" name="bottom"/>
  <outline>
    <contour>
      <point x="129" y="660" type="line"/>
      <point x="129" y="614" type="line"/>
      <point x="317" y="614" type="line" smooth="yes"/>
      <point x="433" y="614"/>
      <point x="494" y="560"/>
      <point x="494" y="467" type="curve" smooth="yes"/>
      <point x="494" y="373"/>
      <point x="433" y="320"/>
      <point x="317" y="320" type="curve" smooth="yes"/>
      <point x="129" y="320" type="line"/>
      <point x="129" y="273" type="line"/>
      <point x="323" y="273" type="line" smooth="yes"/>
      <point x="460" y="273"/>
      <point x="547" y="346"/>
      <point x="547" y="467" type="curve" smooth="yes"/>
      <point x="547" y="587"/>
      <point x="460" y="660"/>
      <point x="323" y="660" type="curve" smooth="yes"/>
    </contour>
    <contour>
      <point x="104" y="660" type="line"/>
      <point x="104" y="0" type="line"/>
      <point x="154" y="0" type="line"/>
      <point x="154" y="660" type="line"/>
    </contour>
  </outline>
</glyph>
<glyph name="Q" format="2">
  <advance width="732"/>
  <unicode hex="0051"/>
  <anchor x="520" y="-190" name="bottomC"/>
  <anchor x="366" y="660" name="top"/>
  <anchor x="576" y="-190" name="ogonek"/>
  <anchor x="366" y="-210" name="bottom"/>
  <outline>
    <contour>
      <point x="345" y="9" type="line"/>
      <point x="347" y="-136"/>
      <point x="432" y="-195"/>
      <point x="535" y="-195" type="curve" smooth="yes"/>
      <point x="584" y="-195"/>
      <point x="636" y="-180"/>
      <point x="665" y="-154" type="curve"/>
      <point x="647" y="-108" type="line"/>
      <point x="622" y="-133"/>
      <point x="580" y="-145"/>
      <point x="536" y="-145" type="curve" smooth="yes"/>
      <point x="453" y="-145"/>
      <point x="389" y="-106"/>
      <point x="390" y="18" type="curve"/>
    </contour>
    <component base="O"/>
  </outline>
</glyph>
<glyph name="T" format="2">
  <advance width="576"/>
  <unicode hex="0054"/>
  <anchor x="307" y="0" name="bottomC"/>
  <anchor x="288" y="660" name="top"/>
  <anchor x="313" y="0" name="ogonek"/>
  <anchor x="288" y="349" name="center"/>
  <anchor x="288" y="0" name="bottom"/>
  <outline>
    <contour>
      <point x="263" y="657" type="line"/>
      <point x="263" y="0" type="line"/>
      <point x="313" y="0" type="line"/>
      <point x="313" y="657" type="line"/>
    </contour>
    <contour>
      <point x="22" y="660" type="line"/>
      <point x="22" y="614" type="line"/>
      <point x="554" y="614" type="line"/>
      <point x="554" y="660" type="line"/>
    </contour>
  </outline>
</glyph>
<glyph name="U" format="2">
  <advance width="701"/>
  <unicode hex="0055"/>
  <anchor x="351" y="0" name="bottomC"/>
  <anchor x="351" y="660" name="top"/>
  <anchor x="459" y="12" name="ogonek"/>
  <anchor x="351" y="0" name="bottom"/>
  <outline>
    <contour>
      <point x="555" y="660" type="line"/>
      <point x="555" y="251" type="line" smooth="yes"/>
      <point x="555" y="109"/>
      <point x="484" y="36"/>
      <point x="351" y="36" type="curve" smooth="yes"/>
      <point x="217" y="36"/>
      <point x="146" y="109"/>
      <point x="146" y="251" type="curve" smooth="yes"/>
      <point x="146" y="660" type="line"/>
      <point x="96" y="660" type="line"/>
      <point x="96" y="241" type="line" smooth="yes"/>
      <point x="96" y="77"/>
      <point x="189" y="-10"/>
      <point x="351" y="-10" type="curve" smooth="yes"/>
      <point x="512" y="-10"/>
      <point x="605" y="77"/>
      <point x="605" y="241" type="curve" smooth="yes"/>
      <point x="605" y="660" type="line"/>
    </contour>
  </outline>
</glyph>
<glyph name="V" format="2">
  <advance width="614"/>
  <unicode hex="0056"/>
  <anchor x="320" y="0" name="bottomC"/>
  <anchor x="307" y="660" name="top"/>
  <anchor x="337" y="0" name="ogonek"/>
  <anchor x="307" y="0" name="bottom"/>
  <outline>
    <contour>
      <point x="538" y="660" type="line"/>
      <point x="342" y="149" type="line"/>
      <point x="307" y="47" type="line"/>
      <point x="272" y="149" type="line"/>
      <point x="77" y="660" type="line"/>
      <point x="23" y="660" type="line"/>
      <point x="278" y="0" type="line"/>
      <point x="337" y="0" type="line"/>
      <point x="591" y="660" type="line"/>
    </contour>
  </outline>
</glyph>
<glyph name="W" format="2">
  <advance width="937"/>
  <unicode hex="0057"/>
  <anchor x="684" y="0" name="bottomC"/>
  <anchor x="469" y="660" name="top"/>
  <anchor x="701" y="0" name="ogonek"/>
  <anchor x="469" y="0" name="bottom"/>
  <outline>
    <contour>
      <point x="468" y="606" type="line"/>
      <point x="469" y="606" type="line"/>
      <point x="506" y="463" type="line"/>
      <point x="639" y="0" type="line"/>
      <point x="701" y="0" type="line"/>
      <point x="907" y="660" type="line"/>
      <point x="856" y="660" type="line"/>
      <point x="671" y="40" type="line"/>
      <point x="498" y="660" type="line"/>
      <point x="440" y="660" type="line"/>
      <point x="267" y="41" type="line"/>
      <point x="84" y="660" type="line"/>
      <point x="30" y="660" type="line"/>
      <point x="236" y="0" type="line"/>
      <point x="298" y="0" type="line"/>
      <point x="431" y="463" type="line"/>
    </contour>
  </outline>
</glyph>
<glyph name="X" format="2">
  <advance width="566"/>
  <unicode hex="0058"/>
  <anchor x="523" y="0" name="bottomC"/>
  <anchor x="283" y="660" name="top"/>
  <anchor x="541" y="0" name="ogonek"/>
  <anchor x="283" y="0" name="bottom"/>
  <outline>
    <contour>
      <point x="477" y="660" type="line"/>
      <point x="275" y="363" type="line"/>
      <point x="270" y="361" type="line"/>
      <point x="19" y="0" type="line"/>
      <point x="78" y="0" type="line"/>
      <point x="295" y="319" type="line"/>
      <point x="301" y="322" type="line"/>
      <point x="533" y="660" type="line"/>
    </contour>
    <contour>
      <point x="39" y="660" type="line"/>
      <point x="265" y="324" type="line"/>
      <point x="271" y="315" type="line"/>
      <point x="482" y="0" type="line"/>
      <point x="541" y="0" type="line"/>
      <point x="304" y="355" type="line"/>
      <point x="296" y="367" type="line"/>
      <point x="99" y="660" type="line"/>
    </contour>
  </outline>
</glyph>
<glyph name="Y" format="2">
  <advance width="544"/>
  <unicode hex="0059"/>
  <anchor x="276" y="0" name="bottomC"/>
  <anchor x="272" y="660" name="top"/>
  <anchor x="297" y="0" name="ogonek"/>
  <anchor x="272" y="0" name="bottom"/>
  <outline>
    <contour>
      <point x="472" y="660" type="line"/>
      <point x="343" y="434" type="line"/>
      <point x="272" y="309" type="line"/>
      <point x="201" y="434" type="line"/>
      <point x="72" y="660" type="line"/>
      <point x="13" y="660" type="line"/>
      <point x="247" y="257" type="line"/>
      <point x="247" y="0" type="line"/>
      <point x="297" y="0" type="line"/>
      <point x="297" y="257" type="line"/>
      <point x="531" y="660" type="line"/>
    </contour>
  </outline>
</glyph>
<glyph name="Z" format="2">
  <advance width="593"/>
  <unicode hex="005A"/>
  <anchor x="292" y="0" name="bottomC"/>
  <anchor x="292" y="660" name="top"/>
  <anchor x="553" y="0" name="ogonek"/>
  <anchor x="292" y="0" name="bottom"/>
  <outline>
    <contour>
      <point x="537" y="616" type="line"/>
      <point x="537" y="660" type="line"/>
      <point x="52" y="660" type="line"/>
      <point x="52" y="614" type="line"/>
      <point x="501" y="614" type="line"/>
      <point x="492" y="632" type="line"/>
      <point x="43" y="44" type="line"/>
      <point x="43" y="0" type="line"/>
      <point x="553" y="0" type="line"/>
      <point x="553" y="46" type="line"/>
      <point x="79" y="46" type="line"/>
      <point x="88" y="28" type="line"/>
    </contour>
  </outline>
</glyph>
<glyph name="bracketleft" format="2">
  <advance width="311"/>
  <unicode hex="005B"/>
  <outline>
    <contour>
      <point x="82" y="730" type="line"/>
      <point x="82" y="-168" type="line"/>
      <point x="129" y="-168" type="line"/>
      <point x="129" y="730" type="line"/>
    </contour>
    <contour>
      <point x="107" y="-124" type="line"/>
      <point x="107" y="-168" type="line"/>
      <point x="288" y="-168" type="line"/>
      <point x="288" y="-124" type="line"/>
    </contour>
    <contour>
      <point x="107" y="730" type="line"/>
      <point x="107" y="686" type="line"/>
      <point x="288" y="686" type="line"/>
      <point x="288" y="730" type="line"/>
    </contour>
  </outline>
</glyph>
<glyph name="h" format="2">
  <advance width="598"/>
  <unicode hex="0068"/>
  <anchor x="493" y="0" name="bottomC"/>
  <anchor x="114" y="730" name="top"/>
  <anchor x="514" y="0" name="ogonek"/>
  <anchor x="333" y="0" name="bottom"/>
  <outline>
    <contour>
      <point x="89" y="730" type="line"/>
      <point x="89" y="0" type="line"/>
      <point x="139" y="0" type="line"/>
      <point x="139" y="730" type="line"/>
    </contour>
    <contour>
      <point x="120" y="302" type="curve"/>
      <point x="139" y="282" type="line"/>
      <point x="139" y="399"/>
      <point x="224" y="467"/>
      <point x="318" y="467" type="curve" smooth="yes"/>
      <point x="404" y="467"/>
      <point x="464" y="418"/>
      <point x="464" y="309" type="curve" smooth="yes"/>
      <point x="464" y="0" type="line"/>
      <point x="514" y="0" type="line"/>
      <point x="514" y="325" type="line" smooth="yes"/>
      <point x="514" y="447"/>
      <point x="434" y="510"/>
      <point x="323" y="510" type="curve" smooth="yes"/>
      <point x="208" y="510"/>
      <point x="120" y="437"/>
    </contour>
  </outline>
</glyph>
<glyph name="i" format="2">
  <advance width="229"/>
  <unicode hex="0069"/>
  <anchor x="118" y="0" name="bottomC"/>
  <anchor x="114" y="671" name="top"/>
  <anchor x="139" y="0" name="ogonek"/>
  <anchor x="114" y="0" name="bottom"/>
  <outline>
    <contour>
      <point x="156" y="639" type="curve" smooth="yes"/>
      <point x="156" y="664"/>
      <point x="139" y="681"/>
      <point x="114" y="681" type="curve" smooth="yes"/>
      <point x="89" y="681"/>
      <point x="72" y="664"/>
      <point x="72" y="639" type="curve" smooth="yes"/>
      <point x="72" y="614"/>
      <point x="89" y="597"/>
      <point x="114" y="597" type="curve" smooth="yes"/>
      <point x="139" y="597"/>
      <point x="156" y="614"/>
    </contour>
    <component base="idotless"/>
  </outline>
</glyph>
<glyph name="l" format="2">
  <advance width="274"/>
  <unicode hex="006C"/>
  <anchor x="244" y="357" name="center"/>
  <anchor x="177" y="0" name="bottomC"/>
  <anchor x="110" y="730" name="top"/>
  <anchor x="198" y="0" name="bottom"/>
  <anchor x="230" y="730" name="topright"/>
  <anchor x="245" y="0" name="ogonek"/>
  <outline>
    <contour>
      <point x="85" y="730" type="line"/>
      <point x="85" y="116" type="line" smooth="yes"/>
      <point x="85" y="29"/>
      <point x="120" y="-10"/>
      <point x="191" y="-10" type="curve" smooth="yes"/>
      <point x="217" y="-10"/>
      <point x="240" y="-5"/>
      <point x="257" y="3" type="curve"/>
      <point x="264" y="51" type="line"/>
      <point x="241" y="41"/>
      <point x="226" y="37"/>
      <point x="198" y="37" type="curve" smooth="yes"/>
      <point x="153" y="37"/>
      <point x="135" y="60"/>
      <point x="135" y="121" type="curve" smooth="yes"/>
      <point x="135" y="730" type="line"/>
    </contour>
  </outline>
</glyph>
<glyph name="m" format="2">
  <advance width="960"/>
  <unicode hex="006D"/>
  <anchor x="855" y="0" name="bottomC"/>
  <anchor x="483" y="500" name="top"/>
  <anchor x="876" y="1" name="ogonek"/>
  <anchor x="483" y="0" name="bottom"/>
  <outline>
    <contour>
      <point x="487" y="333" type="curve"/>
      <point x="508" y="288" type="line"/>
      <point x="508" y="393"/>
      <point x="586" y="467"/>
      <point x="682" y="467" type="curve" smooth="yes"/>
      <point x="767" y="467"/>
      <point x="826" y="418"/>
      <point x="826" y="320" type="curve" smooth="yes"/>
      <point x="826" y="1" type="line"/>
      <point x="876" y="1" type="line"/>
      <point x="876" y="325" type="line" smooth="yes"/>
      <point x="876" y="449"/>
      <point x="793" y="511"/>
      <point x="688" y="511" type="curve" smooth="yes"/>
      <point x="587" y="511"/>
      <point x="487" y="444"/>
    </contour>
    <contour>
      <point x="89" y="500" type="line"/>
      <point x="89" y="345" type="line"/>
      <point x="89" y="0" type="line"/>
      <point x="139" y="0" type="line"/>
      <point x="139" y="358" type="line"/>
      <point x="138" y="363" type="line"/>
      <point x="134" y="500" type="line"/>
    </contour>
    <contour>
      <point x="116" y="304" type="curve"/>
      <point x="139" y="283" type="line"/>
      <point x="139" y="398"/>
      <point x="224" y="466"/>
      <point x="314" y="466" type="curve" smooth="yes"/>
      <point x="399" y="466"/>
      <point x="458" y="418"/>
      <point x="458" y="319" type="curve" smooth="yes"/>
      <point x="458" y="0" type="line"/>
      <point x="508" y="0" type="line"/>
      <point x="508" y="324" type="line" smooth="yes"/>
      <point x="508" y="448"/>
      <point x="424" y="510"/>
      <point x="319" y="510" type="curve" smooth="yes"/>
      <point x="210" y="510"/>
      <point x="116" y="435"/>
    </contour>
  </outline>
</glyph>
<glyph name="n" format="2">
  <advance width="598"/>
  <unicode hex="006E"/>
  <anchor x="493" y="0" name="bottomC"/>
  <anchor x="306" y="500" name="top"/>
  <anchor x="514" y="0" name="ogonek"/>
  <anchor x="333" y="0" name="bottom"/>
  <outline>
    <contour>
      <point x="117" y="303" type="curve"/>
      <point x="139" y="282" type="line"/>
      <point x="139" y="399"/>
      <point x="224" y="466"/>
      <point x="318" y="466" type="curve" smooth="yes"/>
      <point x="404" y="466"/>
      <point x="464" y="418"/>
      <point x="464" y="308" type="curve" smooth="yes"/>
      <point x="464" y="0" type="line"/>
      <point x="514" y="0" type="line"/>
      <point x="514" y="324" type="line" smooth="yes"/>
      <point x="514" y="447"/>
      <point x="434" y="510"/>
      <point x="323" y="510" type="curve" smooth="yes"/>
      <point x="209" y="510"/>
      <point x="117" y="438"/>
    </contour>
    <contour>
      <point x="89" y="500" type="line"/>
      <point x="89" y="345" type="line"/>
      <point x="89" y="0" type="line"/>
      <point x="139" y="0" type="line"/>
      <point x="139" y="337" type="line"/>
      <point x="138" y="345" type="line"/>
      <point x="134" y="500" type="line"/>
    </contour>
  </outline>
</glyph>
<glyph name="o" format="2">
  <advance width="590"/>
  <unicode hex="006F"/>
  <anchor x="295" y="0" name="bottomC"/>
  <anchor x="295" y="500" name="top"/>
  <anchor x="415" y="19" name="ogonek"/>
  <anchor x="295" y="0" name="bottom"/>
  <outline>
    <contour>
      <point x="57" y="250" type="curve" smooth="yes"/>
      <point x="57" y="88"/>
      <point x="147" y="-10"/>
      <point x="295" y="-10" type="curve" smooth="yes"/>
      <point x="443" y="-10"/>
      <point x="533" y="88"/>
      <point x="533" y="250" type="curve" smooth="yes"/>
      <point x="533" y="412"/>
      <point x="443" y="510"/>
      <point x="295" y="510" type="curve" smooth="yes"/>
      <point x="147" y="510"/>
      <point x="57" y="412"/>
    </contour>
    <contour>
      <point x="483" y="250" type="curve" smooth="yes"/>
      <point x="483" y="115"/>
      <point x="412" y="33"/>
      <point x="295" y="33" type="curve" smooth="yes"/>
      <point x="178" y="33"/>
      <point x="107" y="115"/>
      <point x="107" y="250" type="curve" smooth="yes"/>
      <point x="107" y="385"/>
      <point x="178" y="467"/>
      <point x="295" y="467" type="curve" smooth="yes"/>
      <point x="412" y="467"/>
      <point x="483" y="385"/>
    </contour>
  </outline>
</glyph>
<glyph name="p" format="2">
  <advance width="609"/>
  <unicode hex="0070"/>
  <anchor x="313" y="0" name="bottomC"/>
  <anchor x="313" y="500" name="top"/>
  <anchor x="435" y="19" name="ogonek"/>
  <anchor x="114" y="-210" name="bottom"/>
  <outline>
    <contour>
      <point x="89" y="500" type="line"/>
      <point x="89" y="391" type="line"/>
      <point x="89" y="-210" type="line"/>
      <point x="139" y="-210" type="line"/>
      <point x="139" y="348" type="line"/>
      <point x="138" y="354" type="line"/>
      <point x="134" y="500" type="line"/>
    </contour>
    <component base="bowl" xScale="-1.0" yScale="-1.0" xOffset="652" yOffset="500"/>
  </outline>
</glyph>
<glyph name="q" format="2">
  <advance width="610"/>
  <unicode hex="0071"/>
  <anchor x="279" y="0" name="bottomC"/>
  <anchor x="296" y="500" name="top"/>
  <anchor x="393" y="19" name="ogonek"/>
  <anchor x="496" y="-210" name="bottom"/>
  <outline>
    <contour>
      <point x="476" y="500" type="line"/>
      <point x="472" y="353" type="line"/>
      <point x="471" y="345" type="line"/>
      <point x="471" y="-210" type="line"/>
      <point x="521" y="-210" type="line"/>
      <point x="521" y="391" type="line"/>
      <point x="521" y="500" type="line"/>
    </contour>
    <component base="bowl" yScale="-1.0" xOffset="-42" yOffset="500"/>
  </outline>
</glyph>
<glyph name="r" format="2">
  <advance width="378"/>
  <unicode hex="0072"/>
  <anchor x="118" y="0" name="bottomC"/>
  <anchor x="208" y="500" name="top"/>
  <anchor x="139" y="0" name="ogonek"/>
  <anchor x="126" y="0" name="bottom"/>
  <outline>
    <contour>
      <point x="121" y="300" type="curve"/>
      <point x="139" y="280" type="line"/>
      <point x="139" y="388"/>
      <point x="210" y="464"/>
      <point x="285" y="464" type="curve" smooth="yes"/>
      <point x="316" y="464"/>
      <point x="335" y="457"/>
      <point x="349" y="446" type="curve"/>
      <point x="362" y="493" type="line"/>
      <point x="347" y="504"/>
      <point x="325" y="510"/>
      <point x="299" y="510" type="curve" smooth="yes"/>
      <point x="188" y="510"/>
      <point x="121" y="425"/>
    </contour>
    <contour>
      <point x="89" y="500" type="line"/>
      <point x="89" y="0" type="line"/>
      <point x="139" y="0" type="line"/>
      <point x="139" y="354" type="line"/>
      <point x="139" y="363" type="line"/>
      <point x="131" y="500" type="line"/>
    </contour>
  </outline>
</glyph>
<glyph name="v" format="2">
  <advance width="502"/>
  <unicode hex="0076"/>
  <anchor x="264" y="0" name="bottomC"/>
  <anchor x="251" y="500" name="top"/>
  <anchor x="276" y="0" name="ogonek"/>
  <anchor x="251" y="0" name="bottom"/>
  <outline>
    <contour>
      <point x="432" y="500" type="line"/>
      <point x="231" y="0" type="line"/>
      <point x="276" y="0" type="line"/>
      <point x="485" y="500" type="line"/>
    </contour>
    <contour>
      <point x="17" y="500" type="line"/>
      <point x="226" y="0" type="line"/>
      <point x="272" y="0" type="line"/>
      <point x="73" y="500" type="line"/>
    </contour>
  </outline>
</glyph>
<glyph name="z" format="2">
  <advance width="505"/>
  <unicode hex="007A"/>
  <anchor x="245" y="0" name="bottomC"/>
  <anchor x="245" y="500" name="top"/>
  <anchor x="463" y="0" name="ogonek"/>
  <anchor x="245" y="0" name="bottom"/>
  <outline>
    <contour>
      <point x="463" y="0" type="line"/>
      <point x="463" y="43" type="line"/>
      <point x="196" y="43" type="line"/>
      <point x="106" y="42" type="line"/>
      <point x="166" y="109" type="line"/>
      <point x="451" y="461" type="line"/>
      <point x="451" y="500" type="line"/>
      <point x="46" y="500" type="line"/>
      <point x="46" y="457" type="line"/>
      <point x="316" y="457" type="line"/>
      <point x="395" y="458" type="line"/>
      <point x="343" y="400" type="line"/>
      <point x="49" y="39" type="line"/>
      <point x="49" y="0" type="line"/>
    </contour>
  </outline>
</glyph>
<glyph name="sterling" format="2">
  <advance width="601"/>
  <unicode hex="00A3"/>
  <outline>
    <contour>
      <point x="90" y="331" type="line"/>
      <point x="90" y="290" type="line"/>
      <point x="461" y="290" type="line"/>
      <point x="461" y="331" type="line"/>
    </contour>
    <component base="sterling.part" xOffset="11"/>
  </outline>
</glyph>
<glyph name="currency" format="2">
  <advance width="635"/>
  <unicode hex="00A4"/>
  <outline>
    <contour>
      <point x="123" y="331" type="curve" smooth="yes"/>
      <point x="123" y="214"/>
      <point x="203" y="132"/>
      <point x="318" y="132" type="curve" smooth="yes"/>
      <point x="433" y="132"/>
      <point x="512" y="214"/>
      <point x="512" y="331" type="curve" smooth="yes"/>
      <point x="512" y="448"/>
      <point x="433" y="528"/>
      <point x="318" y="528" type="curve" smooth="yes"/>
      <point x="203" y="528"/>
      <point x="123" y="448"/>
    </contour>
    <contour>
      <point x="462" y="331" type="curve" smooth="yes"/>
      <point x="462" y="239"/>
      <point x="404" y="177"/>
      <point x="318" y="177" type="curve" smooth="yes"/>
      <point x="232" y="177"/>
      <point x="173" y="239"/>
      <point x="173" y="331" type="curve" smooth="yes"/>
      <point x="173" y="422"/>
      <point x="232" y="483"/>
      <point x="318" y="483" type="curve" smooth="yes"/>
      <point x="404" y="483"/>
      <point x="462" y="422"/>
    </contour>
    <contour>
      <point x="66" y="548" type="line"/>
      <point x="179" y="437" type="line"/>
      <point x="212" y="468" type="line"/>
      <point x="99" y="581" type="line"/>
    </contour>
    <contour>
      <point x="66" y="110" type="line"/>
      <point x="99" y="78" type="line"/>
      <point x="211" y="192" type="line"/>
      <point x="179" y="224" type="line"/>
    </contour>
    <contour>
      <point x="423" y="190" type="line"/>
      <point x="537" y="78" type="line"/>
      <point x="569" y="110" type="line"/>
      <point x="455" y="223" type="line"/>
    </contour>
    <contour>
      <point x="425" y="468" type="line"/>
      <point x="457" y="435" type="line"/>
      <point x="569" y="548" type="line"/>
      <point x="537" y="581" type="line"/>
    </contour>
  </outline>
</glyph>
<glyph name="logicalnot" format="2">
  <advance width="604"/>
  <unicode hex="00AC"/>
  <outline>
    <contour>
      <point x="487" y="318" type="line"/>
      <point x="487" y="152" type="line"/>
      <point x="537" y="152" type="line"/>
      <point x="537" y="318" type="line"/>
    </contour>
    <contour>
      <point x="67" y="339" type="line"/>
      <point x="67" y="293" type="line"/>
      <point x="537" y="293" type="line"/>
      <point x="537" y="339" type="line"/>
    </contour>
  </outline>
</glyph>
<glyph name="registered" format="2">
  <advance width="809"/>
  <unicode hex="00AE"/>
  <outline>
    <contour>
      <point x="62" y="330" type="curve" smooth="yes"/>
      <point x="62" y="125"/>
      <point x="198" y="-10"/>
      <point x="404" y="-10" type="curve" smooth="yes"/>
      <point x="611" y="-10"/>
      <point x="746" y="125"/>
      <point x="746" y="330" type="curve" smooth="yes"/>
      <point x="746" y="535"/>
      <point x="611" y="670"/>
      <point x="404" y="670" type="curve" smooth="yes"/>
      <point x="198" y="670"/>
      <point x="62" y="535"/>
    </contour>
    <contour>
      <point x="279" y="513" type="line"/>
      <point x="279" y="143" type="line"/>
      <point x="322" y="143" type="line"/>
      <point x="322" y="513" type="line"/>
    </contour>
    <contour>
      <point x="415" y="304" type="line"/>
      <point x="520" y="143" type="line"/>
      <point x="569" y="143" type="line"/>
      <point x="451" y="319" type="line"/>
    </contour>
    <contour>
      <point x="701" y="330" type="curve" smooth="yes"/>
      <point x="701" y="150"/>
      <point x="583" y="31"/>
      <point x="404" y="31" type="curve" smooth="yes"/>
      <point x="225" y="31"/>
      <point x="108" y="150"/>
      <point x="108" y="330" type="curve" smooth="yes"/>
      <point x="108" y="510"/>
      <point x="225" y="629"/>
      <point x="404" y="629" type="curve" smooth="yes"/>
      <point x="583" y="629"/>
      <point x="701" y="510"/>
    </contour>
    <contour>
      <point x="303" y="513" type="line"/>
      <point x="303" y="479" type="line"/>
      <point x="432" y="479" type="line" smooth="yes"/>
      <point x="489" y="479"/>
      <point x="520" y="454"/>
      <point x="520" y="403" type="curve" smooth="yes"/>
      <point x="520" y="352"/>
      <point x="489" y="327"/>
      <point x="432" y="326" type="curve" smooth="yes"/>
      <point x="303" y="326" type="line"/>
      <point x="303" y="293" type="line"/>
      <point x="432" y="293" type="line" smooth="yes"/>
      <point x="513" y="293"/>
      <point x="562" y="333"/>
      <point x="562" y="403" type="curve" smooth="yes"/>
      <point x="562" y="473"/>
      <point x="513" y="513"/>
      <point x="432" y="513" type="curve" smooth="yes"/>
    </contour>
  </outline>
</glyph>
<glyph name="degree" format="2">
  <advance width="418"/>
  <unicode hex="00B0"/>
  <outline>
    <contour>
      <point x="362" y="519" type="curve" smooth="yes"/>
      <point x="362" y="608"/>
      <point x="299" y="670"/>
      <point x="209" y="670" type="curve" smooth="yes"/>
      <point x="118" y="670"/>
      <point x="56" y="608"/>
      <point x="56" y="519" type="curve" smooth="yes"/>
      <point x="56" y="431"/>
      <point x="118" y="368"/>
      <point x="209" y="368" type="curve" smooth="yes"/>
      <point x="299" y="368"/>
      <point x="362" y="431"/>
    </contour>
    <contour>
      <point x="100" y="519" type="curve" smooth="yes"/>
      <point x="100" y="583"/>
      <point x="144" y="629"/>
      <point x="209" y="629" type="curve" smooth="yes"/>
      <point x="273" y="629"/>
      <point x="317" y="583"/>
      <point x="317" y="519" type="curve" smooth="yes"/>
      <point x="317" y="455"/>
      <point x="273" y="409"/>
      <point x="209" y="409" type="curve" smooth="yes"/>
      <point x="144" y="409"/>
      <point x="100" y="455"/>
    </contour>
  </outline>
</glyph>
<glyph name="plusminus" format="2">
  <advance width="604"/>
  <unicode hex="00B1"/>
  <outline>
    <contour>
      <point x="279" y="632" type="line"/>
      <point x="279" y="132" type="line"/>
      <point x="326" y="132" type="line"/>
      <point x="326" y="632" type="line"/>
    </contour>
    <contour>
      <point x="67" y="406" type="line"/>
      <point x="67" y="359" type="line"/>
      <point x="537" y="359" type="line"/>
      <point x="537" y="406" type="line"/>
    </contour>
    <contour>
      <point x="67" y="46" type="line"/>
      <point x="67" y="0" type="line"/>
      <point x="537" y="0" type="line"/>
      <point x="537" y="46" type="line"/>
    </contour>
  </outline>
</glyph>
<glyph name="onesuperior" format="2">
  <advance width="220"/>
  <unicode hex="00B9"/>
  <anchor x="124" y="527" name="_indexring"/>
  <outline>
    <contour>
      <point x="164" y="730" type="line"/>
      <point x="125" y="730" type="line"/>
      <point x="122" y="696"/>
      <point x="119" y="646"/>
      <point x="119" y="612" type="curve" smooth="yes"/>
      <point x="119" y="333" type="line"/>
      <point x="164" y="333" type="line"/>
      <point x="164" y="641" type="line"/>
    </contour>
    <contour>
      <point x="150" y="719" type="curve"/>
      <point x="125" y="730" type="line"/>
      <point x="104" y="695"/>
      <point x="46" y="662"/>
      <point x="10" y="652" type="curve"/>
      <point x="10" y="614" type="line"/>
      <point x="68" y="629"/>
      <point x="127" y="673"/>
    </contour>
  </outline>
</glyph>
<glyph name="ordmasculine" format="2">
  <advance width="357"/>
  <unicode hex="00BA"/>
  <outline>
    <contour>
      <point x="327" y="496" type="curve" smooth="yes"/>
      <point x="327" y="607"/>
      <point x="278" y="665"/>
      <point x="179" y="665" type="curve" smooth="yes"/>
      <point x="79" y="665"/>
      <point x="30" y="607"/>
      <point x="30" y="496" type="curve" smooth="yes"/>
      <point x="30" y="385"/>
      <point x="79" y="327"/>
      <point x="179" y="327" type="curve" smooth="yes"/>
      <point x="278" y="327"/>
      <point x="327" y="385"/>
    </contour>
    <contour>
      <point x="317" y="211" type="line"/>
      <point x="317" y="246" type="line"/>
      <point x="40" y="246" type="line"/>
      <point x="40" y="211" type="line"/>
    </contour>
    <contour>
      <point x="75" y="496" type="curve" smooth="yes"/>
      <point x="75" y="584"/>
      <point x="107" y="630"/>
      <point x="179" y="630" type="curve" smooth="yes"/>
      <point x="250" y="630"/>
      <point x="282" y="584"/>
      <point x="282" y="496" type="curve" smooth="yes"/>
      <point x="282" y="408"/>
      <point x="250" y="363"/>
      <point x="179" y="363" type="curve" smooth="yes"/>
      <point x="107" y="363"/>
      <point x="75" y="408"/>
    </contour>
  </outline>
</glyph>
<glyph name="Aring" format="2">
  <advance width="625"/>
  <unicode hex="00C5"/>
  <anchor x="594" y="0" name="bottomC"/>
  <anchor x="313" y="811" name="top"/>
  <anchor x="606" y="0" name="ogonek"/>
  <anchor x="313" y="0" name="bottom"/>
  <outline>
    <contour>
      <point x="213" y="726" type="curve" smooth="yes"/>
      <point x="213" y="668"/>
      <point x="253" y="630"/>
      <point x="313" y="630" type="curve" smooth="yes"/>
      <point x="373" y="630"/>
      <point x="413" y="668"/>
      <point x="413" y="726" type="curve" smooth="yes"/>
      <point x="413" y="782"/>
      <point x="373" y="821"/>
      <point x="313" y="821" type="curve" smooth="yes"/>
      <point x="253" y="821"/>
      <point x="213" y="782"/>
    </contour>
    <contour>
      <point x="377" y="726" type="curve" smooth="yes"/>
      <point x="377" y="688"/>
      <point x="350" y="663"/>
      <point x="313" y="663" type="curve" smooth="yes"/>
      <point x="275" y="663"/>
      <point x="249" y="688"/>
      <point x="249" y="726" type="curve" smooth="yes"/>
      <point x="249" y="763"/>
      <point x="275" y="788"/>
      <point x="313" y="788" type="curve" smooth="yes"/>
      <point x="350" y="788"/>
      <point x="377" y="763"/>
    </contour>
    <contour>
      <point x="72" y="0" type="line"/>
      <point x="288" y="543" type="line"/>
      <point x="312" y="611" type="line"/>
      <point x="313" y="611" type="line"/>
      <point x="337" y="541" type="line"/>
      <point x="553" y="0" type="line"/>
      <point x="606" y="0" type="line"/>
      <point x="342" y="660" type="line"/>
      <point x="283" y="660" type="line"/>
      <point x="19" y="0" type="line"/>
    </contour>
    <contour>
      <point x="487" y="207" type="line"/>
      <point x="487" y="253" type="line"/>
      <point x="136" y="253" type="line"/>
      <point x="136" y="207" type="line"/>
    </contour>
  </outline>
</glyph>
<glyph name="multiply" format="2">
  <advance width="604"/>
  <unicode hex="00D7"/>
  <outline>
    <contour>
      <point x="101" y="149" type="line"/>
      <point x="468" y="516" type="line"/>
      <point x="502" y="481" type="line"/>
      <point x="135" y="114" type="line"/>
    </contour>
    <contour>
      <point x="101" y="481" type="line"/>
      <point x="135" y="516" type="line"/>
      <point x="502" y="149" type="line"/>
      <point x="468" y="114" type="line"/>
    </contour>
  </outline>
</glyph>
<glyph name="Oslash" format="2">
  <advance width="732"/>
  <unicode hex="00D8"/>
  <anchor x="366" y="0" name="bottomC"/>
  <anchor x="366" y="660" name="top"/>
  <anchor x="443" y="0" name="ogonek"/>
  <anchor x="366" y="0" name="bottom"/>
  <outline>
    <contour>
      <point x="598" y="686" type="line"/>
      <point x="529" y="589" type="line"/>
      <point x="560" y="566" type="line"/>
      <point x="646" y="686" type="line"/>
    </contour>
    <contour>
      <point x="172" y="86" type="line"/>
      <point x="201" y="61" type="line"/>
      <point x="560" y="566" type="line"/>
      <point x="529" y="589" type="line"/>
    </contour>
    <contour>
      <point x="134" y="-34" type="line"/>
      <point x="201" y="61" type="line"/>
      <point x="172" y="86" type="line"/>
      <point x="87" y="-34" type="line"/>
    </contour>
    <component base="O"/>
  </outline>
</glyph>
<glyph name="Thorn" format="2">
  <advance width="599"/>
  <unicode hex="00DE"/>
  <anchor x="133" y="0" name="bottomC"/>
  <anchor x="129" y="660" name="top"/>
  <anchor x="154" y="0" name="ogonek"/>
  <anchor x="129" y="0" name="bottom"/>
  <outline>
    <contour>
      <point x="129" y="534" type="line"/>
      <point x="129" y="488" type="line"/>
      <point x="320" y="488" type="line" smooth="yes"/>
      <point x="440" y="488"/>
      <point x="499" y="438"/>
      <point x="499" y="338" type="curve" smooth="yes"/>
      <point x="499" y="239"/>
      <point x="440" y="189"/>
      <point x="320" y="189" type="curve" smooth="yes"/>
      <point x="129" y="189" type="line"/>
      <point x="129" y="143" type="line"/>
      <point x="312" y="143" type="line" smooth="yes"/>
      <point x="471" y="143"/>
      <point x="551" y="212"/>
      <point x="551" y="338" type="curve" smooth="yes"/>
      <point x="551" y="466"/>
      <point x="471" y="534"/>
      <point x="312" y="534" type="curve" smooth="yes"/>
    </contour>
    <contour>
      <point x="104" y="660" type="line"/>
      <point x="104" y="0" type="line"/>
      <point x="154" y="0" type="line"/>
      <point x="154" y="660" type="line"/>
    </contour>
  </outline>
</glyph>
<glyph name="eth" format="2">
  <advance width="600"/>
  <unicode hex="00F0"/>
  <anchor x="293" y="0" name="bottomC"/>
  <anchor x="293" y="730" name="top"/>
  <anchor x="406" y="19" name="ogonek"/>
  <anchor x="293" y="0" name="bottom"/>
  <outline>
    <contour>
      <point x="221" y="730" type="line"/>
      <point x="392" y="649"/>
      <point x="476" y="527"/>
      <point x="488" y="307" type="curve"/>
      <point x="482" y="247" type="line"/>
      <point x="479" y="121"/>
      <point x="411" y="34"/>
      <point x="295" y="34" type="curve" smooth="yes"/>
      <point x="180" y="34"/>
      <point x="108" y="111"/>
      <point x="108" y="238" type="curve" smooth="yes"/>
      <point x="108" y="363"/>
      <point x="180" y="441"/>
      <point x="294" y="441" type="curve" smooth="yes"/>
      <point x="415" y="441"/>
      <point x="482" y="356"/>
      <point x="482" y="247" type="curve"/>
      <point x="509" y="258" type="line"/>
      <point x="506" y="398"/>
      <point x="431" y="485"/>
      <point x="288" y="485" type="curve" smooth="yes"/>
      <point x="153" y="485"/>
      <point x="57" y="390"/>
      <point x="57" y="238" type="curve" smooth="yes"/>
      <point x="57" y="85"/>
      <point x="147" y="-10"/>
      <point x="293" y="-10" type="curve" smooth="yes"/>
      <point x="447" y="-10"/>
      <point x="530" y="100"/>
      <point x="530" y="286" type="curve" smooth="yes"/>
      <point x="530" y="519"/>
      <point x="437" y="654"/>
      <point x="294" y="730" type="curve"/>
    </contour>
    <contour>
      <point x="205" y="591" type="line"/>
      <point x="212" y="559" type="line"/>
      <point x="417" y="607" type="line"/>
      <point x="396" y="632" type="line"/>
    </contour>
    <contour>
      <point x="396" y="632" type="line"/>
      <point x="417" y="607" type="line"/>
      <point x="538" y="633" type="line"/>
      <point x="529" y="665" type="line"/>
    </contour>
  </outline>
</glyph>
<glyph name="oslash" format="2">
  <advance width="591"/>
  <unicode hex="00F8"/>
  <anchor x="295" y="0" name="bottomC"/>
  <anchor x="295" y="500" name="top"/>
  <anchor x="415" y="19" name="ogonek"/>
  <anchor x="295" y="0" name="bottom"/>
  <outline>
    <contour>
      <point x="57" y="250" type="curve" smooth="yes"/>
      <point x="57" y="166"/>
      <point x="81" y="99"/>
      <point x="125" y="54" type="curve"/>
      <point x="58" y="-34" type="line"/>
      <point x="104" y="-34" type="line"/>
      <point x="154" y="31" type="line"/>
      <point x="191" y="4"/>
      <point x="239" y="-10"/>
      <point x="295" y="-10" type="curve" smooth="yes"/>
      <point x="443" y="-10"/>
      <point x="533" y="88"/>
      <point x="533" y="250" type="curve" smooth="yes"/>
      <point x="533" y="331"/>
      <point x="511" y="396"/>
      <point x="470" y="441" type="curve"/>
      <point x="536" y="526" type="line"/>
      <point x="491" y="526" type="line"/>
      <point x="443" y="465" type="line"/>
      <point x="404" y="494"/>
      <point x="355" y="510"/>
      <point x="295" y="510" type="curve" smooth="yes"/>
      <point x="147" y="510"/>
      <point x="57" y="412"/>
    </contour>
    <contour>
      <point x="107" y="250" type="curve" smooth="yes"/>
      <point x="107" y="385"/>
      <point x="178" y="467"/>
      <point x="295" y="467" type="curve" smooth="yes"/>
      <point x="343" y="467"/>
      <point x="383" y="453"/>
      <point x="415" y="427" type="curve"/>
      <point x="187" y="135" type="line"/>
      <point x="157" y="93" type="line"/>
      <point x="156" y="93" type="line"/>
      <point x="124" y="130"/>
      <point x="107" y="183"/>
    </contour>
    <contour>
      <point x="182" y="68" type="curve"/>
      <point x="412" y="366" type="line"/>
      <point x="438" y="401" type="line"/>
      <point x="439" y="401" type="line"/>
      <point x="468" y="363"/>
      <point x="483" y="313"/>
      <point x="483" y="250" type="curve" smooth="yes"/>
      <point x="483" y="115"/>
      <point x="412" y="33"/>
      <point x="295" y="33" type="curve" smooth="yes"/>
      <point x="250" y="33"/>
      <point x="211" y="45"/>
    </contour>
  </outline>
</glyph>
<glyph name="thorn" format="2">
  <advance width="609"/>
  <unicode hex="00FE"/>
  <anchor x="314" y="0" name="bottomC"/>
  <anchor x="114" y="730" name="top"/>
  <anchor x="436" y="19" name="ogonek"/>
  <anchor x="114" y="-210" name="bottom"/>
  <outline>
    <contour>
      <point x="89" y="730" type="line"/>
      <point x="89" y="-210" type="line"/>
      <point x="139" y="-210" type="line"/>
      <point x="139" y="730" type="line"/>
    </contour>
    <contour>
      <point x="119" y="304" type="curve"/>
      <point x="139" y="255" type="line"/>
      <point x="139" y="385"/>
      <point x="209" y="466"/>
      <point x="317" y="466" type="curve" smooth="yes"/>
      <point x="433" y="466"/>
      <point x="502" y="384"/>
      <point x="502" y="250" type="curve" smooth="yes"/>
      <point x="502" y="116"/>
      <point x="433" y="34"/>
      <point x="317" y="34" type="curve" smooth="yes"/>
      <point x="210" y="34"/>
      <point x="139" y="114"/>
      <point x="139" y="245" type="curve"/>
      <point x="120" y="194" type="line"/>
      <point x="120" y="73"/>
      <point x="200" y="-10"/>
      <point x="323" y="-10" type="curve" smooth="yes"/>
      <point x="464" y="-10"/>
      <point x="552" y="87"/>
      <point x="552" y="250" type="curve" smooth="yes"/>
      <point x="552" y="413"/>
      <point x="464" y="510"/>
      <point x="323" y="510" type="curve" smooth="yes"/>
      <point x="200" y="510"/>
      <point x="119" y="426"/>
    </contour>
  </outline>
</glyph>
<glyph name="Dcroat" format="2">
  <advance width="715"/>
  <unicode hex="0110"/>
  <anchor x="302" y="0" name="bottomC"/>
  <anchor x="330" y="660" name="top"/>
  <anchor x="324" y="0" name="ogonek"/>
  <anchor x="373" y="330" name="center"/>
  <anchor x="330" y="0" name="bottom"/>
  <outline>
    <contour>
      <point x="16" y="353" type="line"/>
      <point x="16" y="314" type="line"/>
      <point x="368" y="314" type="line"/>
      <point x="368" y="353" type="line"/>
    </contour>
    <component base="D" xOffset="12"/>
  </outline>
</glyph>
<glyph name="dcroat" format="2">
  <advance width="608"/>
  <unicode hex="0111"/>
  <anchor x="313" y="265" name="center"/>
  <anchor x="296" y="0" name="bottomC"/>
  <anchor x="495" y="730" name="top"/>
  <anchor x="296" y="0" name="bottom"/>
  <anchor x="613" y="730" name="topright"/>
  <anchor x="393" y="19" name="ogonek"/>
  <outline>
    <contour>
      <point x="301" y="617" type="line"/>
      <point x="301" y="579" type="line"/>
      <point x="606" y="579" type="line"/>
      <point x="606" y="617" type="line"/>
    </contour>
    <component base="d"/>
  </outline>
</glyph>
<glyph name="uni0123" format="2">
  <advance width="515"/>
  <unicode hex="0123"/>
  <anchor x="260" y="500" name="top"/>
  <anchor x="400" y="-191" name="ogonek"/>
  <anchor x="260" y="-210" name="bottom"/>
  <anchor x="260" y="-210" name="bottomC"/>
  <outline>
    <contour>
      <point x="305" y="778" type="line"/>
      <point x="240" y="587" type="line"/>
      <point x="295" y="587" type="line"/>
      <point x="343" y="778" type="line"/>
    </contour>
    <component base="g"/>
  </outline>
</glyph>
<glyph name="Imacron" format="2">
  <advance width="258"/>
  <unicode hex="012A"/>
  <anchor x="129" y="660" name="top"/>
  <anchor x="154" y="0" name="ogonek"/>
  <anchor x="129" y="0" name="bottom"/>
  <anchor x="133" y="0" name="bottomC"/>
  <outline>
    <contour>
      <point x="20" y="802" type="line"/>
      <point x="20" y="760" type="line"/>
      <point x="237" y="760" type="line"/>
      <point x="237" y="802" type="line"/>
    </contour>
    <component base="I"/>
  </outline>
</glyph>
<glyph name="iogonek" format="2">
  <advance width="229"/>
  <unicode hex="012F"/>
  <anchor x="118" y="0" name="bottomC"/>
  <anchor x="114" y="671" name="top"/>
  <anchor x="139" y="0" name="ogonek"/>
  <anchor x="114" y="0" name="bottom"/>
  <outline>
    <contour>
      <point x="109" y="13" type="line"/>
      <point x="39" y="-31"/>
      <point x="5" y="-67"/>
      <point x="5" y="-118" type="curve" smooth="yes"/>
      <point x="5" y="-175"/>
      <point x="48" y="-209"/>
      <point x="107" y="-209" type="curve" smooth="yes"/>
      <point x="140" y="-209"/>
      <point x="162" y="-203"/>
      <point x="182" y="-187" type="curve"/>
      <point x="169" y="-155" type="line"/>
      <point x="152" y="-168"/>
      <point x="134" y="-173"/>
      <point x="110" y="-173" type="curve" smooth="yes"/>
      <point x="74" y="-173"/>
      <point x="47" y="-150"/>
      <point x="47" y="-114" type="curve" smooth="yes"/>
      <point x="47" y="-74"/>
      <point x="71" y="-47"/>
      <point x="139" y="0" type="curve"/>
    </contour>
    <component base="i"/>
  </outline>
</glyph>
<glyph name="idotless" format="2">
  <advance width="229"/>
  <unicode hex="0131"/>
  <anchor x="118" y="0" name="bottomC"/>
  <anchor x="114" y="500" name="top"/>
  <anchor x="139" y="0" name="ogonek"/>
  <anchor x="114" y="0" name="bottom"/>
  <outline>
    <contour>
      <point x="89" y="500" type="line"/>
      <point x="89" y="0" type="line"/>
      <point x="139" y="0" type="line"/>
      <point x="139" y="500" type="line"/>
    </contour>
  </outline>
</glyph>
<glyph name="oe" format="2">
  <advance width="988"/>
  <unicode hex="0153"/>
  <anchor x="705" y="0" name="bottomC"/>
  <anchor x="509" y="500" name="top"/>
  <anchor x="839" y="19" name="ogonek"/>
  <anchor x="509" y="0" name="bottom"/>
  <outline>
    <contour>
      <point x="57" y="250" type="curve" smooth="yes"/>
      <point x="57" y="88"/>
      <point x="147" y="-10"/>
      <point x="297" y="-10" type="curve" smooth="yes"/>
      <point x="443" y="-10"/>
      <point x="531" y="88"/>
      <point x="531" y="250" type="curve" smooth="yes"/>
      <point x="531" y="412"/>
      <point x="443" y="510"/>
      <point x="297" y="510" type="curve" smooth="yes"/>
      <point x="147" y="510"/>
      <point x="57" y="412"/>
    </contour>
    <contour>
      <point x="484" y="250" type="curve" smooth="yes"/>
      <point x="484" y="115"/>
      <point x="414" y="34"/>
      <point x="297" y="34" type="curve" smooth="yes"/>
      <point x="180" y="34"/>
      <point x="108" y="115"/>
      <point x="108" y="250" type="curve" smooth="yes"/>
      <point x="108" y="385"/>
      <point x="180" y="466"/>
      <point x="297" y="466" type="curve" smooth="yes"/>
      <point x="414" y="466"/>
      <point x="484" y="385"/>
    </contour>
    <contour>
      <point x="926" y="104" type="curve"/>
      <point x="884" y="126" type="line"/>
      <point x="859" y="67"/>
      <point x="799" y="34"/>
      <point x="721" y="34" type="curve" smooth="yes"/>
      <point x="604" y="34"/>
      <point x="534" y="115"/>
      <point x="534" y="250" type="curve" smooth="yes"/>
      <point x="534" y="385"/>
      <point x="600" y="466"/>
      <point x="715" y="466" type="curve" smooth="yes"/>
      <point x="825" y="466"/>
      <point x="885" y="385"/>
      <point x="887" y="254" type="curve"/>
      <point x="909" y="274" type="line"/>
      <point x="516" y="274" type="line"/>
      <point x="516" y="229" type="line"/>
      <point x="931" y="229" type="line"/>
      <point x="932" y="237"/>
      <point x="933" y="249"/>
      <point x="933" y="262" type="curve" smooth="yes"/>
      <point x="933" y="408"/>
      <point x="854" y="510"/>
      <point x="715" y="510" type="curve" smooth="yes"/>
      <point x="573" y="510"/>
      <point x="490" y="412"/>
      <point x="490" y="250" type="curve" smooth="yes"/>
      <point x="490" y="88"/>
      <point x="576" y="-10"/>
      <point x="721" y="-10" type="curve" smooth="yes"/>
      <point x="821" y="-10"/>
      <point x="889" y="33"/>
    </contour>
  </outline>
</glyph>
<glyph name="florin" format="2">
  <advance width="446"/>
  <unicode hex="0192"/>
  <outline>
    <contour>
      <point x="226" y="588" type="curve" smooth="yes"/>
      <point x="137" y="23" type="line" smooth="yes"/>
      <point x="126" y="-48"/>
      <point x="95" y="-83"/>
      <point x="42" y="-83" type="curve" smooth="yes"/>
      <point x="15" y="-83"/>
      <point x="-5" y="-77"/>
      <point x="-24" y="-64" type="curve"/>
      <point x="-33" y="-107" type="line"/>
      <point x="-6" y="-123"/>
      <point x="12" y="-128"/>
      <point x="46" y="-128" type="curve" smooth="yes"/>
      <point x="124" y="-128"/>
      <point x="172" y="-78"/>
      <point x="188" y="19" type="curve" smooth="yes"/>
      <point x="277" y="584" type="line" smooth="yes"/>
      <point x="287" y="656"/>
      <point x="319" y="690"/>
      <point x="374" y="690" type="curve" smooth="yes"/>
      <point x="398" y="690"/>
      <point x="417" y="684"/>
      <point x="437" y="671" type="curve"/>
      <point x="444" y="716" type="line"/>
      <point x="418" y="731"/>
      <point x="400" y="735"/>
      <point x="366" y="735" type="curve" smooth="yes"/>
      <point x="287" y="735"/>
      <point x="242" y="687"/>
    </contour>
    <contour>
      <point x="41" y="400" type="line"/>
      <point x="41" y="357" type="line"/>
      <point x="405" y="357" type="line"/>
      <point x="405" y="400" type="line"/>
    </contour>
  </outline>
</glyph>
<glyph name="jdotless" format="2">
  <advance width="229"/>
  <unicode hex="0237"/>
  <anchor x="25" y="-210" name="bottomC"/>
  <anchor x="114" y="500" name="top"/>
  <anchor x="53" y="-204" name="ogonek"/>
  <anchor x="25" y="-210" name="bottom"/>
  <outline>
    <contour>
      <point x="89" y="500" type="line"/>
      <point x="89" y="-53" type="line" smooth="yes"/>
      <point x="89" y="-129"/>
      <point x="52" y="-167"/>
      <point x="-4" y="-167" type="curve" smooth="yes"/>
      <point x="-34" y="-167"/>
      <point x="-61" y="-156"/>
      <point x="-78" y="-140" type="curve"/>
      <point x="-90" y="-187" type="line"/>
      <point x="-70" y="-204"/>
      <point x="-38" y="-215"/>
      <point x="-3" y="-215" type="curve" smooth="yes"/>
      <point x="70" y="-215"/>
      <point x="139" y="-167"/>
      <point x="139" y="-57" type="curve" smooth="yes"/>
      <point x="139" y="500" type="line"/>
    </contour>
  </outline>
</glyph>
<glyph name="caron" format="2">
  <advance width="523"/>
  <unicode hex="02C7"/>
  <anchor x="250" y="500" name="_top"/>
  <outline>
    <contour>
      <point x="343" y="738" type="line"/>
      <point x="250" y="617" type="line"/>
      <point x="157" y="738" type="line"/>
      <point x="111" y="738" type="line"/>
      <point x="222" y="583" type="line"/>
      <point x="278" y="583" type="line"/>
      <point x="389" y="738" type="line"/>
    </contour>
  </outline>
</glyph>
<glyph name="ogonek" format="2">
  <advance width="523"/>
  <unicode hex="02DB"/>
  <anchor x="343" y="12" name="_ogonek"/>
  <outline>
    <contour>
      <point x="308" y="26" type="line"/>
      <point x="208" y="-16"/>
      <point x="164" y="-56"/>
      <point x="164" y="-120" type="curve" smooth="yes"/>
      <point x="164" y="-175"/>
      <point x="208" y="-209"/>
      <point x="269" y="-209" type="curve" smooth="yes"/>
      <point x="303" y="-209"/>
      <point x="330" y="-201"/>
      <point x="348" y="-190" type="curve"/>
      <point x="336" y="-156" type="line"/>
      <point x="321" y="-167"/>
      <point x="300" y="-172"/>
      <point x="274" y="-172" type="curve" smooth="yes"/>
      <point x="235" y="-172"/>
      <point x="206" y="-152"/>
      <point x="206" y="-114" type="curve" smooth="yes"/>
      <point x="206" y="-71"/>
      <point x="239" y="-33"/>
      <point x="343" y="12" type="curve"/>
    </contour>
  </outline>
</glyph>
<glyph name="tilde" format="2">
  <advance width="523"/>
  <unicode hex="02DC"/>
  <anchor x="251" y="500" name="_top"/>
  <outline>
    <contour>
      <point x="381" y="701" type="line"/>
      <point x="372" y="657"/>
      <point x="359" y="632"/>
      <point x="321" y="632" type="curve" smooth="yes"/>
      <point x="268" y="632"/>
      <point x="256" y="700"/>
      <point x="181" y="700" type="curve" smooth="yes"/>
      <point x="119" y="700"/>
      <point x="90" y="663"/>
      <point x="81" y="590" type="curve"/>
      <point x="121" y="590" type="line"/>
      <point x="130" y="633"/>
      <point x="142" y="659"/>
      <point x="180" y="659" type="curve" smooth="yes"/>
      <point x="235" y="659"/>
      <point x="245" y="591"/>
      <point x="322" y="591" type="curve" smooth="yes"/>
      <point x="382" y="591"/>
      <point x="412" y="628"/>
      <point x="421" y="701" type="curve"/>
    </contour>
  </outline>
</glyph>
<glyph name="hungarumlaut" format="2">
  <advance width="523"/>
  <unicode hex="02DD"/>
  <anchor x="235" y="500" name="_top"/>
  <outline>
    <contour>
      <point x="356" y="741" type="line"/>
      <point x="276" y="583" type="line"/>
      <point x="317" y="583" type="line"/>
      <point x="411" y="741" type="line"/>
    </contour>
    <contour>
      <point x="201" y="741" type="line"/>
      <point x="121" y="583" type="line"/>
      <point x="162" y="583" type="line"/>
      <point x="256" y="741" type="line"/>
    </contour>
  </outline>
</glyph>
<glyph name="commaaccent" format="2">
  <unicode hex="0326"/>
  <anchor x="0" y="0" name="_bottom"/>
  <outline>
    <contour>
      <point x="-34" y="-72" type="line"/>
      <point x="-81" y="-233" type="line"/>
      <point x="-41" y="-233" type="line"/>
      <point x="19" y="-72" type="line"/>
    </contour>
  </outline>
</glyph>
<glyph name="Germandbls" format="2">
  <advance width="667"/>
  <unicode hex="1E9E"/>
  <anchor x="429" y="0" name="bottomC"/>
  <anchor x="358" y="658" name="top"/>
  <anchor x="471" y="0" name="ogonek"/>
  <anchor x="358" y="0" name="bottom"/>
  <outline>
    <contour>
      <point x="154" y="0" type="line"/>
      <point x="154" y="442" type="line" smooth="yes"/>
      <point x="154" y="543"/>
      <point x="223" y="614"/>
      <point x="321" y="614" type="curve" smooth="yes"/>
      <point x="527" y="614" type="line"/>
      <point x="320" y="358" type="line"/>
      <point x="353" y="333" type="line"/>
      <point x="586" y="613" type="line"/>
      <point x="586" y="660" type="line"/>
      <point x="321" y="660" type="line" smooth="yes"/>
      <point x="191" y="660"/>
      <point x="104" y="573"/>
      <point x="104" y="443" type="curve" smooth="yes"/>
      <point x="104" y="0" type="line"/>
    </contour>
    <contour>
      <point x="625" y="183" type="curve" smooth="yes"/>
      <point x="625" y="299"/>
      <point x="550" y="358"/>
      <point x="421" y="358" type="curve" smooth="yes"/>
      <point x="320" y="358" type="line"/>
      <point x="320" y="315" type="line"/>
      <point x="404" y="315" type="line" smooth="yes"/>
      <point x="515" y="315"/>
      <point x="573" y="270"/>
      <point x="573" y="183" type="curve" smooth="yes"/>
      <point x="573" y="98"/>
      <point x="512" y="40"/>
      <point x="423" y="40" type="curve" smooth="yes"/>
      <point x="361" y="40"/>
      <point x="312" y="63"/>
      <point x="289" y="94" type="curve"/>
      <point x="266" y="57" type="line"/>
      <point x="288" y="24"/>
      <point x="349" y="-5"/>
      <point x="427" y="-5" type="curve" smooth="yes"/>
      <point x="544" y="-5"/>
      <point x="625" y="70"/>
    </contour>
  </outline>
</glyph>
<glyph name="endash" format="2">
  <advance width="638"/>
  <unicode hex="2013"/>
  <outline>
    <contour>
      <point x="75" y="289" type="line"/>
      <point x="75" y="242" type="line"/>
      <point x="563" y="242" type="line"/>
      <point x="563" y="289" type="line"/>
    </contour>
  </outline>
</glyph>
<glyph name="emdash" format="2">
  <advance width="979"/>
  <unicode hex="2014"/>
  <outline>
    <contour>
      <point x="75" y="289" type="line"/>
      <point x="75" y="242" type="line"/>
      <point x="903" y="242" type="line"/>
      <point x="903" y="289" type="line"/>
    </contour>
  </outline>
</glyph>
<glyph name="dagger" format="2">
  <advance width="511"/>
  <unicode hex="2020"/>
  <outline>
    <contour>
      <point x="231" y="660" type="line"/>
      <point x="231" y="-100" type="line"/>
      <point x="281" y="-100" type="line"/>
      <point x="281" y="660" type="line"/>
    </contour>
    <contour>
      <point x="44" y="450" type="line"/>
      <point x="44" y="408" type="line"/>
      <point x="467" y="408" type="line"/>
      <point x="467" y="450" type="line"/>
    </contour>
  </outline>
</glyph>
<glyph name="guilsinglleft" format="2">
  <advance width="290"/>
  <unicode hex="2039"/>
  <outline>
    <contour>
      <point x="183" y="461" type="line"/>
      <point x="49" y="265" type="line"/>
      <point x="183" y="69" type="line"/>
      <point x="239" y="69" type="line"/>
      <point x="103" y="265" type="line"/>
      <point x="239" y="461" type="line"/>
    </contour>
  </outline>
</glyph>
<glyph name="fraction" format="2">
  <advance width="226"/>
  <unicode hex="2044"/>
  <outline>
    <contour>
      <point x="-97" y="0" type="line"/>
      <point x="374" y="660" type="line"/>
      <point x="323" y="660" type="line"/>
      <point x="-148" y="0" type="line"/>
    </contour>
  </outline>
</glyph>
<glyph name="zerosuperior" format="2">
  <advance width="378"/>
  <unicode hex="2070"/>
  <outline>
    <contour>
      <point x="342" y="531" type="curve" smooth="yes"/>
      <point x="342" y="664"/>
      <point x="289" y="735"/>
      <point x="189" y="735" type="curve" smooth="yes"/>
      <point x="89" y="735"/>
      <point x="36" y="664"/>
      <point x="36" y="531" type="curve" smooth="yes"/>
      <point x="36" y="398"/>
      <point x="89" y="327"/>
      <point x="189" y="327" type="curve" smooth="yes"/>
      <point x="289" y="327"/>
      <point x="342" y="398"/>
    </contour>
    <contour>
      <point x="81" y="531" type="curve" smooth="yes"/>
      <point x="81" y="640"/>
      <point x="118" y="698"/>
      <point x="189" y="698" type="curve" smooth="yes"/>
      <point x="261" y="698"/>
      <point x="298" y="640"/>
      <point x="298" y="531" type="curve" smooth="yes"/>
      <point x="298" y="422"/>
      <point x="261" y="364"/>
      <point x="189" y="364" type="curve" smooth="yes"/>
      <point x="118" y="364"/>
      <point x="81" y="422"/>
    </contour>
  </outline>
</glyph>
<glyph name="foursuperior" format="2">
  <advance width="344"/>
  <unicode hex="2074"/>
  <anchor x="191" y="527" name="_indexring"/>
  <outline>
    <contour>
      <point x="249" y="475" type="line"/>
      <point x="249" y="730" type="line"/>
      <point x="199" y="730" type="line"/>
      <point x="12" y="468" type="line"/>
      <point x="12" y="442" type="line"/>
      <point x="210" y="442" type="line"/>
      <point x="210" y="333" type="line"/>
      <point x="249" y="333" type="line"/>
      <point x="249" y="442" type="line"/>
      <point x="325" y="442" type="line"/>
      <point x="325" y="475" type="line"/>
    </contour>
    <contour>
      <point x="178" y="642" type="line" smooth="yes"/>
      <point x="189" y="657"/>
      <point x="200" y="677"/>
      <point x="210" y="692" type="curve"/>
      <point x="212" y="692" type="line"/>
      <point x="211" y="672"/>
      <point x="210" y="651"/>
      <point x="210" y="632" type="curve" smooth="yes"/>
      <point x="210" y="475" type="line"/>
      <point x="56" y="475" type="line"/>
    </contour>
  </outline>
</glyph>
<glyph name="sixsuperior" format="2">
  <advance width="358"/>
  <unicode hex="2076"/>
  <anchor x="191" y="530" name="_indexring"/>
  <outline>
    <contour>
      <point x="326" y="453" type="curve" smooth="yes"/>
      <point x="326" y="529"/>
      <point x="276" y="578"/>
      <point x="194" y="578" type="curve" smooth="yes"/>
      <point x="139" y="578"/>
      <point x="97" y="550"/>
      <point x="80" y="499" type="curve"/>
      <point x="79" y="499" type="line"/>
      <point x="78" y="508"/>
      <point x="78" y="518"/>
      <point x="78" y="529" type="curve" smooth="yes"/>
      <point x="78" y="615"/>
      <point x="112" y="698"/>
      <point x="195" y="698" type="curve" smooth="yes"/>
      <point x="242" y="698"/>
      <point x="269" y="673"/>
      <point x="281" y="638" type="curve"/>
      <point x="318" y="656" type="line"/>
      <point x="298" y="708"/>
      <point x="259" y="735"/>
      <point x="196" y="735" type="curve" smooth="yes"/>
      <point x="105" y="735"/>
      <point x="36" y="667"/>
      <point x="36" y="531" type="curve" smooth="yes"/>
      <point x="36" y="399"/>
      <point x="90" y="327"/>
      <point x="189" y="327" type="curve" smooth="yes"/>
      <point x="274" y="327"/>
      <point x="326" y="375"/>
    </contour>
    <contour>
      <point x="93" y="453" type="curve" smooth="yes"/>
      <point x="93" y="497"/>
      <point x="131" y="542"/>
      <point x="190" y="542" type="curve" smooth="yes"/>
      <point x="247" y="542"/>
      <point x="283" y="507"/>
      <point x="283" y="453" type="curve" smooth="yes"/>
      <point x="283" y="397"/>
      <point x="248" y="363"/>
      <point x="189" y="363" type="curve" smooth="yes"/>
      <point x="133" y="363"/>
      <point x="93" y="401"/>
    </contour>
  </outline>
</glyph>
<glyph name="eightsuperior" format="2">
  <advance width="366"/>
  <unicode hex="2078"/>
  <anchor x="183" y="530" name="_indexring"/>
  <outline>
    <contour>
      <point x="51" y="631" type="curve" smooth="yes"/>
      <point x="51" y="586"/>
      <point x="79" y="553"/>
      <point x="124" y="540" type="curve"/>
      <point x="124" y="539" type="line"/>
      <point x="70" y="525"/>
      <point x="35" y="488"/>
      <point x="35" y="438" type="curve" smooth="yes"/>
      <point x="35" y="370"/>
      <point x="94" y="327"/>
      <point x="183" y="327" type="curve" smooth="yes"/>
      <point x="272" y="327"/>
      <point x="331" y="370"/>
      <point x="331" y="438" type="curve" smooth="yes"/>
      <point x="331" y="489"/>
      <point x="296" y="525"/>
      <point x="242" y="539" type="curve"/>
      <point x="242" y="540" type="line"/>
      <point x="288" y="553"/>
      <point x="314" y="587"/>
      <point x="314" y="631" type="curve" smooth="yes"/>
      <point x="314" y="694"/>
      <point x="263" y="734"/>
      <point x="183" y="734" type="curve" smooth="yes"/>
      <point x="102" y="734"/>
      <point x="51" y="694"/>
    </contour>
    <contour>
      <point x="270" y="629" type="curve" smooth="yes"/>
      <point x="270" y="586"/>
      <point x="236" y="557"/>
      <point x="183" y="557" type="curve" smooth="yes"/>
      <point x="130" y="557"/>
      <point x="96" y="586"/>
      <point x="96" y="629" type="curve" smooth="yes"/>
      <point x="96" y="672"/>
      <point x="130" y="700"/>
      <point x="183" y="700" type="curve" smooth="yes"/>
      <point x="236" y="700"/>
      <point x="270" y="672"/>
    </contour>
    <contour>
      <point x="80" y="441" type="curve" smooth="yes"/>
      <point x="80" y="489"/>
      <point x="122" y="521"/>
      <point x="183" y="521" type="curve" smooth="yes"/>
      <point x="245" y="521"/>
      <point x="286" y="489"/>
      <point x="286" y="441" type="curve" smooth="yes"/>
      <point x="286" y="394"/>
      <point x="245" y="362"/>
      <point x="183" y="362" type="curve" smooth="yes"/>
      <point x="121" y="362"/>
      <point x="80" y="394"/>
    </contour>
  </outline>
</glyph>
<glyph name="ninesuperior" format="2">
  <advance width="366"/>
  <unicode hex="2079"/>
  <anchor x="176" y="530" name="_indexring"/>
  <outline>
    <contour>
      <point x="36" y="609" type="curve" smooth="yes"/>
      <point x="36" y="533"/>
      <point x="87" y="484"/>
      <point x="173" y="484" type="curve" smooth="yes"/>
      <point x="223" y="484"/>
      <point x="279" y="519"/>
      <point x="284" y="568" type="curve"/>
      <point x="285" y="568" type="line"/>
      <point x="287" y="554"/>
      <point x="289" y="538"/>
      <point x="289" y="523" type="curve" smooth="yes"/>
      <point x="289" y="445"/>
      <point x="259" y="363"/>
      <point x="176" y="363" type="curve" smooth="yes"/>
      <point x="117" y="363"/>
      <point x="88" y="390"/>
      <point x="79" y="431" type="curve"/>
      <point x="37" y="413" type="line"/>
      <point x="56" y="358"/>
      <point x="104" y="327"/>
      <point x="175" y="327" type="curve" smooth="yes"/>
      <point x="270" y="327"/>
      <point x="330" y="398"/>
      <point x="330" y="530" type="curve" smooth="yes"/>
      <point x="330" y="659"/>
      <point x="274" y="735"/>
      <point x="176" y="735" type="curve" smooth="yes"/>
      <point x="90" y="735"/>
      <point x="36" y="686"/>
    </contour>
    <contour>
      <point x="273" y="608" type="curve" smooth="yes"/>
      <point x="273" y="562"/>
      <point x="233" y="520"/>
      <point x="176" y="520" type="curve" smooth="yes"/>
      <point x="117" y="520"/>
      <point x="80" y="555"/>
      <point x="80" y="609" type="curve" smooth="yes"/>
      <point x="80" y="663"/>
      <point x="117" y="698"/>
      <point x="177" y="698" type="curve" smooth="yes"/>
      <point x="233" y="698"/>
      <point x="273" y="660"/>
    </contour>
  </outline>
</glyph>
<glyph name="equalsuperior" format="2">
  <advance width="386"/>
  <unicode hex="207C"/>
  <outline>
    <contour>
      <point x="328" y="455" type="line"/>
      <point x="328" y="489" type="line"/>
      <point x="58" y="489" type="line"/>
      <point x="58" y="455" type="line"/>
    </contour>
    <contour>
      <point x="328" y="573" type="line"/>
      <point x="328" y="608" type="line"/>
      <point x="58" y="608" type="line"/>
      <point x="58" y="573" type="line"/>
    </contour>
  </outline>
</glyph>
<glyph name="Euro" format="2">
  <advance width="676"/>
  <unicode hex="20AC"/>
  <outline>
    <contour>
      <point x="49" y="272" type="line"/>
      <point x="49" y="230" type="line"/>
      <point x="397" y="230" type="line"/>
      <point x="412" y="272" type="line"/>
    </contour>
    <contour>
      <point x="49" y="422" type="line"/>
      <point x="49" y="380" type="line"/>
      <point x="437" y="380" type="line"/>
      <point x="452" y="422" type="line"/>
    </contour>
    <component base="euro.part"/>
  </outline>
</glyph>
<glyph name="uni20BA" format="2">
  <advance width="614"/>
  <unicode hex="20BA"/>
  <outline>
    <contour>
      <point x="524" y="263" type="line"/>
      <point x="524" y="119"/>
      <point x="450" y="43"/>
      <point x="316" y="43" type="curve" smooth="yes"/>
      <point x="204" y="43" type="line"/>
      <point x="204" y="0" type="line"/>
      <point x="324" y="0" type="line" smooth="yes"/>
      <point x="480" y="0"/>
      <point x="568" y="90"/>
      <point x="572" y="263" type="curve"/>
    </contour>
    <contour>
      <point x="177" y="660" type="line"/>
      <point x="177" y="0" type="line"/>
      <point x="225" y="0" type="line"/>
      <point x="225" y="660" type="line"/>
    </contour>
    <contour>
      <point x="54" y="273" type="line"/>
      <point x="54" y="235" type="line"/>
      <point x="443" y="348" type="line"/>
      <point x="443" y="386" type="line"/>
    </contour>
    <contour>
      <point x="54" y="413" type="line"/>
      <point x="54" y="375" type="line"/>
      <point x="443" y="489" type="line"/>
      <point x="443" y="527" type="line"/>
    </contour>
  </outline>
</glyph>
<glyph name="trademark" format="2">
  <advance width="799"/>
  <unicode hex="2122"/>
  <outline>
    <contour>
      <point x="157" y="660" type="line"/>
      <point x="157" y="330" type="line"/>
      <point x="202" y="330" type="line"/>
      <point x="202" y="660" type="line"/>
    </contour>
    <contour>
      <point x="43" y="660" type="line"/>
      <point x="43" y="625" type="line"/>
      <point x="314" y="625" type="line"/>
      <point x="314" y="660" type="line"/>
    </contour>
    <contour>
      <point x="660" y="660" type="line"/>
      <point x="560" y="422" type="line"/>
      <point x="546" y="381" type="line"/>
      <point x="545" y="381" type="line"/>
      <point x="529" y="422" type="line"/>
      <point x="431" y="660" type="line"/>
      <point x="376" y="660" type="line"/>
      <point x="376" y="330" type="line"/>
      <point x="420" y="330" type="line"/>
      <point x="420" y="540" type="line"/>
      <point x="415" y="602" type="line"/>
      <point x="416" y="602" type="line"/>
      <point x="425" y="577" type="line"/>
      <point x="528" y="330" type="line"/>
      <point x="562" y="330" type="line"/>
      <point x="665" y="577" type="line"/>
      <point x="673" y="602" type="line"/>
      <point x="674" y="602" type="line"/>
      <point x="669" y="540" type="line"/>
      <point x="669" y="330" type="line"/>
      <point x="713" y="330" type="line"/>
      <point x="713" y="660" type="line"/>
    </contour>
  </outline>
</glyph>
<glyph name="uni2126" format="2">
  <advance width="751"/>
  <unicode hex="2126"/>
  <outline>
    <contour>
      <point x="72" y="335" type="curve" smooth="yes"/>
      <point x="72" y="171"/>
      <point x="159" y="62"/>
      <point x="298" y="17" type="curve"/>
      <point x="313" y="43" type="line"/>
      <point x="198" y="79"/>
      <point x="122" y="178"/>
      <point x="122" y="335" type="curve" smooth="yes"/>
      <point x="122" y="513"/>
      <point x="222" y="624"/>
      <point x="376" y="624" type="curve" smooth="yes"/>
      <point x="529" y="624"/>
      <point x="629" y="513"/>
      <point x="629" y="335" type="curve" smooth="yes"/>
      <point x="629" y="178"/>
      <point x="553" y="79"/>
      <point x="438" y="43" type="curve"/>
      <point x="453" y="17" type="line"/>
      <point x="592" y="62"/>
      <point x="679" y="171"/>
      <point x="679" y="335" type="curve" smooth="yes"/>
      <point x="679" y="539"/>
      <point x="561" y="670"/>
      <point x="376" y="670" type="curve" smooth="yes"/>
      <point x="190" y="670"/>
      <point x="72" y="539"/>
    </contour>
    <contour>
      <point x="66" y="0" type="line"/>
      <point x="313" y="0" type="line"/>
      <point x="313" y="43" type="line"/>
      <point x="66" y="43" type="line"/>
    </contour>
    <contour>
      <point x="438" y="43" type="line"/>
      <point x="438" y="0" type="line"/>
      <point x="685" y="0" type="line"/>
      <point x="685" y="43" type="line"/>
    </contour>
  </outline>
</glyph>
<glyph name="nearrow" format="2">
  <advance width="750"/>
  <unicode hex="2197"/>
  <outline>
    <contour>
      <point x="463" y="381" type="line" smooth="yes"/>
      <point x="516" y="434"/>
      <point x="543" y="465"/>
      <point x="581" y="508" type="curve"/>
      <point x="591" y="545" type="line"/>
      <point x="554" y="535" type="line"/>
      <point x="521" y="506"/>
      <point x="470" y="460"/>
      <point x="428" y="417" type="curve" smooth="yes"/>
      <point x="137" y="126" type="line"/>
      <point x="172" y="90" type="line"/>
    </contour>
    <contour>
      <point x="608" y="110" type="line"/>
      <point x="588" y="269"/>
      <point x="593" y="407"/>
      <point x="618" y="568" type="curve"/>
      <point x="614" y="572" type="line"/>
      <point x="454" y="547"/>
      <point x="314" y="542"/>
      <point x="157" y="562" type="curve"/>
      <point x="152" y="511" type="line"/>
      <point x="312" y="494"/>
      <point x="497" y="504"/>
      <point x="599" y="539" type="curve"/>
      <point x="585" y="552" type="line"/>
      <point x="550" y="450"/>
      <point x="540" y="266"/>
      <point x="557" y="106" type="curve"/>
    </contour>
  </outline>
</glyph>
<glyph name="infinity" format="2">
  <advance width="877"/>
  <unicode hex="221E"/>
  <outline>
    <contour>
      <point x="421" y="315" type="curve" smooth="yes"/>
      <point x="290" y="156"/>
      <point x="278" y="143"/>
      <point x="222" y="143" type="curve" smooth="yes"/>
      <point x="166" y="143"/>
      <point x="115" y="201"/>
      <point x="115" y="296" type="curve" smooth="yes"/>
      <point x="115" y="391"/>
      <point x="166" y="449"/>
      <point x="222" y="449" type="curve" smooth="yes"/>
      <point x="279" y="449"/>
      <point x="301" y="425"/>
      <point x="423" y="280" type="curve" smooth="yes"/>
      <point x="544" y="136"/>
      <point x="576" y="105"/>
      <point x="655" y="105" type="curve" smooth="yes"/>
      <point x="740" y="105"/>
      <point x="811" y="176"/>
      <point x="811" y="301" type="curve" smooth="yes"/>
      <point x="811" y="426"/>
      <point x="740" y="498"/>
      <point x="655" y="498" type="curve" smooth="yes"/>
      <point x="585" y="498"/>
      <point x="563" y="486"/>
    </contour>
    <contour>
      <point x="66" y="301" type="curve" smooth="yes"/>
      <point x="66" y="176"/>
      <point x="137" y="105"/>
      <point x="222" y="105" type="curve" smooth="yes"/>
      <point x="297" y="105"/>
      <point x="315" y="118"/>
      <point x="451" y="285" type="curve" smooth="yes"/>
      <point x="580" y="441"/>
      <point x="600" y="459"/>
      <point x="655" y="459" type="curve" smooth="yes"/>
      <point x="711" y="459"/>
      <point x="762" y="401"/>
      <point x="762" y="306" type="curve" smooth="yes"/>
      <point x="762" y="212"/>
      <point x="711" y="152"/>
      <point x="654" y="154" type="curve" smooth="yes"/>
      <point x="599" y="155"/>
      <point x="569" y="182"/>
      <point x="451" y="326" type="curve" smooth="yes"/>
      <point x="335" y="469"/>
      <point x="301" y="498"/>
      <point x="222" y="498" type="curve" smooth="yes"/>
      <point x="137" y="498"/>
      <point x="66" y="426"/>
    </contour>
  </outline>
</glyph>
<glyph name="integral" format="2">
  <advance width="425"/>
  <unicode hex="222B"/>
  <outline>
    <contour>
      <point x="189" y="616" type="curve" smooth="yes"/>
      <point x="189" y="18" type="line" smooth="yes"/>
      <point x="189" y="-53"/>
      <point x="151" y="-83"/>
      <point x="95" y="-83" type="curve" smooth="yes"/>
      <point x="67" y="-83"/>
      <point x="47" y="-75"/>
      <point x="28" y="-62" type="curve"/>
      <point x="19" y="-106" type="line"/>
      <point x="40" y="-119"/>
      <point x="60" y="-128"/>
      <point x="101" y="-128" type="curve" smooth="yes"/>
      <point x="188" y="-128"/>
      <point x="239" y="-76"/>
      <point x="239" y="14" type="curve" smooth="yes"/>
      <point x="239" y="612" type="line" smooth="yes"/>
      <point x="239" y="682"/>
      <point x="277" y="713"/>
      <point x="332" y="713" type="curve" smooth="yes"/>
      <point x="360" y="713"/>
      <point x="381" y="705"/>
      <point x="398" y="693" type="curve"/>
      <point x="407" y="737" type="line"/>
      <point x="388" y="749"/>
      <point x="369" y="758"/>
      <point x="328" y="758" type="curve" smooth="yes"/>
      <point x="241" y="758"/>
      <point x="189" y="705"/>
    </contour>
  </outline>
</glyph>
<glyph name="blackSmallSquare" format="2">
  <advance width="600"/>
  <unicode hex="25AA"/>
  <outline>
    <contour>
      <point x="71" y="21" type="line"/>
      <point x="529" y="21" type="line"/>
      <point x="529" y="479" type="line"/>
      <point x="71" y="479" type="line"/>
    </contour>
  </outline>
</glyph>
<glyph name="whiteSmallSquare" format="2">
  <advance width="600"/>
  <unicode hex="25AB"/>
  <outline>
    <contour>
      <point x="529" y="21" type="line"/>
      <point x="529" y="479" type="line"/>
      <point x="71" y="479" type="line"/>
      <point x="71" y="21" type="line"/>
    </contour>
    <contour>
      <point x="121" y="435" type="line"/>
      <point x="479" y="435" type="line"/>
      <point x="479" y="65" type="line"/>
      <point x="121" y="65" type="line"/>
    </contour>
  </outline>
</glyph>
<glyph name="lozenge" format="2">
  <advance width="534"/>
  <unicode hex="25CA"/>
  <outline>
    <contour>
      <point x="246" y="660" type="line"/>
      <point x="434" y="330" type="line"/>
      <point x="490" y="330" type="line"/>
      <point x="297" y="660" type="line"/>
    </contour>
    <contour>
      <point x="45" y="330" type="line"/>
      <point x="236" y="0" type="line"/>
      <point x="288" y="0" type="line"/>
      <point x="102" y="330" type="line"/>
    </contour>
    <contour>
      <point x="434" y="330" type="line"/>
      <point x="246" y="0" type="line"/>
      <point x="297" y="0" type="line"/>
      <point x="490" y="330" type="line"/>
    </contour>
    <contour>
      <point x="236" y="660" type="line"/>
      <point x="45" y="330" type="line"/>
      <point x="102" y="330" type="line"/>
      <point x="288" y="660" type="line"/>
    </contour>
  </outline>
</glyph>
<glyph name="uniF8FF" format="2">
  <advance width="1130"/>
  <unicode hex="F8FF"/>
  <outline>
    <contour>
      <point x="1018" y="129" type="line"/>
      <point x="983" y="161" type="line"/>
      <point x="1049" y="164" type="line"/>
      <point x="1011" y="198" type="line"/>
      <point x="1072" y="208" type="line"/>
      <point x="1030" y="237" type="line"/>
      <point x="1083" y="257" type="line"/>
      <point x="1036" y="281" type="line"/>
      <point x="1090" y="301" type="line"/>
      <point x="1041" y="331" type="line"/>
      <point x="1097" y="356" type="line"/>
      <point x="1039" y="375" type="line"/>
      <point x="1093" y="408" type="line"/>
      <point x="1037" y="421" type="line"/>
      <point x="1087" y="460" type="line"/>
      <point x="1016" y="460" type="line"/>
      <point x="1064" y="509" type="line"/>
      <point x="994" y="509" type="line"/>
      <point x="1030" y="549" type="line"/>
      <point x="966" y="545" type="line"/>
      <point x="992" y="592" type="line"/>
      <point x="929" y="576" type="line"/>
      <point x="951" y="636" type="line"/>
      <point x="887" y="602" type="line"/>
      <point x="895" y="667" type="line"/>
      <point x="838" y="621" type="line"/>
      <point x="828" y="685" type="line"/>
      <point x="785" y="632" type="line"/>
      <point x="765" y="690" type="line"/>
      <point x="727" y="641" type="line"/>
      <point x="700" y="700" type="line"/>
      <point x="669" y="645" type="line"/>
      <point x="637" y="690" type="line"/>
      <point x="613" y="640" type="line"/>
      <point x="581" y="686" type="line"/>
      <point x="564" y="634" type="line"/>
      <point x="526" y="677" type="line"/>
      <point x="513" y="624" type="line"/>
      <point x="477" y="666" type="line"/>
      <point x="462" y="609" type="line"/>
      <point x="418" y="646" type="line"/>
      <point x="412" y="591" type="line"/>
      <point x="370" y="629" type="line"/>
      <point x="363" y="570" type="line"/>
      <point x="321" y="605" type="line"/>
      <point x="318" y="547" type="line"/>
      <point x="275" y="575" type="line"/>
      <point x="275" y="519" type="line"/>
      <point x="232" y="551" type="line"/>
      <point x="232" y="494" type="line"/>
      <point x="191" y="517" type="line"/>
      <point x="198" y="459" type="line"/>
      <point x="158" y="477" type="line"/>
      <point x="164" y="418" type="line"/>
      <point x="804" y="477" type="line"/>
      <point x="926" y="123" type="line"/>
    </contour>
    <contour>
      <point x="328" y="0" type="line" smooth="yes"/>
      <point x="348" y="0"/>
      <point x="358" y="10"/>
      <point x="358" y="29" type="curve" smooth="yes"/>
      <point x="358" y="181" type="line"/>
      <point x="294" y="181" type="line"/>
      <point x="294" y="48" type="line"/>
      <point x="284" y="48" type="line" smooth="yes"/>
      <point x="263" y="48"/>
      <point x="253" y="39"/>
      <point x="253" y="23" type="curve" smooth="yes"/>
      <point x="253" y="7"/>
      <point x="263" y="0"/>
      <point x="284" y="0" type="curve" smooth="yes"/>
    </contour>
    <contour>
      <point x="480" y="0" type="line" smooth="yes"/>
      <point x="499" y="0"/>
      <point x="509" y="10"/>
      <point x="509" y="29" type="curve" smooth="yes"/>
      <point x="509" y="181" type="line"/>
      <point x="446" y="181" type="line"/>
      <point x="446" y="48" type="line"/>
      <point x="434" y="48" type="line" smooth="yes"/>
      <point x="415" y="48"/>
      <point x="404" y="39"/>
      <point x="404" y="23" type="curve" smooth="yes"/>
      <point x="404" y="7"/>
      <point x="415" y="0"/>
      <point x="434" y="0" type="curve" smooth="yes"/>
    </contour>
    <contour>
      <point x="754" y="75" type="line" smooth="yes"/>
      <point x="844" y="75"/>
      <point x="922" y="96"/>
      <point x="978" y="140" type="curve"/>
      <point x="932" y="163"/>
      <point x="907" y="248"/>
      <point x="907" y="337" type="curve" smooth="yes"/>
      <point x="907" y="526"/>
      <point x="887" y="530"/>
      <point x="731" y="530" type="curve" smooth="yes"/>
      <point x="495" y="530"/>
      <point x="320" y="494"/>
      <point x="164" y="418" type="curve"/>
      <point x="164" y="349"/>
      <point x="101" y="258"/>
      <point x="46" y="232" type="curve"/>
      <point x="44" y="186" type="line"/>
      <point x="94" y="124"/>
      <point x="209" y="84"/>
      <point x="317" y="84" type="curve"/>
      <point x="327" y="75" type="line"/>
    </contour>
    <contour>
      <point x="770" y="0" type="line" smooth="yes"/>
      <point x="789" y="0"/>
      <point x="799" y="10"/>
      <point x="799" y="29" type="curve" smooth="yes"/>
      <point x="799" y="80"/>
      <point x="799" y="130"/>
      <point x="799" y="181" type="curve"/>
      <point x="735" y="181" type="line"/>
      <point x="735" y="48" type="line"/>
      <point x="724" y="48" type="line" smooth="yes"/>
      <point x="705" y="48"/>
      <point x="695" y="39"/>
      <point x="695" y="23" type="curve" smooth="yes"/>
      <point x="695" y="7"/>
      <point x="705" y="0"/>
      <point x="724" y="0" type="curve" smooth="yes"/>
    </contour>
    <contour>
      <point x="900" y="0" type="line" smooth="yes"/>
      <point x="919" y="0"/>
      <point x="929" y="10"/>
      <point x="929" y="29" type="curve" smooth="yes"/>
      <point x="929" y="80"/>
      <point x="929" y="130"/>
      <point x="929" y="181" type="curve"/>
      <point x="865" y="181" type="line"/>
      <point x="865" y="48" type="line"/>
      <point x="854" y="48" type="line" smooth="yes"/>
      <point x="835" y="48"/>
      <point x="825" y="39"/>
      <point x="825" y="23" type="curve" smooth="yes"/>
      <point x="825" y="7"/>
      <point x="835" y="0"/>
      <point x="854" y="0" type="curve" smooth="yes"/>
    </contour>
    <contour>
      <point x="85" y="207" type="curve" smooth="yes"/>
      <point x="85" y="224"/>
      <point x="71" y="238"/>
      <point x="54" y="238" type="curve" smooth="yes"/>
      <point x="37" y="238"/>
      <point x="23" y="224"/>
      <point x="23" y="207" type="curve" smooth="yes"/>
      <point x="23" y="190"/>
      <point x="37" y="176"/>
      <point x="54" y="176" type="curve" smooth="yes"/>
      <point x="71" y="176"/>
      <point x="85" y="190"/>
    </contour>
    <contour>
      <point x="325" y="269" type="line"/>
      <point x="359" y="280"/>
      <point x="371" y="304"/>
      <point x="360" y="334" type="curve"/>
      <point x="350" y="361"/>
      <point x="317" y="366"/>
      <point x="290" y="341" type="curve"/>
      <point x="282" y="357" type="line"/>
      <point x="314" y="388"/>
      <point x="366" y="380"/>
      <point x="381" y="342" type="curve"/>
      <point x="396" y="303"/>
      <point x="376" y="265"/>
      <point x="334" y="256" type="curve"/>
    </contour>
    <contour>
      <point x="160" y="301" type="curve"/>
      <point x="178" y="301" type="line"/>
      <point x="178" y="282"/>
      <point x="190" y="271"/>
      <point x="212" y="271" type="curve"/>
      <point x="232" y="271"/>
      <point x="245" y="283"/>
      <point x="245" y="301" type="curve"/>
      <point x="263" y="301" type="line"/>
      <point x="262" y="268"/>
      <point x="242" y="248"/>
      <point x="212" y="248" type="curve"/>
      <point x="181" y="248"/>
      <point x="160" y="269"/>
    </contour>
  </outline>
</glyph>
<glyph name="Adieresis.titl.001" format="2">
  <advance width="625"/>
  <outline>
    <contour>
      <point x="72" y="0" type="line"/>
      <point x="288" y="543" type="line"/>
      <point x="312" y="611" type="line"/>
      <point x="313" y="611" type="line"/>
      <point x="337" y="541" type="line"/>
      <point x="553" y="0" type="line"/>
      <point x="606" y="0" type="line"/>
      <point x="342" y="660" type="line"/>
      <point x="283" y="660" type="line"/>
      <point x="19" y="0" type="line"/>
    </contour>
    <contour>
      <point x="487" y="207" type="line"/>
      <point x="487" y="253" type="line"/>
      <point x="136" y="253" type="line"/>
      <point x="136" y="207" type="line"/>
    </contour>
    <contour>
      <point x="211" y="586" type="curve"/>
      <point x="232" y="636" type="line"/>
      <point x="228" y="652"/>
      <point x="213" y="662"/>
      <point x="195" y="662" type="curve" smooth="yes"/>
      <point x="172" y="662"/>
      <point x="156" y="646"/>
      <point x="156" y="623" type="curve" smooth="yes"/>
      <point x="156" y="599"/>
      <point x="172" y="583"/>
      <point x="195" y="583" type="curve" smooth="yes"/>
      <point x="200" y="583"/>
      <point x="206" y="584"/>
    </contour>
    <contour>
      <point x="469" y="623" type="curve" smooth="yes"/>
      <point x="469" y="646"/>
      <point x="453" y="662"/>
      <point x="430" y="662" type="curve" smooth="yes"/>
      <point x="412" y="662"/>
      <point x="397" y="652"/>
      <point x="393" y="636" type="curve"/>
      <point x="414" y="586" type="line"/>
      <point x="419" y="584"/>
      <point x="424" y="583"/>
      <point x="430" y="583" type="curve" smooth="yes"/>
      <point x="453" y="583"/>
      <point x="469" y="599"/>
    </contour>
  </outline>
</glyph>
<glyph name="Adieresis.titl" format="2">
  <advance width="625"/>
  <outline>
    <contour>
      <point x="480" y="623" type="curve" smooth="yes"/>
      <point x="480" y="646"/>
      <point x="464" y="662"/>
      <point x="441" y="662" type="curve" smooth="yes"/>
      <point x="417" y="662"/>
      <point x="401" y="646"/>
      <point x="401" y="623" type="curve" smooth="yes"/>
      <point x="401" y="599"/>
      <point x="417" y="583"/>
      <point x="441" y="583" type="curve" smooth="yes"/>
      <point x="464" y="583"/>
      <point x="480" y="599"/>
    </contour>
    <contour>
      <point x="224" y="623" type="curve" smooth="yes"/>
      <point x="224" y="646"/>
      <point x="208" y="662"/>
      <point x="184" y="662" type="curve" smooth="yes"/>
      <point x="161" y="662"/>
      <point x="145" y="646"/>
      <point x="145" y="623" type="curve" smooth="yes"/>
      <point x="145" y="599"/>
      <point x="161" y="583"/>
      <point x="184" y="583" type="curve" smooth="yes"/>
      <point x="208" y="583"/>
      <point x="224" y="599"/>
    </contour>
    <contour>
      <point x="72" y="0" type="line"/>
      <point x="288" y="543" type="line"/>
      <point x="312" y="611" type="line"/>
      <point x="313" y="611" type="line"/>
      <point x="337" y="541" type="line"/>
      <point x="553" y="0" type="line"/>
      <point x="606" y="0" type="line"/>
      <point x="342" y="660" type="line"/>
      <point x="283" y="660" type="line"/>
      <point x="19" y="0" type="line"/>
    </contour>
    <contour>
      <point x="487" y="207" type="line"/>
      <point x="487" y="253" type="line"/>
      <point x="136" y="253" type="line"/>
      <point x="136" y="207" type="line"/>
    </contour>
  </outline>
</glyph>
<glyph name="Aogonek_j" format="2">
  <advance width="854"/>
  <anchor x="313" y="660" name="top"/>
  <anchor x="606" y="0" name="ogonek"/>
  <anchor x="313" y="0" name="bottom"/>
  <anchor x="594" y="0" name="bottomC"/>
  <outline>
    <contour>
      <point x="765" y="-71" type="curve" smooth="yes"/>
      <point x="765" y="500" type="line"/>
      <point x="715" y="500" type="line"/>
      <point x="715" y="-67" type="line" smooth="yes"/>
      <point x="715" y="-139"/>
      <point x="698" y="-167"/>
      <point x="657" y="-167" type="curve" smooth="yes"/>
      <point x="633" y="-167"/>
      <point x="620" y="-164"/>
      <point x="607" y="-154" type="curve"/>
      <point x="596" y="-201" type="line"/>
      <point x="613" y="-211"/>
      <point x="632" y="-215"/>
      <point x="658" y="-215" type="curve" smooth="yes"/>
      <point x="719" y="-215"/>
      <point x="765" y="-177"/>
    </contour>
    <contour>
      <point x="565" y="-193" type="curve"/>
      <point x="559" y="-157" type="line"/>
      <point x="547" y="-168"/>
      <point x="534" y="-172"/>
      <point x="516" y="-172" type="curve" smooth="yes"/>
      <point x="478" y="-172"/>
      <point x="453" y="-153"/>
      <point x="453" y="-119" type="curve" smooth="yes"/>
      <point x="453" y="-68"/>
      <point x="505" y="-34"/>
      <point x="606" y="0" type="curve"/>
      <point x="577" y="18" type="line"/>
      <point x="478" y="-12"/>
      <point x="412" y="-56"/>
      <point x="412" y="-126" type="curve" smooth="yes"/>
      <point x="412" y="-178"/>
      <point x="450" y="-209"/>
      <point x="505" y="-209" type="curve" smooth="yes"/>
      <point x="533" y="-209"/>
      <point x="549" y="-204"/>
    </contour>
    <contour>
      <point x="761" y="639" type="curve" smooth="yes"/>
      <point x="761" y="651"/>
      <point x="751" y="661"/>
      <point x="740" y="661" type="curve" smooth="yes"/>
      <point x="728" y="661"/>
      <point x="718" y="651"/>
      <point x="718" y="639" type="curve" smooth="yes"/>
      <point x="718" y="628"/>
      <point x="728" y="618"/>
      <point x="740" y="618" type="curve" smooth="yes"/>
      <point x="751" y="618"/>
      <point x="761" y="628"/>
    </contour>
    <component base="A"/>
  </outline>
</glyph>
<glyph name="E.swsh.001" format="2">
  <advance width="719"/>
  <anchor x="329" y="0" name="bottomC"/>
  <anchor x="361" y="660" name="top"/>
  <anchor x="506" y="0" name="ogonek"/>
  <anchor x="329" y="0" name="bottom"/>
  <outline>
    <contour>
      <point x="577" y="269" type="line"/>
      <point x="627" y="263"/>
      <point x="659" y="225"/>
      <point x="659" y="159" type="curve" smooth="yes"/>
      <point x="659" y="78"/>
      <point x="607" y="46"/>
      <point x="505" y="46" type="curve" smooth="yes"/>
      <point x="321" y="46" type="line"/>
      <point x="321" y="0" type="line"/>
      <point x="517" y="0" type="line" smooth="yes"/>
      <point x="637" y="0"/>
      <point x="709" y="53"/>
      <point x="709" y="158" type="curve" smooth="yes"/>
      <point x="709" y="246"/>
      <point x="662" y="300"/>
      <point x="599" y="308" type="curve"/>
    </contour>
    <contour>
      <point x="104" y="0" type="line"/>
      <point x="154" y="0" type="line"/>
      <point x="154" y="660" type="line"/>
      <point x="104" y="660" type="line"/>
    </contour>
    <contour>
      <point x="129" y="308" type="line"/>
      <point x="405" y="308" type="line"/>
      <point x="405" y="354" type="line"/>
      <point x="129" y="354" type="line"/>
    </contour>
    <contour>
      <point x="129" y="614" type="line"/>
      <point x="590" y="614" type="line"/>
      <point x="590" y="660" type="line"/>
      <point x="129" y="660" type="line"/>
    </contour>
    <contour>
      <point x="129" y="0" type="line"/>
      <point x="447" y="0" type="line"/>
      <point x="447" y="46" type="line"/>
      <point x="129" y="46" type="line"/>
    </contour>
  </outline>
</glyph>
<glyph name="G.ss04" format="2">
  <advance width="692"/>
  <anchor x="356" y="0" name="bottomC"/>
  <anchor x="359" y="660" name="top"/>
  <anchor x="443" y="0" name="ogonek"/>
  <anchor x="380" y="0" name="bottom"/>
  <outline>
    <contour>
      <point x="638" y="282" type="curve" smooth="yes"/>
      <point x="638" y="323" type="line"/>
      <point x="358" y="323" type="line"/>
      <point x="358" y="276" type="line"/>
      <point x="616" y="276" type="line"/>
      <point x="590" y="302" type="line"/>
      <point x="590" y="275" type="line" smooth="yes"/>
      <point x="590" y="174"/>
      <point x="544" y="36"/>
      <point x="365" y="36" type="curve" smooth="yes"/>
      <point x="208" y="36"/>
      <point x="115" y="148"/>
      <point x="115" y="330" type="curve" smooth="yes"/>
      <point x="115" y="512"/>
      <point x="214" y="624"/>
      <point x="363" y="624" type="curve" smooth="yes"/>
      <point x="473" y="624"/>
      <point x="547" y="577"/>
      <point x="578" y="484" type="curve"/>
      <point x="624" y="508" type="line"/>
      <point x="581" y="617"/>
      <point x="498" y="670"/>
      <point x="363" y="670" type="curve" smooth="yes"/>
      <point x="183" y="670"/>
      <point x="62" y="539"/>
      <point x="62" y="330" type="curve" smooth="yes"/>
      <point x="62" y="121"/>
      <point x="179" y="-10"/>
      <point x="361" y="-10" type="curve" smooth="yes"/>
      <point x="557" y="-10"/>
      <point x="638" y="121"/>
    </contour>
  </outline>
</glyph>
<glyph name="IJ.ss05" format="2">
  <advance width="603"/>
  <outline>
    <contour>
      <point x="104" y="660" type="line"/>
      <point x="104" y="275" type="line"/>
      <point x="154" y="275" type="line"/>
      <point x="154" y="660" type="line"/>
    </contour>
    <contour>
      <point x="457" y="660" type="line"/>
      <point x="457" y="229" type="line" smooth="yes"/>
      <point x="457" y="107"/>
      <point x="400" y="36"/>
      <point x="298" y="36" type="curve" smooth="yes"/>
      <point x="196" y="36"/>
      <point x="144" y="84"/>
      <point x="152" y="178" type="curve"/>
      <point x="104" y="178" type="line"/>
      <point x="96" y="56"/>
      <point x="161" y="-10"/>
      <point x="298" y="-10" type="curve" smooth="yes"/>
      <point x="429" y="-10"/>
      <point x="507" y="77"/>
      <point x="507" y="218" type="curve" smooth="yes"/>
      <point x="507" y="660" type="line"/>
    </contour>
  </outline>
</glyph>
<glyph name="M.swsh.001" format="2">
  <advance width="1039"/>
  <anchor x="646" y="0" name="bottomC"/>
  <anchor x="628" y="660" name="top"/>
  <anchor x="935" y="0" name="ogonek"/>
  <anchor x="628" y="0" name="bottom"/>
  <outline>
    <contour>
      <point x="173" y="364" type="line"/>
      <point x="106" y="377"/>
      <point x="60" y="421"/>
      <point x="60" y="490" type="curve" smooth="yes"/>
      <point x="60" y="579"/>
      <point x="118" y="619"/>
      <point x="214" y="619" type="curve" smooth="yes"/>
      <point x="381" y="619" type="line"/>
      <point x="381" y="660" type="line"/>
      <point x="202" y="660" type="line" smooth="yes"/>
      <point x="82" y="660"/>
      <point x="10" y="600"/>
      <point x="10" y="491" type="curve" smooth="yes"/>
      <point x="10" y="398"/>
      <point x="72" y="339"/>
      <point x="152" y="325" type="curve"/>
    </contour>
    <component base="M" xOffset="217"/>
  </outline>
</glyph>
<glyph name="Odieresis.titl.001" format="2">
  <advance width="732"/>
  <outline>
    <contour>
      <point x="62" y="330" type="curve" smooth="yes"/>
      <point x="62" y="121"/>
      <point x="179" y="-10"/>
      <point x="366" y="-10" type="curve" smooth="yes"/>
      <point x="553" y="-10"/>
      <point x="670" y="121"/>
      <point x="670" y="330" type="curve" smooth="yes"/>
      <point x="670" y="539"/>
      <point x="553" y="670"/>
      <point x="366" y="670" type="curve" smooth="yes"/>
      <point x="179" y="670"/>
      <point x="62" y="539"/>
    </contour>
    <contour>
      <point x="618" y="330" type="curve" smooth="yes"/>
      <point x="618" y="148"/>
      <point x="521" y="36"/>
      <point x="366" y="36" type="curve" smooth="yes"/>
      <point x="211" y="36"/>
      <point x="115" y="148"/>
      <point x="115" y="330" type="curve" smooth="yes"/>
      <point x="115" y="512"/>
      <point x="211" y="624"/>
      <point x="366" y="624" type="curve" smooth="yes"/>
      <point x="521" y="624"/>
      <point x="618" y="512"/>
    </contour>
    <contour>
      <point x="595" y="631" type="curve" smooth="yes"/>
      <point x="595" y="654"/>
      <point x="579" y="670"/>
      <point x="556" y="670" type="curve" smooth="yes"/>
      <point x="538" y="670"/>
      <point x="525" y="661"/>
      <point x="519" y="647" type="curve"/>
      <point x="543" y="633"/>
      <point x="559" y="619"/>
      <point x="578" y="599" type="curve"/>
      <point x="589" y="605"/>
      <point x="595" y="616"/>
    </contour>
    <contour>
      <point x="176" y="670" type="curve" smooth="yes"/>
      <point x="153" y="670"/>
      <point x="137" y="654"/>
      <point x="137" y="631" type="curve" smooth="yes"/>
      <point x="137" y="616"/>
      <point x="143" y="605"/>
      <point x="154" y="599" type="curve"/>
      <point x="172" y="618"/>
      <point x="188" y="632"/>
      <point x="213" y="647" type="curve"/>
      <point x="207" y="661"/>
      <point x="194" y="670"/>
    </contour>
  </outline>
</glyph>
<glyph name="Osuperior" format="2">
  <advance width="450"/>
  <outline>
    <contour>
      <point x="36" y="531" type="curve" smooth="yes"/>
      <point x="36" y="405"/>
      <point x="108" y="327"/>
      <point x="225" y="327" type="curve" smooth="yes"/>
      <point x="342" y="327"/>
      <point x="414" y="405"/>
      <point x="414" y="531" type="curve" smooth="yes"/>
      <point x="414" y="657"/>
      <point x="342" y="735"/>
      <point x="225" y="735" type="curve" smooth="yes"/>
      <point x="108" y="735"/>
      <point x="36" y="657"/>
    </contour>
    <contour>
      <point x="369" y="531" type="curve" smooth="yes"/>
      <point x="369" y="427"/>
      <point x="313" y="364"/>
      <point x="225" y="364" type="curve" smooth="yes"/>
      <point x="137" y="364"/>
      <point x="81" y="427"/>
      <point x="81" y="531" type="curve" smooth="yes"/>
      <point x="81" y="635"/>
      <point x="137" y="698"/>
      <point x="225" y="698" type="curve" smooth="yes"/>
      <point x="313" y="698"/>
      <point x="369" y="635"/>
    </contour>
  </outline>
</glyph>
<glyph name="R.ss03" format="2">
  <advance width="635"/>
  <anchor x="561" y="0" name="bottomC"/>
  <anchor x="308" y="660" name="top"/>
  <anchor x="575" y="0" name="ogonek"/>
  <anchor x="356" y="0" name="bottom"/>
  <outline>
    <contour>
      <point x="154" y="0" type="line"/>
      <point x="154" y="286" type="line"/>
      <point x="339" y="286" type="line" smooth="yes"/>
      <point x="444" y="286"/>
      <point x="494" y="239"/>
      <point x="497" y="156" type="curve" smooth="yes"/>
      <point x="501" y="50"/>
      <point x="512" y="19"/>
      <point x="521" y="0" type="curve"/>
      <point x="575" y="0" type="line"/>
      <point x="575" y="3" type="line"/>
      <point x="564" y="19"/>
      <point x="552" y="34"/>
      <point x="546" y="162" type="curve" smooth="yes"/>
      <point x="544" y="239"/>
      <point x="504" y="290"/>
      <point x="422" y="303" type="curve"/>
      <point x="422" y="304" type="line"/>
      <point x="511" y="322"/>
      <point x="565" y="382"/>
      <point x="565" y="473" type="curve" smooth="yes"/>
      <point x="565" y="589"/>
      <point x="480" y="660"/>
      <point x="349" y="660" type="curve" smooth="yes"/>
      <point x="104" y="660" type="line"/>
      <point x="104" y="0" type="line"/>
    </contour>
    <contour>
      <point x="154" y="614" type="line"/>
      <point x="348" y="614" type="line" smooth="yes"/>
      <point x="455" y="614"/>
      <point x="513" y="564"/>
      <point x="513" y="473" type="curve" smooth="yes"/>
      <point x="513" y="382"/>
      <point x="455" y="333"/>
      <point x="348" y="333" type="curve" smooth="yes"/>
      <point x="154" y="333" type="line"/>
    </contour>
  </outline>
</glyph>
<glyph name="R.swsh" format="2">
  <advance width="856"/>
  <anchor x="795" y="0" name="bottomC"/>
  <anchor x="525" y="660" name="top"/>
  <anchor x="817" y="0" name="ogonek"/>
  <anchor x="573" y="0" name="bottom"/>
  <outline>
    <contour>
      <point x="565" y="286" type="line" smooth="yes"/>
      <point x="697" y="286"/>
      <point x="782" y="357"/>
      <point x="782" y="473" type="curve" smooth="yes"/>
      <point x="782" y="589"/>
      <point x="697" y="660"/>
      <point x="565" y="660" type="curve" smooth="yes"/>
      <point x="345" y="660" type="line"/>
      <point x="345" y="614" type="line"/>
      <point x="565" y="614" type="line" smooth="yes"/>
      <point x="671" y="614"/>
      <point x="730" y="564"/>
      <point x="730" y="473" type="curve" smooth="yes"/>
      <point x="730" y="382"/>
      <point x="671" y="333"/>
      <point x="565" y="333" type="curve" smooth="yes"/>
      <point x="345" y="333" type="line"/>
      <point x="345" y="286" type="line"/>
    </contour>
    <contour>
      <point x="370" y="57" type="curve" smooth="yes"/>
      <point x="370" y="202" type="line"/>
      <point x="320" y="202" type="line"/>
      <point x="320" y="68" type="line" smooth="yes"/>
      <point x="320" y="-14"/>
      <point x="274" y="-67"/>
      <point x="196" y="-67" type="curve" smooth="yes"/>
      <point x="120" y="-67"/>
      <point x="80" y="-28"/>
      <point x="74" y="49" type="curve"/>
      <point x="37" y="23" type="line"/>
      <point x="43" y="-58"/>
      <point x="97" y="-110"/>
      <point x="196" y="-110" type="curve" smooth="yes"/>
      <point x="309" y="-110"/>
      <point x="370" y="-38"/>
    </contour>
    <contour>
      <point x="370" y="176" type="line"/>
      <point x="370" y="660" type="line"/>
      <point x="320" y="660" type="line"/>
      <point x="320" y="176" type="line"/>
    </contour>
    <contour>
      <point x="817" y="0" type="line"/>
      <point x="604" y="324" type="line"/>
      <point x="562" y="296" type="line"/>
      <point x="758" y="0" type="line"/>
    </contour>
    <component base="__swash_topleft" xOffset="-56"/>
  </outline>
</glyph>
<glyph name="S.swsh" format="2">
  <advance width="619"/>
  <anchor x="298" y="-100" name="bottomC"/>
  <anchor x="309" y="660" name="top"/>
  <anchor x="402" y="-100" name="ogonek"/>
  <anchor x="329" y="-100" name="bottom"/>
  <outline>
    <contour>
      <point x="568" y="93" type="curve" smooth="yes"/>
      <point x="568" y="193"/>
      <point x="510" y="246"/>
      <point x="340" y="296" type="curve" smooth="yes"/>
      <point x="186" y="341"/>
      <point x="136" y="386"/>
      <point x="136" y="465" type="curve" smooth="yes"/>
      <point x="136" y="565"/>
      <point x="204" y="624"/>
      <point x="319" y="624" type="curve" smooth="yes"/>
      <point x="446" y="624"/>
      <point x="504" y="571"/>
      <point x="501" y="459" type="curve"/>
      <point x="550" y="478" type="line"/>
      <point x="547" y="604"/>
      <point x="466" y="670"/>
      <point x="318" y="670" type="curve" smooth="yes"/>
      <point x="175" y="670"/>
      <point x="84" y="588"/>
      <point x="84" y="460" type="curve" smooth="yes"/>
      <point x="84" y="360"/>
      <point x="145" y="301"/>
      <point x="318" y="252" type="curve" smooth="yes"/>
      <point x="467" y="209"/>
      <point x="516" y="166"/>
      <point x="516" y="91" type="curve" smooth="yes"/>
      <point x="516" y="-8"/>
      <point x="445" y="-64"/>
      <point x="320" y="-64" type="curve" smooth="yes"/>
      <point x="186" y="-64"/>
      <point x="117" y="-14"/>
      <point x="117" y="81" type="curve" smooth="yes"/>
      <point x="117" y="98"/>
      <point x="119" y="115"/>
      <point x="123" y="133" type="curve"/>
      <point x="76" y="119" type="line"/>
      <point x="72" y="100"/>
      <point x="70" y="84"/>
      <point x="70" y="68" type="curve" smooth="yes"/>
      <point x="70" y="-45"/>
      <point x="160" y="-110"/>
      <point x="318" y="-110" type="curve" smooth="yes"/>
      <point x="470" y="-110"/>
      <point x="568" y="-31"/>
    </contour>
  </outline>
</glyph>
<glyph name="T.swsh" format="2">
  <advance width="667"/>
  <anchor x="399" y="0" name="bottomC"/>
  <anchor x="379" y="660" name="top"/>
  <anchor x="404" y="0" name="ogonek"/>
  <anchor x="379" y="349" name="center"/>
  <anchor x="390" y="0" name="bottom"/>
  <outline>
    <contour>
      <point x="173" y="364" type="line"/>
      <point x="106" y="377"/>
      <point x="60" y="421"/>
      <point x="60" y="490" type="curve" smooth="yes"/>
      <point x="60" y="578"/>
      <point x="118" y="614"/>
      <point x="214" y="614" type="curve" smooth="yes"/>
      <point x="376" y="614" type="line"/>
      <point x="376" y="660" type="line"/>
      <point x="202" y="660" type="line" smooth="yes"/>
      <point x="82" y="660"/>
      <point x="10" y="600"/>
      <point x="10" y="491" type="curve" smooth="yes"/>
      <point x="10" y="398"/>
      <point x="72" y="339"/>
      <point x="152" y="325" type="curve"/>
    </contour>
    <contour>
      <point x="404" y="0" type="line"/>
      <point x="404" y="657" type="line"/>
      <point x="354" y="657" type="line"/>
      <point x="354" y="0" type="line"/>
    </contour>
    <contour>
      <point x="645" y="614" type="line"/>
      <point x="645" y="660" type="line"/>
      <point x="236" y="660" type="line"/>
      <point x="236" y="614" type="line"/>
    </contour>
  </outline>
</glyph>
<glyph name="W.swsh" format="2">
  <advance width="1166"/>
  <anchor x="914" y="0" name="bottomC"/>
  <anchor x="698" y="660" name="top"/>
  <anchor x="931" y="0" name="ogonek"/>
  <anchor x="698" y="0" name="bottom"/>
  <outline>
    <contour>
      <point x="173" y="364" type="line"/>
      <point x="106" y="377"/>
      <point x="60" y="421"/>
      <point x="60" y="490" type="curve" smooth="yes"/>
      <point x="60" y="579"/>
      <point x="118" y="619"/>
      <point x="214" y="619" type="curve" smooth="yes"/>
      <point x="276" y="619" type="line"/>
      <point x="276" y="660" type="line"/>
      <point x="202" y="660" type="line" smooth="yes"/>
      <point x="82" y="660"/>
      <point x="10" y="600"/>
      <point x="10" y="491" type="curve" smooth="yes"/>
      <point x="10" y="398"/>
      <point x="72" y="339"/>
      <point x="152" y="325" type="curve"/>
    </contour>
    <component base="W" xOffset="229"/>
  </outline>
</glyph>
<glyph name="__swash_topleft" format="2">
  <advance width="507"/>
  <outline>
    <contour>
      <point x="229" y="364" type="line"/>
      <point x="161" y="377"/>
      <point x="116" y="421"/>
      <point x="116" y="490" type="curve" smooth="yes"/>
      <point x="116" y="579"/>
      <point x="173" y="619"/>
      <point x="269" y="619" type="curve" smooth="yes"/>
      <point x="489" y="619" type="line"/>
      <point x="489" y="660" type="line"/>
      <point x="258" y="660" type="line" smooth="yes"/>
      <point x="138" y="660"/>
      <point x="66" y="600"/>
      <point x="66" y="491" type="curve" smooth="yes"/>
      <point x="66" y="398"/>
      <point x="128" y="339"/>
      <point x="208" y="325" type="curve"/>
    </contour>
  </outline>
</glyph>
<glyph name="a.sc" format="2">
  <advance width="562"/>
  <anchor x="522" y="0" name="bottomC"/>
  <anchor x="281" y="560" name="top"/>
  <anchor x="543" y="0" name="ogonek"/>
  <anchor x="281" y="0" name="bottom"/>
  <outline>
    <contour>
      <point x="71" y="0" type="line"/>
      <point x="260" y="456" type="line"/>
      <point x="281" y="514" type="line"/>
      <point x="281" y="514" type="line"/>
      <point x="301" y="456" type="line"/>
      <point x="490" y="0" type="line"/>
      <point x="543" y="0" type="line"/>
      <point x="310" y="560" type="line"/>
      <point x="251" y="560" type="line"/>
      <point x="19" y="0" type="line"/>
    </contour>
    <contour>
      <point x="437" y="174" type="line"/>
      <point x="437" y="217" type="line"/>
      <point x="124" y="217" type="line"/>
      <point x="124" y="174" type="line"/>
    </contour>
  </outline>
</glyph>
<glyph name="ae.sc" format="2">
  <advance width="792"/>
  <anchor x="392" y="560" name="top"/>
  <anchor x="392" y="0" name="bottom"/>
  <outline>
    <contour>
      <point x="323" y="560" type="line"/>
      <point x="0" y="0" type="line"/>
      <point x="52" y="0" type="line"/>
      <point x="372" y="560" type="line"/>
    </contour>
    <contour>
      <point x="167" y="240" type="line"/>
      <point x="144" y="196" type="line"/>
      <point x="391" y="196" type="line"/>
      <point x="391" y="240" type="line"/>
    </contour>
    <contour>
      <point x="393" y="43" type="line"/>
      <point x="393" y="0" type="line"/>
      <point x="754" y="0" type="line"/>
      <point x="754" y="43" type="line"/>
    </contour>
    <contour>
      <point x="367" y="560" type="line"/>
      <point x="367" y="0" type="line"/>
      <point x="416" y="0" type="line"/>
      <point x="416" y="560" type="line"/>
    </contour>
    <contour>
      <point x="393" y="305" type="line"/>
      <point x="393" y="262" type="line"/>
      <point x="670" y="262" type="line"/>
      <point x="670" y="305" type="line"/>
    </contour>
    <contour>
      <point x="346" y="560" type="line"/>
      <point x="324" y="517" type="line"/>
      <point x="389" y="517" type="line"/>
      <point x="399" y="517" type="line"/>
      <point x="741" y="517" type="line"/>
      <point x="741" y="560" type="line"/>
    </contour>
  </outline>
</glyph>
<glyph name="aring.sc" format="2">
  <advance width="562"/>
  <anchor x="531" y="0" name="bottomC"/>
  <anchor x="281" y="711" name="top"/>
  <anchor x="543" y="0" name="ogonek"/>
  <anchor x="281" y="0" name="bottom"/>
  <outline>
    <contour>
      <point x="71" y="0" type="line"/>
      <point x="260" y="456" type="line"/>
      <point x="281" y="514" type="line"/>
      <point x="281" y="514" type="line"/>
      <point x="301" y="456" type="line"/>
      <point x="490" y="0" type="line"/>
      <point x="543" y="0" type="line"/>
      <point x="310" y="560" type="line"/>
      <point x="251" y="560" type="line"/>
      <point x="19" y="0" type="line"/>
    </contour>
    <contour>
      <point x="437" y="174" type="line"/>
      <point x="437" y="217" type="line"/>
      <point x="124" y="217" type="line"/>
      <point x="124" y="174" type="line"/>
    </contour>
    <contour>
      <point x="180" y="626" type="curve" smooth="yes"/>
      <point x="180" y="568"/>
      <point x="221" y="530"/>
      <point x="281" y="530" type="curve" smooth="yes"/>
      <point x="341" y="530"/>
      <point x="381" y="568"/>
      <point x="381" y="626" type="curve" smooth="yes"/>
      <point x="381" y="682"/>
      <point x="341" y="721"/>
      <point x="281" y="721" type="curve" smooth="yes"/>
      <point x="221" y="721"/>
      <point x="180" y="682"/>
    </contour>
    <contour>
      <point x="345" y="626" type="curve" smooth="yes"/>
      <point x="345" y="588"/>
      <point x="318" y="563"/>
      <point x="281" y="563" type="curve" smooth="yes"/>
      <point x="243" y="563"/>
      <point x="217" y="588"/>
      <point x="217" y="626" type="curve" smooth="yes"/>
      <point x="217" y="663"/>
      <point x="243" y="688"/>
      <point x="281" y="688" type="curve" smooth="yes"/>
      <point x="318" y="688"/>
      <point x="345" y="663"/>
    </contour>
  </outline>
</glyph>
<glyph name="bar.case" format="2">
  <advance width="207"/>
  <outline>
    <contour>
      <point x="82" y="752" type="line"/>
      <point x="82" y="-97" type="line"/>
      <point x="126" y="-97" type="line"/>
      <point x="126" y="752" type="line"/>
    </contour>
  </outline>
</glyph>
<glyph name="braceleft.case" format="2">
  <advance width="308"/>
  <outline>
    <contour>
      <point x="132" y="649" type="curve" smooth="yes"/>
      <point x="132" y="449" type="line" smooth="yes"/>
      <point x="132" y="381"/>
      <point x="95" y="349"/>
      <point x="19" y="349" type="curve"/>
      <point x="19" y="321" type="line"/>
      <point x="120" y="321"/>
      <point x="179" y="364"/>
      <point x="179" y="445" type="curve" smooth="yes"/>
      <point x="179" y="653" type="line" smooth="yes"/>
      <point x="179" y="700"/>
      <point x="211" y="727"/>
      <point x="277" y="727" type="curve"/>
      <point x="270" y="768" type="line"/>
      <point x="175" y="768"/>
      <point x="132" y="724"/>
    </contour>
    <contour>
      <point x="19" y="306" type="line"/>
      <point x="95" y="306"/>
      <point x="132" y="274"/>
      <point x="132" y="207" type="curve" smooth="yes"/>
      <point x="132" y="9" type="line" smooth="yes"/>
      <point x="132" y="-66"/>
      <point x="175" y="-109"/>
      <point x="270" y="-109" type="curve"/>
      <point x="277" y="-68" type="line"/>
      <point x="211" y="-68"/>
      <point x="179" y="-42"/>
      <point x="179" y="6" type="curve" smooth="yes"/>
      <point x="179" y="211" type="line" smooth="yes"/>
      <point x="179" y="291"/>
      <point x="120" y="335"/>
      <point x="19" y="335" type="curve"/>
    </contour>
  </outline>
</glyph>
<glyph name="bracketleftsuperior" format="2">
  <advance width="194"/>
  <outline>
    <contour>
      <point x="109" y="810" type="line"/>
      <point x="69" y="810" type="line"/>
      <point x="69" y="253" type="line"/>
      <point x="109" y="253" type="line"/>
    </contour>
    <contour>
      <point x="89" y="775" type="line"/>
      <point x="193" y="775" type="line"/>
      <point x="193" y="810" type="line"/>
      <point x="89" y="810" type="line"/>
    </contour>
    <contour>
      <point x="89" y="253" type="line"/>
      <point x="193" y="253" type="line"/>
      <point x="193" y="288" type="line"/>
      <point x="89" y="288" type="line"/>
    </contour>
  </outline>
</glyph>
<glyph name="c.sc" format="2">
  <advance width="597"/>
  <anchor x="323" y="0" name="bottomC"/>
  <anchor x="319" y="560" name="top"/>
  <anchor x="395" y="0" name="ogonek"/>
  <anchor x="319" y="0" name="bottom"/>
  <outline>
    <contour>
      <point x="512" y="162" type="line"/>
      <point x="492" y="79"/>
      <point x="426" y="35"/>
      <point x="320" y="35" type="curve" smooth="yes"/>
      <point x="195" y="35"/>
      <point x="106" y="127"/>
      <point x="106" y="280" type="curve" smooth="yes"/>
      <point x="106" y="432"/>
      <point x="193" y="525"/>
      <point x="322" y="525" type="curve" smooth="yes"/>
      <point x="424" y="525"/>
      <point x="481" y="484"/>
      <point x="506" y="397" type="curve"/>
      <point x="553" y="418" type="line"/>
      <point x="522" y="518"/>
      <point x="443" y="568"/>
      <point x="323" y="568" type="curve" smooth="yes"/>
      <point x="162" y="568"/>
      <point x="56" y="458"/>
      <point x="56" y="280" type="curve" smooth="yes"/>
      <point x="56" y="102"/>
      <point x="163" y="-8"/>
      <point x="321" y="-8" type="curve" smooth="yes"/>
      <point x="442" y="-8"/>
      <point x="532" y="46"/>
      <point x="560" y="146" type="curve"/>
    </contour>
  </outline>
</glyph>
<glyph name="caroncmb.cap" format="2">
  <anchor x="0" y="660" name="_top"/>
  <outline>
    <contour>
      <point x="90" y="894" type="line"/>
      <point x="0" y="777" type="line"/>
      <point x="-90" y="894" type="line"/>
      <point x="-138" y="894" type="line"/>
      <point x="-28" y="743" type="line"/>
      <point x="28" y="743" type="line"/>
      <point x="138" y="894" type="line"/>
    </contour>
  </outline>
</glyph>
<glyph name="cent.001" format="2">
  <advance width="533"/>
  <outline>
    <contour>
      <point x="62" y="250" type="curve" smooth="yes"/>
      <point x="62" y="88"/>
      <point x="145" y="-10"/>
      <point x="287" y="-10" type="curve" smooth="yes"/>
      <point x="386" y="-10"/>
      <point x="461" y="46"/>
      <point x="485" y="138" type="curve"/>
      <point x="440" y="153" type="line"/>
      <point x="424" y="76"/>
      <point x="364" y="31"/>
      <point x="286" y="31" type="curve" smooth="yes"/>
      <point x="173" y="31"/>
      <point x="110" y="112"/>
      <point x="110" y="250" type="curve" smooth="yes"/>
      <point x="110" y="388"/>
      <point x="175" y="469"/>
      <point x="288" y="469" type="curve" smooth="yes"/>
      <point x="361" y="469"/>
      <point x="413" y="428"/>
      <point x="433" y="353" type="curve"/>
      <point x="480" y="375" type="line"/>
      <point x="452" y="460"/>
      <point x="385" y="510"/>
      <point x="289" y="510" type="curve" smooth="yes"/>
      <point x="147" y="510"/>
      <point x="62" y="412"/>
    </contour>
    <contour>
      <point x="257" y="8" type="line"/>
      <point x="257" y="-115" type="line"/>
      <point x="304" y="-115" type="line"/>
      <point x="304" y="8" type="line"/>
    </contour>
    <contour>
      <point x="257" y="615" type="line"/>
      <point x="257" y="491" type="line"/>
      <point x="304" y="491" type="line"/>
      <point x="304" y="615" type="line"/>
    </contour>
  </outline>
</glyph>
<glyph name="commasuperior" format="2">
  <advance width="159"/>
  <outline>
    <contour>
      <point x="47" y="362" type="curve" smooth="yes"/>
      <point x="47" y="341"/>
      <point x="62" y="328"/>
      <point x="78" y="328" type="curve" smooth="yes"/>
      <point x="85" y="328"/>
      <point x="90" y="331"/>
      <point x="91" y="333" type="curve"/>
      <point x="93" y="333" type="line"/>
      <point x="96" y="309"/>
      <point x="73" y="276"/>
      <point x="44" y="264" type="curve"/>
      <point x="65" y="245" type="line"/>
      <point x="104" y="265"/>
      <point x="123" y="303"/>
      <point x="123" y="340" type="curve" smooth="yes"/>
      <point x="123" y="372"/>
      <point x="107" y="394"/>
      <point x="80" y="394" type="curve" smooth="yes"/>
      <point x="59" y="394"/>
      <point x="47" y="380"/>
    </contour>
  </outline>
</glyph>
<glyph name="daggerdblsuperior" format="2">
  <advance width="407"/>
  <outline>
    <contour>
      <point x="34" y="591" type="line"/>
      <point x="34" y="554" type="line"/>
      <point x="373" y="554" type="line"/>
      <point x="373" y="591" type="line"/>
    </contour>
    <contour>
      <point x="223" y="730" type="line"/>
      <point x="180" y="730" type="line"/>
      <point x="180" y="262" type="line"/>
      <point x="223" y="262" type="line"/>
    </contour>
    <contour>
      <point x="373" y="438" type="line"/>
      <point x="34" y="438" type="line"/>
      <point x="34" y="401" type="line"/>
      <point x="373" y="401" type="line"/>
    </contour>
  </outline>
</glyph>
<glyph name="dcroat.sc" format="2">
  <advance width="641"/>
  <anchor x="273" y="0" name="bottomC"/>
  <anchor x="300" y="560" name="top"/>
  <anchor x="298" y="0" name="ogonek"/>
  <anchor x="320" y="259" name="center"/>
  <anchor x="300" y="0" name="bottom"/>
  <outline>
    <contour>
      <point x="17" y="301" type="line"/>
      <point x="17" y="264" type="line"/>
      <point x="327" y="264" type="line"/>
      <point x="327" y="301" type="line"/>
    </contour>
    <component base="d.sc" xOffset="15"/>
  </outline>
</glyph>
<glyph name="e.sc" format="2">
  <advance width="548"/>
  <anchor x="294" y="0" name="bottomC"/>
  <anchor x="289" y="560" name="top"/>
  <anchor x="510" y="0" name="ogonek"/>
  <anchor x="294" y="0" name="bottom"/>
  <outline>
    <contour>
      <point x="92" y="560" type="line"/>
      <point x="92" y="0" type="line"/>
      <point x="142" y="0" type="line"/>
      <point x="142" y="560" type="line"/>
    </contour>
    <contour>
      <point x="117" y="43" type="line"/>
      <point x="117" y="0" type="line"/>
      <point x="510" y="0" type="line"/>
      <point x="510" y="43" type="line"/>
    </contour>
    <contour>
      <point x="117" y="306" type="line"/>
      <point x="117" y="263" type="line"/>
      <point x="422" y="263" type="line"/>
      <point x="422" y="306" type="line"/>
    </contour>
    <contour>
      <point x="117" y="560" type="line"/>
      <point x="117" y="517" type="line"/>
      <point x="496" y="517" type="line"/>
      <point x="496" y="560" type="line"/>
    </contour>
  </outline>
</glyph>
<glyph name="eight.sc" format="2">
  <advance width="531"/>
  <outline>
    <contour>
      <point x="475" y="148" type="curve" smooth="yes"/>
      <point x="475" y="220"/>
      <point x="423" y="274"/>
      <point x="344" y="293" type="curve"/>
      <point x="344" y="294" type="line"/>
      <point x="411" y="313"/>
      <point x="453" y="360"/>
      <point x="453" y="424" type="curve" smooth="yes"/>
      <point x="453" y="512"/>
      <point x="379" y="567"/>
      <point x="265" y="567" type="curve" smooth="yes"/>
      <point x="152" y="567"/>
      <point x="79" y="512"/>
      <point x="79" y="424" type="curve" smooth="yes"/>
      <point x="79" y="360"/>
      <point x="120" y="313"/>
      <point x="188" y="294" type="curve"/>
      <point x="188" y="293" type="line"/>
      <point x="108" y="275"/>
      <point x="56" y="220"/>
      <point x="56" y="148" type="curve" smooth="yes"/>
      <point x="56" y="53"/>
      <point x="140" y="-8"/>
      <point x="265" y="-8" type="curve" smooth="yes"/>
      <point x="391" y="-8"/>
      <point x="475" y="53"/>
    </contour>
    <contour>
      <point x="106" y="151" type="curve" smooth="yes"/>
      <point x="106" y="223"/>
      <point x="171" y="271"/>
      <point x="265" y="271" type="curve" smooth="yes"/>
      <point x="361" y="271"/>
      <point x="425" y="223"/>
      <point x="425" y="151" type="curve" smooth="yes"/>
      <point x="425" y="81"/>
      <point x="362" y="34"/>
      <point x="265" y="34" type="curve" smooth="yes"/>
      <point x="170" y="34"/>
      <point x="106" y="81"/>
    </contour>
    <contour>
      <point x="128" y="421" type="curve" smooth="yes"/>
      <point x="128" y="486"/>
      <point x="182" y="525"/>
      <point x="265" y="525" type="curve" smooth="yes"/>
      <point x="349" y="525"/>
      <point x="403" y="486"/>
      <point x="403" y="421" type="curve" smooth="yes"/>
      <point x="403" y="357"/>
      <point x="348" y="314"/>
      <point x="265" y="314" type="curve" smooth="yes"/>
      <point x="183" y="314"/>
      <point x="128" y="357"/>
    </contour>
  </outline>
</glyph>
<glyph name="eight.tf" format="2">
  <advance width="604"/>
  <outline>
    <contour>
      <point x="103" y="502" type="curve" smooth="yes"/>
      <point x="103" y="426"/>
      <point x="147" y="370"/>
      <point x="217" y="348" type="curve"/>
      <point x="217" y="347" type="line"/>
      <point x="131" y="324"/>
      <point x="75" y="260"/>
      <point x="75" y="174" type="curve" smooth="yes"/>
      <point x="75" y="63"/>
      <point x="167" y="-10"/>
      <point x="302" y="-10" type="curve" smooth="yes"/>
      <point x="437" y="-10"/>
      <point x="529" y="63"/>
      <point x="529" y="174" type="curve" smooth="yes"/>
      <point x="529" y="260"/>
      <point x="473" y="324"/>
      <point x="388" y="347" type="curve"/>
      <point x="388" y="348" type="line"/>
      <point x="457" y="370"/>
      <point x="500" y="426"/>
      <point x="500" y="502" type="curve" smooth="yes"/>
      <point x="500" y="604"/>
      <point x="422" y="669"/>
      <point x="302" y="669" type="curve" smooth="yes"/>
      <point x="181" y="669"/>
      <point x="103" y="604"/>
    </contour>
    <contour>
      <point x="449" y="497" type="curve" smooth="yes"/>
      <point x="449" y="420"/>
      <point x="390" y="370"/>
      <point x="302" y="370" type="curve" smooth="yes"/>
      <point x="214" y="370"/>
      <point x="155" y="420"/>
      <point x="155" y="497" type="curve" smooth="yes"/>
      <point x="155" y="575"/>
      <point x="213" y="623"/>
      <point x="302" y="623" type="curve" smooth="yes"/>
      <point x="391" y="623"/>
      <point x="449" y="575"/>
    </contour>
    <contour>
      <point x="126" y="178" type="curve" smooth="yes"/>
      <point x="126" y="265"/>
      <point x="197" y="323"/>
      <point x="302" y="323" type="curve" smooth="yes"/>
      <point x="407" y="323"/>
      <point x="477" y="265"/>
      <point x="477" y="178" type="curve" smooth="yes"/>
      <point x="477" y="93"/>
      <point x="408" y="36"/>
      <point x="302" y="36" type="curve" smooth="yes"/>
      <point x="196" y="36"/>
      <point x="126" y="93"/>
    </contour>
  </outline>
</glyph>
<glyph name="euro.part.tf" format="2">
  <advance width="604"/>
  <outline>
    <contour>
      <point x="107" y="330" type="curve" smooth="yes"/>
      <point x="107" y="119"/>
      <point x="200" y="-10"/>
      <point x="359" y="-10" type="curve" smooth="yes"/>
      <point x="464" y="-10"/>
      <point x="549" y="53"/>
      <point x="576" y="169" type="curve"/>
      <point x="531" y="187" type="line"/>
      <point x="511" y="85"/>
      <point x="443" y="34"/>
      <point x="359" y="34" type="curve" smooth="yes"/>
      <point x="234" y="34"/>
      <point x="157" y="146"/>
      <point x="157" y="330" type="curve" smooth="yes"/>
      <point x="157" y="514"/>
      <point x="239" y="626"/>
      <point x="364" y="626" type="curve" smooth="yes"/>
      <point x="446" y="626"/>
      <point x="502" y="582"/>
      <point x="522" y="499" type="curve"/>
      <point x="566" y="522" type="line"/>
      <point x="539" y="618"/>
      <point x="465" y="670"/>
      <point x="360" y="670" type="curve" smooth="yes"/>
      <point x="203" y="670"/>
      <point x="107" y="541"/>
    </contour>
  </outline>
</glyph>
<glyph name="f_t.liga" format="2">
  <advance width="690"/>
  <anchor x="456" y="265" name="center"/>
  <anchor x="584" y="767" name="topright"/>
  <anchor x="553" y="0" name="bottom"/>
  <outline>
    <contour>
      <point x="123" y="584" type="curve" smooth="yes"/>
      <point x="123" y="0" type="line"/>
      <point x="173" y="0" type="line"/>
      <point x="173" y="482" type="line"/>
      <point x="173" y="500" type="line"/>
      <point x="173" y="579" type="line" smooth="yes"/>
      <point x="173" y="651"/>
      <point x="211" y="690"/>
      <point x="276" y="690" type="curve" smooth="yes"/>
      <point x="303" y="690"/>
      <point x="322" y="683"/>
      <point x="339" y="668" type="curve"/>
      <point x="353" y="708" type="line"/>
      <point x="336" y="725"/>
      <point x="309" y="735"/>
      <point x="272" y="735" type="curve" smooth="yes"/>
      <point x="175" y="735"/>
      <point x="123" y="675"/>
    </contour>
    <contour>
      <point x="23" y="500" type="line"/>
      <point x="23" y="457" type="line"/>
      <point x="349" y="457" type="line"/>
      <point x="349" y="500" type="line"/>
    </contour>
    <contour>
      <point x="435" y="625" type="line"/>
      <point x="435" y="125" type="line" smooth="yes"/>
      <point x="436" y="32"/>
      <point x="488" y="-10"/>
      <point x="565" y="-10" type="curve" smooth="yes"/>
      <point x="613" y="-10"/>
      <point x="653" y="7"/>
      <point x="679" y="32" type="curve"/>
      <point x="660" y="73" type="line"/>
      <point x="637" y="49"/>
      <point x="609" y="36"/>
      <point x="574" y="36" type="curve" smooth="yes"/>
      <point x="517" y="36"/>
      <point x="485" y="69"/>
      <point x="485" y="132" type="curve" smooth="yes"/>
      <point x="485" y="639" type="line"/>
    </contour>
    <contour>
      <point x="335" y="500" type="line"/>
      <point x="335" y="457" type="line"/>
      <point x="674" y="457" type="line"/>
      <point x="674" y="500" type="line"/>
    </contour>
  </outline>
</glyph>
<glyph name="five.osf" format="2">
  <advance width="548"/>
  <outline>
    <contour>
      <point x="121" y="245" type="curve"/>
      <point x="120" y="245" type="line"/>
      <point x="122" y="258" type="line"/>
      <point x="148" y="517" type="line"/>
      <point x="472" y="517" type="line"/>
      <point x="472" y="560" type="line"/>
      <point x="107" y="560" type="line"/>
      <point x="71" y="192" type="line"/>
      <point x="116" y="192" type="line"/>
      <point x="147" y="235"/>
      <point x="200" y="270"/>
      <point x="285" y="270" type="curve" smooth="yes"/>
      <point x="387" y="270"/>
      <point x="450" y="203"/>
      <point x="450" y="101" type="curve" smooth="yes"/>
      <point x="450" y="-1"/>
      <point x="384" y="-67"/>
      <point x="281" y="-67" type="curve" smooth="yes"/>
      <point x="178" y="-67"/>
      <point x="118" y="-19"/>
      <point x="99" y="69" type="curve"/>
      <point x="53" y="45" type="line"/>
      <point x="84" y="-61"/>
      <point x="162" y="-110"/>
      <point x="281" y="-110" type="curve" smooth="yes"/>
      <point x="414" y="-110"/>
      <point x="500" y="-26"/>
      <point x="500" y="103" type="curve" smooth="yes"/>
      <point x="500" y="228"/>
      <point x="416" y="312"/>
      <point x="293" y="312" type="curve" smooth="yes"/>
      <point x="207" y="312"/>
      <point x="154" y="282"/>
    </contour>
  </outline>
</glyph>
<glyph name="five.sc" format="2">
  <advance width="497"/>
  <outline>
    <contour>
      <point x="112" y="292" type="curve"/>
      <point x="111" y="292" type="line"/>
      <point x="114" y="313" type="line"/>
      <point x="134" y="517" type="line"/>
      <point x="421" y="517" type="line"/>
      <point x="421" y="560" type="line"/>
      <point x="94" y="560" type="line"/>
      <point x="62" y="249" type="line"/>
      <point x="104" y="247" type="line"/>
      <point x="131" y="281"/>
      <point x="181" y="307"/>
      <point x="253" y="307" type="curve" smooth="yes"/>
      <point x="340" y="307"/>
      <point x="395" y="254"/>
      <point x="396" y="172" type="curve" smooth="yes"/>
      <point x="396" y="90"/>
      <point x="338" y="35"/>
      <point x="248" y="35" type="curve" smooth="yes"/>
      <point x="159" y="35"/>
      <point x="108" y="73"/>
      <point x="91" y="145" type="curve"/>
      <point x="45" y="121" type="line"/>
      <point x="74" y="30"/>
      <point x="145" y="-8"/>
      <point x="250" y="-8" type="curve" smooth="yes"/>
      <point x="367" y="-8"/>
      <point x="446" y="61"/>
      <point x="446" y="174" type="curve" smooth="yes"/>
      <point x="446" y="278"/>
      <point x="372" y="350"/>
      <point x="262" y="350" type="curve" smooth="yes"/>
      <point x="180" y="350"/>
      <point x="139" y="323"/>
    </contour>
  </outline>
</glyph>
<glyph name="florin.tf" format="2">
  <advance width="604"/>
  <outline>
    <contour>
      <point x="319" y="588" type="curve" smooth="yes"/>
      <point x="216" y="23" type="line" smooth="yes"/>
      <point x="204" y="-47"/>
      <point x="166" y="-83"/>
      <point x="104" y="-83" type="curve" smooth="yes"/>
      <point x="74" y="-83"/>
      <point x="51" y="-77"/>
      <point x="31" y="-64" type="curve"/>
      <point x="22" y="-107" type="line"/>
      <point x="51" y="-123"/>
      <point x="71" y="-128"/>
      <point x="107" y="-128" type="curve" smooth="yes"/>
      <point x="196" y="-128"/>
      <point x="250" y="-78"/>
      <point x="267" y="19" type="curve" smooth="yes"/>
      <point x="369" y="584" type="line" smooth="yes"/>
      <point x="381" y="656"/>
      <point x="419" y="690"/>
      <point x="484" y="690" type="curve" smooth="yes"/>
      <point x="509" y="690"/>
      <point x="531" y="684"/>
      <point x="554" y="671" type="curve"/>
      <point x="560" y="716" type="line"/>
      <point x="532" y="731"/>
      <point x="512" y="735"/>
      <point x="475" y="735" type="curve" smooth="yes"/>
      <point x="388" y="735"/>
      <point x="336" y="686"/>
    </contour>
    <contour>
      <point x="111" y="400" type="line"/>
      <point x="111" y="357" type="line"/>
      <point x="526" y="357" type="line"/>
      <point x="526" y="400" type="line"/>
    </contour>
  </outline>
</glyph>
<glyph name="four.sc" format="2">
  <advance width="520"/>
  <outline>
    <contour>
      <point x="379" y="0" type="line"/>
      <point x="379" y="156" type="line"/>
      <point x="491" y="156" type="line"/>
      <point x="491" y="197" type="line"/>
      <point x="379" y="197" type="line"/>
      <point x="379" y="560" type="line"/>
      <point x="315" y="560" type="line"/>
      <point x="39" y="190" type="line"/>
      <point x="39" y="156" type="line"/>
      <point x="331" y="156" type="line"/>
      <point x="331" y="0" type="line"/>
    </contour>
    <contour>
      <point x="292" y="460" type="line" smooth="yes"/>
      <point x="303" y="475"/>
      <point x="318" y="498"/>
      <point x="329" y="516" type="curve"/>
      <point x="331" y="516" type="line"/>
      <point x="331" y="197" type="line"/>
      <point x="93" y="197" type="line"/>
    </contour>
  </outline>
</glyph>
<glyph name="four.tf" format="2">
  <advance width="604"/>
  <outline>
    <contour>
      <point x="423" y="0" type="line"/>
      <point x="423" y="188" type="line"/>
      <point x="559" y="188" type="line"/>
      <point x="559" y="231" type="line"/>
      <point x="423" y="231" type="line"/>
      <point x="423" y="660" type="line"/>
      <point x="356" y="660" type="line"/>
      <point x="50" y="226" type="line"/>
      <point x="50" y="188" type="line"/>
      <point x="373" y="188" type="line"/>
      <point x="373" y="0" type="line"/>
    </contour>
    <contour>
      <point x="315" y="526" type="line" smooth="yes"/>
      <point x="335" y="554"/>
      <point x="356" y="584"/>
      <point x="373" y="616" type="curve"/>
      <point x="375" y="616" type="line"/>
      <point x="373" y="571"/>
      <point x="373" y="527"/>
      <point x="373" y="484" type="curve" smooth="yes"/>
      <point x="373" y="231" type="line"/>
      <point x="103" y="231" type="line"/>
    </contour>
  </outline>
</glyph>
<glyph name="four.tosf" format="2">
  <advance width="604"/>
  <outline>
    <contour>
      <point x="431" y="-100" type="line"/>
      <point x="431" y="88" type="line"/>
      <point x="562" y="88" type="line"/>
      <point x="562" y="131" type="line"/>
      <point x="431" y="131" type="line"/>
      <point x="431" y="560" type="line"/>
      <point x="365" y="560" type="line"/>
      <point x="53" y="126" type="line"/>
      <point x="53" y="88" type="line"/>
      <point x="381" y="88" type="line"/>
      <point x="381" y="-100" type="line"/>
    </contour>
    <contour>
      <point x="324" y="428" type="line" smooth="yes"/>
      <point x="344" y="456"/>
      <point x="364" y="484"/>
      <point x="382" y="516" type="curve"/>
      <point x="383" y="516" type="line"/>
      <point x="382" y="471"/>
      <point x="381" y="427"/>
      <point x="381" y="384" type="curve" smooth="yes"/>
      <point x="381" y="131" type="line"/>
      <point x="107" y="131" type="line"/>
    </contour>
  </outline>
</glyph>
<glyph name="g.ss01" format="2">
  <advance width="609"/>
  <anchor x="285" y="-210" name="bottomC"/>
  <anchor x="285" y="500" name="top"/>
  <anchor x="400" y="-191" name="ogonek"/>
  <anchor x="297" y="-210" name="bottom"/>
  <outline>
    <contour>
      <point x="477" y="500" type="line"/>
      <point x="469" y="357" type="line"/>
      <point x="469" y="344" type="line"/>
      <point x="469" y="14" type="line" smooth="yes"/>
      <point x="469" y="-99"/>
      <point x="397" y="-171"/>
      <point x="284" y="-171" type="curve" smooth="yes"/>
      <point x="189" y="-171"/>
      <point x="133" y="-135"/>
      <point x="121" y="-70" type="curve"/>
      <point x="73" y="-91" type="line"/>
      <point x="90" y="-173"/>
      <point x="171" y="-215"/>
      <point x="277" y="-215" type="curve" smooth="yes"/>
      <point x="434" y="-215"/>
      <point x="520" y="-132"/>
      <point x="520" y="25" type="curve" smooth="yes"/>
      <point x="520" y="390" type="line"/>
      <point x="520" y="500" type="line"/>
    </contour>
    <contour>
      <point x="57" y="253" type="curve" smooth="yes"/>
      <point x="57" y="91"/>
      <point x="144" y="-5"/>
      <point x="285" y="-5" type="curve" smooth="yes"/>
      <point x="408" y="-5"/>
      <point x="489" y="78"/>
      <point x="489" y="198" type="curve"/>
      <point x="469" y="248" type="line"/>
      <point x="469" y="118"/>
      <point x="399" y="39"/>
      <point x="292" y="39" type="curve" smooth="yes"/>
      <point x="176" y="39"/>
      <point x="107" y="120"/>
      <point x="107" y="253" type="curve" smooth="yes"/>
      <point x="107" y="385"/>
      <point x="176" y="466"/>
      <point x="292" y="466" type="curve" smooth="yes"/>
      <point x="399" y="466"/>
      <point x="470" y="386"/>
      <point x="469" y="257" type="curve"/>
      <point x="489" y="306" type="line"/>
      <point x="489" y="427"/>
      <point x="408" y="510"/>
      <point x="285" y="510" type="curve" smooth="yes"/>
      <point x="144" y="510"/>
      <point x="57" y="414"/>
    </contour>
  </outline>
</glyph>
<glyph name="g.ss01_j.liga" format="2">
  <advance width="817"/>
  <anchor x="285" y="500" name="top"/>
  <outline>
    <contour>
      <point x="477" y="500" type="line"/>
      <point x="469" y="357" type="line"/>
      <point x="469" y="344" type="line"/>
      <point x="469" y="14" type="line" smooth="yes"/>
      <point x="469" y="-99"/>
      <point x="397" y="-171"/>
      <point x="284" y="-171" type="curve" smooth="yes"/>
      <point x="189" y="-171"/>
      <point x="133" y="-135"/>
      <point x="121" y="-70" type="curve"/>
      <point x="73" y="-91" type="line"/>
      <point x="90" y="-173"/>
      <point x="171" y="-215"/>
      <point x="277" y="-215" type="curve" smooth="yes"/>
      <point x="434" y="-215"/>
      <point x="520" y="-132"/>
      <point x="520" y="25" type="curve" smooth="yes"/>
      <point x="520" y="390" type="line"/>
      <point x="520" y="500" type="line"/>
    </contour>
    <contour>
      <point x="57" y="253" type="curve" smooth="yes"/>
      <point x="57" y="91"/>
      <point x="144" y="-5"/>
      <point x="285" y="-5" type="curve" smooth="yes"/>
      <point x="408" y="-5"/>
      <point x="489" y="78"/>
      <point x="489" y="198" type="curve"/>
      <point x="469" y="248" type="line"/>
      <point x="469" y="118"/>
      <point x="399" y="39"/>
      <point x="292" y="39" type="curve" smooth="yes"/>
      <point x="176" y="39"/>
      <point x="107" y="120"/>
      <point x="107" y="253" type="curve" smooth="yes"/>
      <point x="107" y="385"/>
      <point x="176" y="466"/>
      <point x="292" y="466" type="curve" smooth="yes"/>
      <point x="399" y="466"/>
      <point x="470" y="386"/>
      <point x="469" y="257" type="curve"/>
      <point x="489" y="306" type="line"/>
      <point x="489" y="427"/>
      <point x="408" y="510"/>
      <point x="285" y="510" type="curve" smooth="yes"/>
      <point x="144" y="510"/>
      <point x="57" y="414"/>
    </contour>
    <contour>
      <point x="698" y="500" type="line"/>
      <point x="698" y="-53" type="line" smooth="yes"/>
      <point x="698" y="-129"/>
      <point x="661" y="-167"/>
      <point x="605" y="-167" type="curve" smooth="yes"/>
      <point x="575" y="-167"/>
      <point x="548" y="-156"/>
      <point x="531" y="-140" type="curve"/>
      <point x="519" y="-187" type="line"/>
      <point x="539" y="-204"/>
      <point x="571" y="-215"/>
      <point x="606" y="-215" type="curve" smooth="yes"/>
      <point x="679" y="-215"/>
      <point x="748" y="-167"/>
      <point x="748" y="-57" type="curve" smooth="yes"/>
      <point x="748" y="500" type="line"/>
    </contour>
    <contour>
      <point x="681" y="639" type="curve" smooth="yes"/>
      <point x="681" y="616"/>
      <point x="700" y="597"/>
      <point x="723" y="597" type="curve" smooth="yes"/>
      <point x="747" y="597"/>
      <point x="765" y="616"/>
      <point x="765" y="639" type="curve" smooth="yes"/>
      <point x="765" y="663"/>
      <point x="747" y="681"/>
      <point x="723" y="681" type="curve" smooth="yes"/>
      <point x="700" y="681"/>
      <point x="681" y="663"/>
    </contour>
  </outline>
</glyph>
<glyph name="germandbls.sc" format="2">
  <advance width="599"/>
  <anchor x="381" y="0" name="bottomC"/>
  <anchor x="326" y="560" name="top"/>
  <anchor x="424" y="0" name="ogonek"/>
  <anchor x="326" y="0" name="bottom"/>
  <outline>
    <contour>
      <point x="142" y="0" type="line"/>
      <point x="142" y="370" type="line" smooth="yes"/>
      <point x="142" y="457"/>
      <point x="203" y="517"/>
      <point x="291" y="517" type="curve" smooth="yes"/>
      <point x="470" y="517" type="line"/>
      <point x="287" y="302" type="line"/>
      <point x="320" y="280" type="line"/>
      <point x="525" y="516" type="line"/>
      <point x="525" y="560" type="line"/>
      <point x="289" y="560" type="line" smooth="yes"/>
      <point x="170" y="560"/>
      <point x="92" y="485"/>
      <point x="92" y="372" type="curve" smooth="yes"/>
      <point x="92" y="0" type="line"/>
    </contour>
    <contour>
      <point x="560" y="152" type="curve" smooth="yes"/>
      <point x="560" y="251"/>
      <point x="493" y="302"/>
      <point x="387" y="302" type="curve" smooth="yes"/>
      <point x="287" y="302" type="line"/>
      <point x="287" y="263" type="line"/>
      <point x="374" y="263" type="line" smooth="yes"/>
      <point x="458" y="263"/>
      <point x="510" y="234"/>
      <point x="510" y="153" type="curve" smooth="yes"/>
      <point x="510" y="82"/>
      <point x="457" y="39"/>
      <point x="379" y="39" type="curve" smooth="yes"/>
      <point x="327" y="39"/>
      <point x="288" y="59"/>
      <point x="264" y="86" type="curve"/>
      <point x="241" y="48" type="line"/>
      <point x="266" y="18"/>
      <point x="318" y="-4"/>
      <point x="384" y="-4" type="curve" smooth="yes"/>
      <point x="489" y="-4"/>
      <point x="560" y="56"/>
    </contour>
  </outline>
</glyph>
<glyph name="h.sc" format="2">
  <advance width="641"/>
  <anchor x="528" y="0" name="bottomC"/>
  <anchor x="321" y="560" name="top"/>
  <anchor x="549" y="0" name="ogonek"/>
  <anchor x="321" y="0" name="bottom"/>
  <outline>
    <contour>
      <point x="499" y="560" type="line"/>
      <point x="499" y="0" type="line"/>
      <point x="549" y="0" type="line"/>
      <point x="549" y="560" type="line"/>
    </contour>
    <contour>
      <point x="92" y="560" type="line"/>
      <point x="92" y="0" type="line"/>
      <point x="142" y="0" type="line"/>
      <point x="142" y="560" type="line"/>
    </contour>
    <contour>
      <point x="118" y="306" type="line"/>
      <point x="118" y="263" type="line"/>
      <point x="525" y="263" type="line"/>
      <point x="525" y="306" type="line"/>
    </contour>
  </outline>
</glyph>
<glyph name="i.sc" format="2">
  <advance width="234"/>
  <anchor x="121" y="0" name="bottomC"/>
  <anchor x="117" y="560" name="top"/>
  <anchor x="142" y="0" name="ogonek"/>
  <anchor x="117" y="0" name="bottom"/>
  <outline>
    <contour>
      <point x="92" y="560" type="line"/>
      <point x="92" y="0" type="line"/>
      <point x="142" y="0" type="line"/>
      <point x="142" y="560" type="line"/>
    </contour>
  </outline>
</glyph>
<glyph name="iacute_j.loclNLD" format="2">
  <advance width="457"/>
  <anchor x="118" y="0" name="bottomC"/>
  <anchor x="114" y="500" name="top"/>
  <anchor x="139" y="0" name="ogonek"/>
  <anchor x="114" y="0" name="bottom"/>
  <outline>
    <contour>
      <point x="318" y="500" type="line"/>
      <point x="318" y="-53" type="line" smooth="yes"/>
      <point x="318" y="-129"/>
      <point x="280" y="-167"/>
      <point x="225" y="-167" type="curve" smooth="yes"/>
      <point x="195" y="-167"/>
      <point x="168" y="-156"/>
      <point x="150" y="-140" type="curve"/>
      <point x="139" y="-187" type="line"/>
      <point x="158" y="-204"/>
      <point x="190" y="-215"/>
      <point x="225" y="-215" type="curve" smooth="yes"/>
      <point x="299" y="-215"/>
      <point x="368" y="-167"/>
      <point x="368" y="-57" type="curve" smooth="yes"/>
      <point x="368" y="500" type="line"/>
    </contour>
    <component base="iacute"/>
    <component base="acute" xOffset="69"/>
  </outline>
</glyph>
<glyph name="ij.sc.ss05" format="2">
  <advance width="536"/>
  <outline>
    <contour>
      <point x="85" y="560" type="line"/>
      <point x="85" y="233" type="line"/>
      <point x="135" y="233" type="line"/>
      <point x="135" y="560" type="line"/>
    </contour>
    <contour>
      <point x="401" y="560" type="line"/>
      <point x="401" y="194" type="line" smooth="yes"/>
      <point x="401" y="90"/>
      <point x="352" y="35"/>
      <point x="263" y="35" type="curve" smooth="yes"/>
      <point x="176" y="35"/>
      <point x="130" y="75"/>
      <point x="134" y="153" type="curve"/>
      <point x="85" y="153" type="line"/>
      <point x="78" y="49"/>
      <point x="136" y="-8"/>
      <point x="262" y="-8" type="curve" smooth="yes"/>
      <point x="381" y="-8"/>
      <point x="451" y="62"/>
      <point x="451" y="188" type="curve" smooth="yes"/>
      <point x="451" y="560" type="line"/>
    </contour>
  </outline>
</glyph>
<glyph name="iogonek_j" format="2">
  <advance width="457"/>
  <anchor x="139" y="0" name="ogonek_1"/>
  <anchor x="307" y="-204" name="ogonek_2"/>
  <anchor x="118" y="0" name="bottomC_1"/>
  <anchor x="284" y="-210" name="bottomC_2"/>
  <anchor x="114" y="0" name="bottom_1"/>
  <anchor x="284" y="-210" name="bottom_2"/>
  <anchor x="114" y="671" name="top_1"/>
  <anchor x="343" y="671" name="top_2"/>
  <outline>
    <contour>
      <point x="166" y="-187" type="curve"/>
      <point x="158" y="-153" type="line"/>
      <point x="143" y="-166"/>
      <point x="128" y="-172"/>
      <point x="105" y="-172" type="curve" smooth="yes"/>
      <point x="67" y="-172"/>
      <point x="45" y="-152"/>
      <point x="45" y="-115" type="curve" smooth="yes"/>
      <point x="45" y="-74"/>
      <point x="68" y="-47"/>
      <point x="139" y="0" type="curve"/>
      <point x="106" y="11" type="line"/>
      <point x="33" y="-34"/>
      <point x="5" y="-68"/>
      <point x="5" y="-122" type="curve" smooth="yes"/>
      <point x="5" y="-175"/>
      <point x="38" y="-209"/>
      <point x="100" y="-209" type="curve" smooth="yes"/>
      <point x="129" y="-209"/>
      <point x="147" y="-202"/>
    </contour>
    <component base="i"/>
    <component base="j.ogonek" xOffset="188"/>
  </outline>
</glyph>
<glyph name="j.ogonek" format="2">
  <advance width="249"/>
  <anchor x="96" y="-210" name="bottomC"/>
  <anchor x="155" y="671" name="top"/>
  <anchor x="120" y="-204" name="ogonek"/>
  <anchor x="96" y="-210" name="bottom"/>
  <outline>
    <contour>
      <point x="113" y="639" type="curve" smooth="yes"/>
      <point x="113" y="616"/>
      <point x="132" y="597"/>
      <point x="155" y="597" type="curve" smooth="yes"/>
      <point x="179" y="597"/>
      <point x="197" y="616"/>
      <point x="197" y="639" type="curve" smooth="yes"/>
      <point x="197" y="663"/>
      <point x="179" y="681"/>
      <point x="155" y="681" type="curve" smooth="yes"/>
      <point x="132" y="681"/>
      <point x="113" y="663"/>
    </contour>
    <component base="jdotless.ogonek"/>
  </outline>
</glyph>
<glyph name="j.sc" format="2">
  <advance width="483"/>
  <anchor x="214" y="0" name="bottomC"/>
  <anchor x="373" y="560" name="top"/>
  <anchor x="269" y="0" name="ogonek"/>
  <anchor x="218" y="0" name="bottom"/>
  <outline>
    <contour>
      <point x="348" y="560" type="line"/>
      <point x="348" y="195" type="line" smooth="yes"/>
      <point x="348" y="94"/>
      <point x="307" y="35"/>
      <point x="207" y="35" type="curve" smooth="yes"/>
      <point x="112" y="35"/>
      <point x="70" y="89"/>
      <point x="85" y="193" type="curve"/>
      <point x="37" y="182" type="line"/>
      <point x="18" y="67"/>
      <point x="79" y="-8"/>
      <point x="208" y="-8" type="curve" smooth="yes"/>
      <point x="330" y="-8"/>
      <point x="398" y="66"/>
      <point x="398" y="188" type="curve" smooth="yes"/>
      <point x="398" y="560" type="line"/>
    </contour>
  </outline>
</glyph>
<glyph name="l.sc" format="2">
  <advance width="540"/>
  <anchor x="315" y="0" name="bottomC"/>
  <anchor x="121" y="560" name="top"/>
  <anchor x="491" y="0" name="ogonek"/>
  <anchor x="258" y="560" name="topright"/>
  <anchor x="315" y="0" name="bottom"/>
  <outline>
    <contour>
      <point x="92" y="560" type="line"/>
      <point x="92" y="0" type="line"/>
      <point x="142" y="0" type="line"/>
      <point x="142" y="560" type="line"/>
    </contour>
    <contour>
      <point x="117" y="43" type="line"/>
      <point x="117" y="0" type="line"/>
      <point x="491" y="0" type="line"/>
      <point x="491" y="43" type="line"/>
    </contour>
  </outline>
</glyph>
<glyph name="longs.component" format="2">
  <advance width="225"/>
  <anchor x="114" y="0" name="bottomC"/>
  <anchor x="175" y="730" name="top"/>
  <anchor x="135" y="0" name="ogonek"/>
  <anchor x="121" y="0" name="bottom"/>
  <outline>
    <contour>
      <point x="135" y="0" type="line"/>
      <point x="135" y="584" type="line" smooth="yes"/>
      <point x="135" y="656"/>
      <point x="162" y="690"/>
      <point x="211" y="690" type="curve" smooth="yes"/>
      <point x="233" y="690"/>
      <point x="244" y="684"/>
      <point x="258" y="671" type="curve"/>
      <point x="265" y="716" type="line"/>
      <point x="250" y="729"/>
      <point x="234" y="735"/>
      <point x="204" y="735" type="curve" smooth="yes"/>
      <point x="119" y="735"/>
      <point x="85" y="680"/>
      <point x="85" y="588" type="curve" smooth="yes"/>
      <point x="85" y="0" type="line"/>
    </contour>
  </outline>
</glyph>
<glyph name="m.sc" format="2">
  <advance width="739"/>
  <anchor x="388" y="0" name="bottomC"/>
  <anchor x="370" y="560" name="top"/>
  <anchor x="647" y="0" name="ogonek"/>
  <anchor x="370" y="0" name="bottom"/>
  <outline>
    <contour>
      <point x="140" y="0" type="line"/>
      <point x="140" y="401" type="line"/>
      <point x="136" y="510" type="line"/>
      <point x="138" y="510" type="line"/>
      <point x="345" y="0" type="line"/>
      <point x="394" y="0" type="line"/>
      <point x="601" y="510" type="line"/>
      <point x="603" y="510" type="line"/>
      <point x="598" y="401" type="line"/>
      <point x="598" y="0" type="line"/>
      <point x="647" y="0" type="line"/>
      <point x="647" y="560" type="line"/>
      <point x="572" y="560" type="line"/>
      <point x="399" y="135" type="line"/>
      <point x="371" y="55" type="line"/>
      <point x="369" y="55" type="line"/>
      <point x="340" y="135" type="line"/>
      <point x="167" y="560" type="line"/>
      <point x="92" y="560" type="line"/>
      <point x="92" y="0" type="line"/>
    </contour>
  </outline>
</glyph>
<glyph name="n.swsh" format="2">
  <advance width="614"/>
  <anchor x="560" y="-84" name="bottomC"/>
  <anchor x="306" y="500" name="top"/>
  <anchor x="581" y="-84" name="ogonek"/>
  <anchor x="324" y="0" name="bottom"/>
  <outline>
    <contour>
      <point x="117" y="303" type="curve"/>
      <point x="139" y="282" type="line"/>
      <point x="139" y="399"/>
      <point x="224" y="466"/>
      <point x="318" y="466" type="curve" smooth="yes"/>
      <point x="404" y="466"/>
      <point x="464" y="418"/>
      <point x="464" y="308" type="curve" smooth="yes"/>
      <point x="464" y="7" type="line" smooth="yes"/>
      <point x="464" y="-51"/>
      <point x="491" y="-90"/>
      <point x="552" y="-90" type="curve" smooth="yes"/>
      <point x="579" y="-90"/>
      <point x="597" y="-85"/>
      <point x="610" y="-76" type="curve"/>
      <point x="617" y="-36" type="line"/>
      <point x="600" y="-48"/>
      <point x="587" y="-50"/>
      <point x="566" y="-50" type="curve" smooth="yes"/>
      <point x="535" y="-50"/>
      <point x="514" y="-34"/>
      <point x="514" y="5" type="curve" smooth="yes"/>
      <point x="514" y="324" type="line" smooth="yes"/>
      <point x="514" y="447"/>
      <point x="434" y="510"/>
      <point x="323" y="510" type="curve" smooth="yes"/>
      <point x="209" y="510"/>
      <point x="117" y="438"/>
    </contour>
    <contour>
      <point x="89" y="500" type="line"/>
      <point x="89" y="345" type="line"/>
      <point x="89" y="0" type="line"/>
      <point x="139" y="0" type="line"/>
      <point x="139" y="337" type="line"/>
      <point x="138" y="345" type="line"/>
      <point x="134" y="500" type="line"/>
    </contour>
  </outline>
</glyph>
<glyph name="nine.osf" format="2">
  <advance width="591"/>
  <outline>
    <contour>
      <point x="64" y="362" type="curve" smooth="yes"/>
      <point x="64" y="234"/>
      <point x="149" y="153"/>
      <point x="280" y="153" type="curve" smooth="yes"/>
      <point x="373" y="153"/>
      <point x="469" y="209"/>
      <point x="475" y="318" type="curve"/>
      <point x="478" y="318" type="line"/>
      <point x="482" y="289"/>
      <point x="485" y="261"/>
      <point x="485" y="232" type="curve" smooth="yes"/>
      <point x="485" y="68"/>
      <point x="423" y="-67"/>
      <point x="285" y="-67" type="curve" smooth="yes"/>
      <point x="181" y="-67"/>
      <point x="128" y="-17"/>
      <point x="113" y="60" type="curve"/>
      <point x="66" y="35" type="line"/>
      <point x="95" y="-56"/>
      <point x="170" y="-110"/>
      <point x="286" y="-110" type="curve" smooth="yes"/>
      <point x="437" y="-110"/>
      <point x="530" y="15"/>
      <point x="530" y="230" type="curve" smooth="yes"/>
      <point x="530" y="438"/>
      <point x="444" y="570"/>
      <point x="285" y="570" type="curve" smooth="yes"/>
      <point x="150" y="570"/>
      <point x="64" y="489"/>
    </contour>
    <contour>
      <point x="454" y="360" type="curve" smooth="yes"/>
      <point x="454" y="273"/>
      <point x="384" y="195"/>
      <point x="284" y="195" type="curve" smooth="yes"/>
      <point x="179" y="195"/>
      <point x="114" y="260"/>
      <point x="114" y="360" type="curve" smooth="yes"/>
      <point x="114" y="463"/>
      <point x="179" y="527"/>
      <point x="286" y="527" type="curve" smooth="yes"/>
      <point x="386" y="527"/>
      <point x="454" y="458"/>
    </contour>
  </outline>
</glyph>
<glyph name="nine.sc" format="2">
  <advance width="521"/>
  <outline>
    <contour>
      <point x="468" y="280" type="curve" smooth="yes"/>
      <point x="468" y="459"/>
      <point x="390" y="568"/>
      <point x="251" y="568" type="curve" smooth="yes"/>
      <point x="129" y="568"/>
      <point x="52" y="499"/>
      <point x="52" y="391" type="curve" smooth="yes"/>
      <point x="52" y="284"/>
      <point x="127" y="214"/>
      <point x="250" y="214" type="curve" smooth="yes"/>
      <point x="321" y="214"/>
      <point x="407" y="257"/>
      <point x="416" y="348" type="curve"/>
      <point x="418" y="348" type="line"/>
      <point x="421" y="328"/>
      <point x="423" y="306"/>
      <point x="423" y="285" type="curve" smooth="yes"/>
      <point x="423" y="151"/>
      <point x="381" y="35"/>
      <point x="250" y="35" type="curve" smooth="yes"/>
      <point x="160" y="35"/>
      <point x="117" y="75"/>
      <point x="102" y="137" type="curve"/>
      <point x="54" y="113" type="line"/>
      <point x="79" y="37"/>
      <point x="148" y="-8"/>
      <point x="250" y="-8" type="curve" smooth="yes"/>
      <point x="384" y="-8"/>
      <point x="468" y="90"/>
    </contour>
    <contour>
      <point x="102" y="391" type="curve" smooth="yes"/>
      <point x="102" y="473"/>
      <point x="159" y="525"/>
      <point x="251" y="525" type="curve" smooth="yes"/>
      <point x="336" y="525"/>
      <point x="397" y="467"/>
      <point x="397" y="390" type="curve" smooth="yes"/>
      <point x="397" y="321"/>
      <point x="340" y="258"/>
      <point x="249" y="258" type="curve" smooth="yes"/>
      <point x="159" y="258"/>
      <point x="102" y="310"/>
    </contour>
  </outline>
</glyph>
<glyph name="o.sc" format="2">
  <advance width="654"/>
  <anchor x="327" y="0" name="bottomC"/>
  <anchor x="327" y="560" name="top"/>
  <anchor x="397" y="0" name="ogonek"/>
  <anchor x="327" y="0" name="bottom"/>
  <outline>
    <contour>
      <point x="56" y="280" type="curve" smooth="yes"/>
      <point x="56" y="102"/>
      <point x="160" y="-8"/>
      <point x="327" y="-8" type="curve" smooth="yes"/>
      <point x="494" y="-8"/>
      <point x="598" y="102"/>
      <point x="598" y="280" type="curve" smooth="yes"/>
      <point x="598" y="458"/>
      <point x="494" y="568"/>
      <point x="327" y="568" type="curve" smooth="yes"/>
      <point x="160" y="568"/>
      <point x="56" y="458"/>
    </contour>
    <contour>
      <point x="548" y="280" type="curve" smooth="yes"/>
      <point x="548" y="127"/>
      <point x="463" y="35"/>
      <point x="327" y="35" type="curve" smooth="yes"/>
      <point x="192" y="35"/>
      <point x="106" y="127"/>
      <point x="106" y="280" type="curve" smooth="yes"/>
      <point x="106" y="433"/>
      <point x="192" y="525"/>
      <point x="327" y="525" type="curve" smooth="yes"/>
      <point x="463" y="525"/>
      <point x="548" y="433"/>
    </contour>
  </outline>
</glyph>
<glyph name="odieresis.titl.sc" format="2">
  <advance width="655"/>
  <outline>
    <contour>
      <point x="44" y="528" type="curve" smooth="yes"/>
      <point x="44" y="507"/>
      <point x="60" y="492"/>
      <point x="82" y="492" type="curve" smooth="yes"/>
      <point x="105" y="492"/>
      <point x="121" y="507"/>
      <point x="121" y="528" type="curve" smooth="yes"/>
      <point x="121" y="550"/>
      <point x="105" y="565"/>
      <point x="82" y="565" type="curve" smooth="yes"/>
      <point x="60" y="565"/>
      <point x="44" y="550"/>
    </contour>
    <contour>
      <point x="541" y="528" type="curve" smooth="yes"/>
      <point x="541" y="507"/>
      <point x="556" y="492"/>
      <point x="579" y="492" type="curve" smooth="yes"/>
      <point x="602" y="492"/>
      <point x="617" y="507"/>
      <point x="617" y="528" type="curve" smooth="yes"/>
      <point x="617" y="550"/>
      <point x="602" y="565"/>
      <point x="579" y="565" type="curve" smooth="yes"/>
      <point x="556" y="565"/>
      <point x="541" y="550"/>
    </contour>
    <contour>
      <point x="60" y="280" type="curve" smooth="yes"/>
      <point x="60" y="102"/>
      <point x="164" y="-8"/>
      <point x="331" y="-8" type="curve" smooth="yes"/>
      <point x="497" y="-8"/>
      <point x="601" y="102"/>
      <point x="601" y="280" type="curve" smooth="yes"/>
      <point x="601" y="458"/>
      <point x="497" y="568"/>
      <point x="331" y="568" type="curve" smooth="yes"/>
      <point x="164" y="568"/>
      <point x="60" y="458"/>
    </contour>
    <contour>
      <point x="551" y="280" type="curve" smooth="yes"/>
      <point x="551" y="127"/>
      <point x="466" y="35"/>
      <point x="331" y="35" type="curve" smooth="yes"/>
      <point x="195" y="35"/>
      <point x="110" y="127"/>
      <point x="110" y="280" type="curve" smooth="yes"/>
      <point x="110" y="433"/>
      <point x="195" y="525"/>
      <point x="331" y="525" type="curve" smooth="yes"/>
      <point x="466" y="525"/>
      <point x="551" y="433"/>
    </contour>
  </outline>
</glyph>
<glyph name="oe.sc" format="2">
  <advance width="949"/>
  <anchor x="543" y="560" name="top"/>
  <anchor x="543" y="0" name="bottom"/>
  <outline>
    <contour>
      <point x="560" y="280" type="curve"/>
      <point x="560" y="463"/>
      <point x="481" y="568"/>
      <point x="318" y="568" type="curve" smooth="yes"/>
      <point x="156" y="568"/>
      <point x="56" y="458"/>
      <point x="56" y="280" type="curve" smooth="yes"/>
      <point x="56" y="102"/>
      <point x="157" y="-8"/>
      <point x="316" y="-8" type="curve" smooth="yes"/>
      <point x="480" y="-8"/>
      <point x="560" y="97"/>
    </contour>
    <contour>
      <point x="106" y="280" type="curve" smooth="yes"/>
      <point x="106" y="432"/>
      <point x="188" y="525"/>
      <point x="319" y="525" type="curve" smooth="yes"/>
      <point x="451" y="525"/>
      <point x="519" y="441"/>
      <point x="519" y="280" type="curve" smooth="yes"/>
      <point x="519" y="119"/>
      <point x="451" y="35"/>
      <point x="319" y="35" type="curve" smooth="yes"/>
      <point x="188" y="35"/>
      <point x="106" y="127"/>
    </contour>
    <contour>
      <point x="911" y="0" type="line"/>
      <point x="911" y="43" type="line"/>
      <point x="547" y="43" type="line"/>
      <point x="544" y="0" type="line"/>
    </contour>
    <contour>
      <point x="567" y="0" type="line"/>
      <point x="567" y="560" type="line"/>
      <point x="524" y="560" type="line"/>
      <point x="524" y="0" type="line"/>
    </contour>
    <contour>
      <point x="829" y="263" type="line"/>
      <point x="829" y="306" type="line"/>
      <point x="544" y="306" type="line"/>
      <point x="544" y="263" type="line"/>
    </contour>
    <contour>
      <point x="897" y="517" type="line"/>
      <point x="897" y="560" type="line"/>
      <point x="544" y="560" type="line"/>
      <point x="544" y="517" type="line"/>
    </contour>
  </outline>
</glyph>
<glyph name="ogonek.A" format="2">
  <advance width="618"/>
  <anchor x="602" y="0" name="_ogonek"/>
  <outline>
    <contour>
      <point x="571" y="20" type="line"/>
      <point x="472" y="-15"/>
      <point x="433" y="-58"/>
      <point x="433" y="-117" type="curve" smooth="yes"/>
      <point x="433" y="-177"/>
      <point x="476" y="-209"/>
      <point x="537" y="-209" type="curve" smooth="yes"/>
      <point x="569" y="-209"/>
      <point x="597" y="-201"/>
      <point x="614" y="-189" type="curve"/>
      <point x="603" y="-156" type="line"/>
      <point x="588" y="-167"/>
      <point x="567" y="-172"/>
      <point x="542" y="-172" type="curve" smooth="yes"/>
      <point x="503" y="-172"/>
      <point x="474" y="-152"/>
      <point x="474" y="-114" type="curve" smooth="yes"/>
      <point x="474" y="-71"/>
      <point x="502" y="-35"/>
      <point x="602" y="0" type="curve"/>
    </contour>
  </outline>
</glyph>
<glyph name="ogonek.E" format="2">
  <advance width="610"/>
  <anchor x="572" y="0" name="_ogonek"/>
  <outline>
    <contour>
      <point x="550" y="15" type="line"/>
      <point x="446" y="-16"/>
      <point x="403" y="-56"/>
      <point x="403" y="-120" type="curve" smooth="yes"/>
      <point x="403" y="-177"/>
      <point x="446" y="-209"/>
      <point x="507" y="-209" type="curve" smooth="yes"/>
      <point x="540" y="-209"/>
      <point x="567" y="-201"/>
      <point x="585" y="-189" type="curve"/>
      <point x="573" y="-156" type="line"/>
      <point x="558" y="-167"/>
      <point x="538" y="-172"/>
      <point x="513" y="-172" type="curve" smooth="yes"/>
      <point x="473" y="-172"/>
      <point x="444" y="-152"/>
      <point x="444" y="-114" type="curve" smooth="yes"/>
      <point x="444" y="-71"/>
      <point x="472" y="-36"/>
      <point x="572" y="0" type="curve"/>
    </contour>
  </outline>
</glyph>
<glyph name="ogonek.I" format="2">
  <advance width="265"/>
  <anchor x="155" y="0" name="_ogonek"/>
  <outline>
    <contour>
      <point x="125" y="14" type="line"/>
      <point x="45" y="-24"/>
      <point x="12" y="-67"/>
      <point x="12" y="-118" type="curve" smooth="yes"/>
      <point x="12" y="-175"/>
      <point x="55" y="-209"/>
      <point x="113" y="-209" type="curve" smooth="yes"/>
      <point x="145" y="-209"/>
      <point x="167" y="-202"/>
      <point x="188" y="-187" type="curve"/>
      <point x="175" y="-154" type="line"/>
      <point x="158" y="-167"/>
      <point x="142" y="-172"/>
      <point x="117" y="-172" type="curve" smooth="yes"/>
      <point x="79" y="-172"/>
      <point x="53" y="-150"/>
      <point x="53" y="-111" type="curve" smooth="yes"/>
      <point x="53" y="-75"/>
      <point x="75" y="-45"/>
      <point x="155" y="0" type="curve"/>
    </contour>
  </outline>
</glyph>
<glyph name="ogonek.e" format="2">
  <advance width="553"/>
  <anchor x="374" y="31" name="_ogonek"/>
  <outline>
    <contour>
      <point x="232" y="-118" type="curve" smooth="yes"/>
      <point x="232" y="-174"/>
      <point x="276" y="-209"/>
      <point x="337" y="-209" type="curve" smooth="yes"/>
      <point x="369" y="-209"/>
      <point x="396" y="-201"/>
      <point x="413" y="-190" type="curve"/>
      <point x="402" y="-156" type="line"/>
      <point x="387" y="-167"/>
      <point x="367" y="-172"/>
      <point x="342" y="-172" type="curve" smooth="yes"/>
      <point x="304" y="-172"/>
      <point x="274" y="-151"/>
      <point x="274" y="-112" type="curve" smooth="yes"/>
      <point x="274" y="-69"/>
      <point x="309" y="-32"/>
      <point x="406" y="18" type="curve"/>
      <point x="374" y="31" type="line"/>
      <point x="275" y="-16"/>
      <point x="232" y="-58"/>
    </contour>
  </outline>
</glyph>
<glyph name="oslash.sc" format="2">
  <advance width="654"/>
  <anchor x="327" y="0" name="bottomC"/>
  <anchor x="327" y="560" name="top"/>
  <anchor x="397" y="0" name="ogonek"/>
  <anchor x="327" y="0" name="bottom"/>
  <outline>
    <contour>
      <point x="535" y="582" type="line"/>
      <point x="472" y="497" type="line"/>
      <point x="498" y="477" type="line"/>
      <point x="576" y="582" type="line"/>
    </contour>
    <contour>
      <point x="156" y="76" type="line"/>
      <point x="182" y="55" type="line"/>
      <point x="498" y="478" type="line"/>
      <point x="472" y="497" type="line"/>
    </contour>
    <contour>
      <point x="120" y="-28" type="line"/>
      <point x="181" y="55" type="line"/>
      <point x="156" y="77" type="line"/>
      <point x="79" y="-28" type="line"/>
    </contour>
    <component base="o.sc"/>
  </outline>
</glyph>
<glyph name="p.sc" format="2">
  <advance width="531"/>
  <anchor x="268" y="560" name="top"/>
  <anchor x="117" y="0" name="bottom"/>
  <outline>
    <contour>
      <point x="292" y="230" type="line" smooth="yes"/>
      <point x="416" y="230"/>
      <point x="493" y="292"/>
      <point x="493" y="394" type="curve" smooth="yes"/>
      <point x="493" y="498"/>
      <point x="416" y="560"/>
      <point x="292" y="560" type="curve" smooth="yes"/>
      <point x="120" y="560" type="line"/>
      <point x="120" y="517" type="line"/>
      <point x="292" y="517" type="line" smooth="yes"/>
      <point x="389" y="517"/>
      <point x="443" y="472"/>
      <point x="443" y="394" type="curve" smooth="yes"/>
      <point x="443" y="317"/>
      <point x="389" y="273"/>
      <point x="292" y="273" type="curve" smooth="yes"/>
      <point x="120" y="273" type="line"/>
      <point x="120" y="230" type="line"/>
    </contour>
    <contour>
      <point x="142" y="0" type="line"/>
      <point x="142" y="560" type="line"/>
      <point x="92" y="560" type="line"/>
      <point x="92" y="0" type="line"/>
    </contour>
  </outline>
</glyph>
<glyph name="periodsuperior" format="2">
  <advance width="159"/>
  <outline>
    <contour>
      <point x="47" y="361" type="curve" smooth="yes"/>
      <point x="47" y="342"/>
      <point x="60" y="328"/>
      <point x="79" y="328" type="curve" smooth="yes"/>
      <point x="99" y="328"/>
      <point x="112" y="342"/>
      <point x="112" y="361" type="curve" smooth="yes"/>
      <point x="112" y="381"/>
      <point x="99" y="394"/>
      <point x="79" y="394" type="curve" smooth="yes"/>
      <point x="60" y="394"/>
      <point x="47" y="381"/>
    </contour>
  </outline>
</glyph>
<glyph name="question.sc" format="2">
  <advance width="442"/>
  <outline>
    <contour>
      <point x="26" y="424" type="curve"/>
      <point x="72" y="402" type="line"/>
      <point x="83" y="478"/>
      <point x="130" y="524"/>
      <point x="224" y="524" type="curve" smooth="yes"/>
      <point x="308" y="524"/>
      <point x="359" y="484"/>
      <point x="359" y="417" type="curve" smooth="yes"/>
      <point x="359" y="341"/>
      <point x="315" y="302"/>
      <point x="190" y="275" type="curve"/>
      <point x="190" y="158" type="line"/>
      <point x="239" y="158" type="line"/>
      <point x="239" y="251" type="line"/>
      <point x="349" y="273"/>
      <point x="411" y="325"/>
      <point x="411" y="423" type="curve" smooth="yes"/>
      <point x="411" y="515"/>
      <point x="334" y="568"/>
      <point x="227" y="568" type="curve" smooth="yes"/>
      <point x="107" y="568"/>
      <point x="42" y="512"/>
    </contour>
    <component base="period" xScale="0.968125" yScale="0.9575" xOffset="106"/>
  </outline>
</glyph>
<glyph name="quotesingle.sc" format="2">
  <advance width="196"/>
  <outline>
    <contour>
      <point x="75" y="582" type="line"/>
      <point x="75" y="376" type="line"/>
      <point x="115" y="376" type="line"/>
      <point x="129" y="582" type="line"/>
    </contour>
  </outline>
</glyph>
<glyph name="r.swsh" format="2">
  <advance width="458"/>
  <anchor x="118" y="0" name="bottomC"/>
  <anchor x="208" y="500" name="top"/>
  <anchor x="139" y="0" name="ogonek"/>
  <anchor x="126" y="0" name="bottom"/>
  <outline>
    <contour>
      <point x="473" y="442" type="line"/>
      <point x="391" y="454"/>
      <point x="377" y="510"/>
      <point x="280" y="510" type="curve" smooth="yes"/>
      <point x="184" y="510"/>
      <point x="121" y="439"/>
      <point x="121" y="313" type="curve"/>
      <point x="139" y="300" type="line"/>
      <point x="140" y="411"/>
      <point x="206" y="464"/>
      <point x="282" y="464" type="curve" smooth="yes"/>
      <point x="356" y="464"/>
      <point x="371" y="418"/>
      <point x="446" y="405" type="curve"/>
    </contour>
    <contour>
      <point x="139" y="0" type="line"/>
      <point x="139" y="375" type="line"/>
      <point x="139" y="385" type="line"/>
      <point x="131" y="500" type="line"/>
      <point x="89" y="500" type="line"/>
      <point x="89" y="0" type="line"/>
    </contour>
  </outline>
</glyph>
<glyph name="s_t" format="2">
  <advance width="824"/>
  <outline>
    <contour>
      <point x="453" y="131" type="curve" smooth="yes"/>
      <point x="453" y="208"/>
      <point x="405" y="247"/>
      <point x="267" y="270" type="curve" smooth="yes"/>
      <point x="151" y="291"/>
      <point x="113" y="318"/>
      <point x="113" y="372" type="curve" smooth="yes"/>
      <point x="113" y="423"/>
      <point x="173" y="466"/>
      <point x="255" y="466" type="curve" smooth="yes"/>
      <point x="332" y="466"/>
      <point x="386" y="436"/>
      <point x="407" y="369" type="curve"/>
      <point x="449" y="389" type="line"/>
      <point x="404" y="471"/>
      <point x="390" y="528"/>
      <point x="390" y="576" type="curve" smooth="yes"/>
      <point x="390" y="651"/>
      <point x="421" y="690"/>
      <point x="477" y="690" type="curve" smooth="yes"/>
      <point x="533" y="690"/>
      <point x="569" y="651"/>
      <point x="569" y="561" type="curve" smooth="yes"/>
      <point x="569" y="125" type="line" smooth="yes"/>
      <point x="569" y="32"/>
      <point x="622" y="-10"/>
      <point x="699" y="-10" type="curve" smooth="yes"/>
      <point x="747" y="-10"/>
      <point x="787" y="7"/>
      <point x="812" y="32" type="curve"/>
      <point x="794" y="73" type="line"/>
      <point x="770" y="49"/>
      <point x="743" y="36"/>
      <point x="707" y="36" type="curve" smooth="yes"/>
      <point x="650" y="36"/>
      <point x="619" y="69"/>
      <point x="619" y="132" type="curve" smooth="yes"/>
      <point x="619" y="582" type="line" smooth="yes"/>
      <point x="619" y="685"/>
      <point x="560" y="733"/>
      <point x="480" y="733" type="curve" smooth="yes"/>
      <point x="399" y="733"/>
      <point x="343" y="683"/>
      <point x="343" y="576" type="curve" smooth="yes"/>
      <point x="343" y="535"/>
      <point x="365" y="485"/>
      <point x="389" y="452" type="curve"/>
      <point x="394" y="468" type="line"/>
      <point x="362" y="497"/>
      <point x="315" y="510"/>
      <point x="255" y="510" type="curve" smooth="yes"/>
      <point x="140" y="510"/>
      <point x="63" y="446"/>
      <point x="63" y="367" type="curve" smooth="yes"/>
      <point x="63" y="290"/>
      <point x="113" y="249"/>
      <point x="254" y="224" type="curve" smooth="yes"/>
      <point x="368" y="204"/>
      <point x="403" y="177"/>
      <point x="403" y="129" type="curve" smooth="yes"/>
      <point x="403" y="73"/>
      <point x="351" y="34"/>
      <point x="258" y="34" type="curve" smooth="yes"/>
      <point x="172" y="34"/>
      <point x="105" y="66"/>
      <point x="84" y="134" type="curve"/>
      <point x="43" y="107" type="line"/>
      <point x="72" y="28"/>
      <point x="155" y="-10"/>
      <point x="252" y="-10" type="curve" smooth="yes"/>
      <point x="376" y="-10"/>
      <point x="453" y="46"/>
    </contour>
    <contour>
      <point x="807" y="457" type="line"/>
      <point x="807" y="500" type="line"/>
      <point x="584" y="500" type="line"/>
      <point x="584" y="457" type="line"/>
    </contour>
  </outline>
</glyph>
<glyph name="seven.osf" format="2">
  <advance width="514"/>
  <outline>
    <contour>
      <point x="16" y="516" type="line"/>
      <point x="457" y="516" type="line"/>
      <point x="451" y="528" type="line"/>
      <point x="280" y="352"/>
      <point x="199" y="137"/>
      <point x="189" y="-100" type="curve"/>
      <point x="240" y="-100" type="line"/>
      <point x="250" y="143"/>
      <point x="321" y="334"/>
      <point x="491" y="514" type="curve"/>
      <point x="491" y="560" type="line"/>
      <point x="16" y="560" type="line"/>
    </contour>
  </outline>
</glyph>
<glyph name="seven.sc" format="2">
  <advance width="479"/>
  <outline>
    <contour>
      <point x="31" y="517" type="line"/>
      <point x="426" y="517" type="line"/>
      <point x="419" y="532" type="line"/>
      <point x="267" y="385"/>
      <point x="193" y="202"/>
      <point x="184" y="0" type="curve"/>
      <point x="234" y="0" type="line"/>
      <point x="244" y="205"/>
      <point x="311" y="372"/>
      <point x="457" y="518" type="curve"/>
      <point x="457" y="560" type="line"/>
      <point x="31" y="560" type="line"/>
    </contour>
  </outline>
</glyph>
<glyph name="seven.tf" format="2">
  <advance width="604"/>
  <outline>
    <contour>
      <point x="56" y="614" type="line"/>
      <point x="532" y="614" type="line"/>
      <point x="525" y="626" type="line"/>
      <point x="343" y="450"/>
      <point x="251" y="237"/>
      <point x="244" y="0" type="curve"/>
      <point x="296" y="0" type="line"/>
      <point x="303" y="243"/>
      <point x="392" y="440"/>
      <point x="568" y="614" type="curve"/>
      <point x="568" y="660" type="line"/>
      <point x="56" y="660" type="line"/>
    </contour>
  </outline>
</glyph>
<glyph name="seven.tosf" format="2">
  <advance width="604"/>
  <outline>
    <contour>
      <point x="64" y="516" type="line"/>
      <point x="505" y="516" type="line"/>
      <point x="499" y="528" type="line"/>
      <point x="328" y="352"/>
      <point x="248" y="137"/>
      <point x="238" y="-100" type="curve"/>
      <point x="288" y="-100" type="line"/>
      <point x="298" y="143"/>
      <point x="375" y="340"/>
      <point x="539" y="514" type="curve"/>
      <point x="539" y="560" type="line"/>
      <point x="64" y="560" type="line"/>
    </contour>
  </outline>
</glyph>
<glyph name="six.tf" format="2">
  <advance width="604"/>
  <outline>
    <contour>
      <point x="83" y="330" type="curve" smooth="yes"/>
      <point x="83" y="121"/>
      <point x="168" y="-10"/>
      <point x="329" y="-10" type="curve" smooth="yes"/>
      <point x="464" y="-10"/>
      <point x="549" y="71"/>
      <point x="549" y="198" type="curve" smooth="yes"/>
      <point x="549" y="325"/>
      <point x="466" y="407"/>
      <point x="333" y="407" type="curve" smooth="yes"/>
      <point x="244" y="407"/>
      <point x="150" y="353"/>
      <point x="138" y="249" type="curve"/>
      <point x="135" y="249" type="line"/>
      <point x="132" y="274"/>
      <point x="130" y="296"/>
      <point x="130" y="316" type="curve" smooth="yes"/>
      <point x="130" y="478"/>
      <point x="197" y="624"/>
      <point x="337" y="624" type="curve" smooth="yes"/>
      <point x="422" y="624"/>
      <point x="468" y="580"/>
      <point x="488" y="518" type="curve"/>
      <point x="535" y="540" type="line"/>
      <point x="502" y="624"/>
      <point x="442" y="670"/>
      <point x="340" y="670" type="curve" smooth="yes"/>
      <point x="194" y="670"/>
      <point x="83" y="554"/>
    </contour>
    <contour>
      <point x="497" y="200" type="curve" smooth="yes"/>
      <point x="497" y="100"/>
      <point x="433" y="37"/>
      <point x="328" y="37" type="curve" smooth="yes"/>
      <point x="228" y="37"/>
      <point x="160" y="105"/>
      <point x="160" y="200" type="curve" smooth="yes"/>
      <point x="160" y="285"/>
      <point x="228" y="360"/>
      <point x="330" y="360" type="curve" smooth="yes"/>
      <point x="433" y="360"/>
      <point x="497" y="296"/>
    </contour>
  </outline>
</glyph>
<glyph name="sterling.part" format="2">
  <advance width="580"/>
  <outline>
    <contour>
      <point x="135" y="477" type="curve" smooth="yes"/>
      <point x="135" y="426"/>
      <point x="153" y="386"/>
      <point x="207" y="318" type="curve" smooth="yes"/>
      <point x="261" y="252"/>
      <point x="279" y="213"/>
      <point x="279" y="164" type="curve" smooth="yes"/>
      <point x="279" y="89"/>
      <point x="227" y="25"/>
      <point x="139" y="25" type="curve" smooth="yes"/>
      <point x="102" y="25"/>
      <point x="77" y="40"/>
      <point x="77" y="67" type="curve" smooth="yes"/>
      <point x="77" y="92"/>
      <point x="100" y="108"/>
      <point x="142" y="108" type="curve" smooth="yes"/>
      <point x="250" y="108"/>
      <point x="293" y="-10"/>
      <point x="421" y="-10" type="curve" smooth="yes"/>
      <point x="502" y="-10"/>
      <point x="554" y="37"/>
      <point x="554" y="135" type="curve"/>
      <point x="513" y="135" type="line"/>
      <point x="512" y="64"/>
      <point x="481" y="31"/>
      <point x="415" y="31" type="curve" smooth="yes"/>
      <point x="301" y="31"/>
      <point x="275" y="146"/>
      <point x="141" y="146" type="curve" smooth="yes"/>
      <point x="72" y="146"/>
      <point x="30" y="111"/>
      <point x="30" y="67" type="curve" smooth="yes"/>
      <point x="30" y="21"/>
      <point x="70" y="-10"/>
      <point x="133" y="-10" type="curve" smooth="yes"/>
      <point x="247" y="-10"/>
      <point x="318" y="75"/>
      <point x="318" y="167" type="curve" smooth="yes"/>
      <point x="318" y="222"/>
      <point x="300" y="267"/>
      <point x="247" y="337" type="curve" smooth="yes"/>
      <point x="197" y="405"/>
      <point x="182" y="439"/>
      <point x="182" y="484" type="curve" smooth="yes"/>
      <point x="182" y="569"/>
      <point x="241" y="625"/>
      <point x="335" y="625" type="curve" smooth="yes"/>
      <point x="418" y="625"/>
      <point x="466" y="575"/>
      <point x="480" y="496" type="curve"/>
      <point x="524" y="519" type="line"/>
      <point x="504" y="616"/>
      <point x="439" y="670"/>
      <point x="337" y="670" type="curve" smooth="yes"/>
      <point x="218" y="670"/>
      <point x="135" y="591"/>
    </contour>
  </outline>
</glyph>
